<?xml version="1.0" encoding="UTF-8"?>
<svg width="24px" height="24px" viewBox="0 0 24 24" version="1.1" xmlns="http://www.w3.org/2000/svg" xmlns:xlink="http://www.w3.org/1999/xlink">
    <defs>
        <path d="M17,3 L17,20 L3,20 L3,3 L17,3 Z M15,5 L5,5 L5,18 L15,18 L15,5 Z M13,0 L13,2 L2,2 L2,17 L0,17 L0,0 L13,0 Z M11,13 L11,15 L7,15 L7,13 L11,13 Z M13,10 L13,12 L7,12 L7,10 L13,10 Z M13,7 L13,9 L7,9 L7,7 L13,7 Z" id="path-1"></path>
    </defs>
    <g id="icon/24/documents" stroke="none" stroke-width="1" fill="none" fill-rule="evenodd">
        <g id="Group" fill="#FFFFFF" opacity="0">
            <g id="icon/24/background">
                <rect id="Rectangle" x="0" y="0" width="24" height="24"></rect>
            </g>
        </g>
        <g id="parts/colors/icon_colors/charcoal-02" transform="translate(3.000000, 2.000000)">
            <mask id="mask-2" fill="white">
                <use xlink:href="#path-1"></use>
            </mask>
            <use id="Mask" fill="#000000" fill-rule="nonzero" xlink:href="#path-1"></use>
            <g id="Group" mask="url(#mask-2)">
                <g transform="translate(-24.000000, -23.000000)">
                    <rect id="Rectangle-Copy" fill="#403C3C" x="0" y="0" width="66" height="66"></rect>
                </g>
            </g>
        </g>
    </g>
</svg>