<?xml version="1.0" encoding="utf-8"?>
<svg version="1.1" id="Layer_1" xmlns="http://www.w3.org/2000/svg" xmlns:xlink="http://www.w3.org/1999/xlink" x="0px" y="0px"
	 viewBox="0 0 56 56" style="enable-background:new 0 0 56 56;" xml:space="preserve">
<style type="text/css">
	.st0{fill:#FFFFFF;stroke:#CBCBCB;stroke-linecap:round;stroke-linejoin:round;stroke-miterlimit:10;}
	.st1{fill:none;stroke:#E22925;stroke-linecap:round;stroke-linejoin:round;stroke-miterlimit:10;}
	.st2{fill:#FFFFFF;stroke:#6E6E6E;stroke-linecap:round;stroke-linejoin:round;stroke-miterlimit:10;}
	.st3{fill:#E1261C;}
</style>
<ellipse class="st0" cx="28" cy="28" rx="26" ry="27.3"/>
<path class="st1" d="M27.1,29.4"/>
<path class="st1" d="M28.6,30.1"/>
<g>
	<ellipse class="st2" cx="28.1" cy="28" rx="10" ry="10.5"/>
	<path class="st1" d="M24.1,24.3c0.2-2,1.9-3.6,4-3.6c2.2,0,4,1.8,4,4s-1.8,4-4,4"/>
	<line class="st1" x1="28.1" y1="28.7" x2="28.1" y2="31.7"/>
	<path class="st3" d="M28.1,35.7L28.1,35.7c-0.5,0-1-0.4-1-1l0,0c0-0.6,0.4-1,1-1l0,0c0.6,0,1,0.4,1,1l0,0
		C29.1,35.2,28.7,35.7,28.1,35.7z"/>
</g>
</svg>
