<?xml version="1.0" encoding="utf-8"?>
<svg version="1.1" id="Layer_1" xmlns="http://www.w3.org/2000/svg" xmlns:xlink="http://www.w3.org/1999/xlink" x="0px" y="0px"
	 viewBox="0 0 56 56" style="enable-background:new 0 0 56 56;" xml:space="preserve">
<style type="text/css">
	.st0{fill:#FFFFFF;stroke:#CBCBCB;stroke-linecap:round;stroke-linejoin:round;stroke-miterlimit:10;}
	.st1{fill:none;stroke:#E22925;stroke-linecap:round;stroke-linejoin:round;stroke-miterlimit:10;}
	.st2{fill:#FFFFFF;stroke:#6E6E6E;stroke-linecap:round;stroke-linejoin:round;stroke-miterlimit:10;}
	.st3{fill:none;stroke:#E22925;stroke-linecap:round;stroke-linejoin:round;}
</style>
<ellipse class="st0" cx="28" cy="28" rx="26" ry="27.3"/>
<path class="st1" d="M27.1,29.4"/>
<path class="st1" d="M28.6,30.1"/>
<path class="st2" d="M35,39c-9.6,0-17.5-7.9-17.5-17.5L21,18l4.5,5.5l-3,3L30,34l3.5-4l5,5.5L35,39z"/>
<path class="st3" d="M29.3,22.7c0-2.6,2-4.7,4.5-4.7c1.7-0.1,3.5,1,3.9,2.5"/>
<g>
	<path class="st3" d="M38.4,23.3c0,2.5-1.8,4.7-4.3,4.7c0,0,0,0-0.1,0c-1.7,0-3.4-0.9-4.1-2.4"/>
	<polyline class="st3" points="29.5,28 29.8,25.5 32.7,25.8 	"/>
</g>
<polyline class="st3" points="38.5,18.1 37.9,20.6 35,19.9 "/>
</svg>
