<?xml version="1.0" encoding="utf-8"?>
<svg version="1.1" id="Layer_1" xmlns="http://www.w3.org/2000/svg" xmlns:xlink="http://www.w3.org/1999/xlink" x="0px" y="0px"
	 viewBox="0 0 56 56" style="enable-background:new 0 0 56 56;" xml:space="preserve">
<style type="text/css">
	.st0{fill:#FFFFFF;stroke:#CBCBCB;stroke-linecap:round;stroke-linejoin:round;stroke-miterlimit:10;}
	.st1{fill:none;stroke:#E22925;stroke-linecap:round;stroke-linejoin:round;stroke-miterlimit:10;}
	.st2{fill:#FFFFFF;stroke:#6E6E6E;stroke-linecap:round;stroke-linejoin:round;}
	.st3{fill:none;stroke:#E22925;stroke-linecap:round;stroke-linejoin:round;}
</style>
<ellipse class="st0" cx="28" cy="28" rx="26" ry="27.3"/>
<path class="st1" d="M27.1,29.4"/>
<path class="st1" d="M28.6,30.1"/>
<path class="st2" d="M25.5,34.5h5l4,4v-3c0-0.5,0.5-1,1-1h2c0.5,0,1-0.5,1-1v-9c0-0.6-0.5-1-1-1h-13v10C24.5,34,25,34.5,25.5,34.5z"
	/>
<path class="st2" d="M32.5,17.5h-14c-0.5,0-1,0.5-1,1v10.8c0,0.7,0.6,1.2,1.2,1.2h1.8c0.8,0,1,0.4,1,1v3l5-4h6c0.7,0,1-0.4,1-1v-11
	C33.5,18,33,17.5,32.5,17.5z"/>
<line class="st3" x1="21.5" y1="21.5" x2="29.5" y2="21.5"/>
<line class="st3" x1="21.5" y1="24.5" x2="29.5" y2="24.5"/>
</svg>
