<?xml version="1.0" encoding="utf-8"?>
<svg version="1.1" id="Layer_1" xmlns="http://www.w3.org/2000/svg" xmlns:xlink="http://www.w3.org/1999/xlink" x="0px" y="0px"
	 viewBox="0 0 24 24" style="enable-background:new 0 0 24 24;" xml:space="preserve">
<style type="text/css">
	.st0{fill:#FFFFFF;stroke:#6E6E6E;stroke-linecap:round;stroke-linejoin:round;stroke-miterlimit:10;}
	.st1{fill:none;stroke:#E22925;stroke-linecap:round;stroke-linejoin:round;}
</style>
<path class="st0" d="M19,22.5C9.4,22.5,1.5,14.6,1.5,5L5,1.5L9.5,7l-3,3l7.5,7.5l3.5-4l5,5.5L19,22.5z"/>
<path class="st1" d="M13.3,6.2c0-2.6,2-4.7,4.5-4.7c1.7-0.1,3.5,1,3.9,2.5"/>
<g>
	<path class="st1" d="M22.4,6.8c0,2.5-1.8,4.7-4.3,4.7c0,0,0,0-0.1,0c-1.7,0-3.4-0.9-4.1-2.4"/>
	<polyline class="st1" points="13.5,11.5 13.8,9 16.7,9.3 	"/>
</g>
<polyline class="st1" points="22.5,1.6 21.9,4.1 19,3.4 "/>
</svg>
