<?xml version="1.0" encoding="UTF-8"?>
<svg xmlns="http://www.w3.org/2000/svg" width="24px" height="24px" viewBox="0 0 24 24">
  <g id="icon_24_language_es" data-name="icon/24/language_es">
    <g id="Group" style="opacity: 0">
      <g id="background">
        <rect width="24" height="24" style="fill: #fff"/>
      </g>
    </g>
    <g>
      <path d="M15.61,14.74A1.81,1.81,0,0,1,14,13.21l-2,.58a3.63,3.63,0,0,0,3.6,2.9c2,0,3.4-1.13,3.4-2.82,0-3.73-4.41-2.36-4.41-3.89,0-.4.35-.64.9-.64A1.66,1.66,0,0,1,17,10.58l1.93-.8A3.51,3.51,0,0,0,15.5,7.39c-1.75,0-3.21,1.1-3.21,2.61,0,3.65,4.39,2.44,4.39,3.94C16.68,14.42,16.25,14.74,15.61,14.74Z" style="fill: #403c3c"/>
      <polygon points="11.3 14.61 7.29 14.61 7.29 12.92 10.33 12.92 10.33 10.95 7.29 10.95 7.29 9.46 11.16 9.46 11.16 7.49 5 7.49 5 16.59 11.3 16.59 11.3 14.61" style="fill: #403c3c"/>
      <path d="M22,4H2A1,1,0,0,0,1,5V19a1,1,0,0,0,1,1H3v1.8a.5.5,0,0,0,.85.35L6,20H22a1,1,0,0,0,1-1V5A1,1,0,0,0,22,4ZM21,18H3V6H21Z" style="fill: #403c3c"/>
    </g>
  </g>
</svg>


