<svg data-name="Layer 1" xmlns="http://www.w3.org/2000/svg" viewBox="0 0 160 160">
  <defs>
    <style>
      .cls-1 {
        fill: #ec0c21;
      }

      .cls-2 {
        fill: #403c3c;
      }
    </style>
  </defs>

  <path class="cls-1" d="M35,5V57.69A19.94,19.94,0,0,1,64.35,70H85V95l20-25h50V5Z"/>
  <polygon class="cls-2" points="86.41 96.11 83.6 93.86 104.14 68.19 153.2 68.19 153.2 5 156.8 5 156.8 71.79 105.87 71.79 86.41 96.11"/>
  <path class="cls-2" d="M86.81,155h-3.6V129.45a22.74,22.74,0,0,0-22.75-22.66H29.57A22.73,22.73,0,0,0,6.82,129.45V155H3.22V129.45a26.33,26.33,0,0,1,26.35-26.26H60.46a26.33,26.33,0,0,1,26.35,26.26Z"/>
  <path class="cls-2" d="M76.73,47v4.23H71.82V47Z"/>
  <path class="cls-2" d="M90.85,47v4.23H86V47Z"/>
  <path class="cls-2" d="M104.14,47v4.23H99.23V47Z"/>
  <path class="cls-2" d="M117.71,47v4.23h-4.9V47Zm-4.56-25.38h4.23l-.6,21.4H113.7Z"/>
  <path class="cls-2" d="M85,68.19H65.72A21.79,21.79,0,1,0,66.81,75a21.25,21.25,0,0,0-.24-3.2H85Zm-40,25A18.2,18.2,0,1,1,63.21,75,18.21,18.21,0,0,1,45,93.19Z"/>
</svg>
