<svg data-name="Layer 1" xmlns="http://www.w3.org/2000/svg" viewBox="0 0 160 160">
  <defs>
    <style>
      .cls-1 {
        fill: #403c3c;
      }

      .cls-2 {
        fill: #ec0c21;
      }

      .cls-3 {
        fill: #413c3c;
      }
    </style>
  </defs>

  <path class="cls-1" d="M78.78,145.31l-3.55-2.83c-21.08-16.81-42.88-34.19-58.77-61q-1.28-2.15-2.5-4.3C2.12,56.35,9.18,29.64,29.68,17.63,46.45,7.8,66.75,15.68,80,28.13c13.25-12.45,33.55-20.33,50.32-10.5A43.93,43.93,0,0,1,151.79,55l-3.6,0A40.32,40.32,0,0,0,128.5,20.73c-15.66-9.17-35-1-47.23,11.17L80,33.17,78.73,31.9C66.51,19.73,47.16,11.56,31.5,20.73A40.37,40.37,0,0,0,17.09,75.37q1.21,2.13,2.46,4.25c15.56,26.27,37.1,43.44,57.93,60L81,142.49Z"/>
  <circle class="cls-2" cx="42.51" cy="75" r="7.49"/>
  <polygon class="cls-1" points="84.43 100.16 74.43 60.16 66.11 76.8 48.2 76.8 48.2 73.2 63.89 73.2 75.57 49.84 85.57 89.84 93.89 73.2 111.8 73.2 111.8 76.8 96.11 76.8 84.43 100.16"/>
  <path class="cls-3" d="M42.51,84.29a9.29,9.29,0,1,1,0-18.58v3.6A5.69,5.69,0,1,0,48.2,75h3.6A9.3,9.3,0,0,1,42.51,84.29Z"/>
  <circle class="cls-2" cx="120" cy="75" r="7.49"/>
  <path class="cls-3" d="M120,84.29a9.29,9.29,0,0,1,0-18.58v3.6A5.69,5.69,0,1,0,125.69,75h3.6A9.3,9.3,0,0,1,120,84.29Z"/>
</svg>
