<svg data-name="Layer 1" xmlns="http://www.w3.org/2000/svg" viewBox="0 0 160 160">
  <defs>
    <style>
      .cls-1 {
        fill: #403c3c;
      }

      .cls-2 {
        fill: #ec0c21;
      }
    </style>
  </defs>

  <path class="cls-1" d="M104.65,81.27l-2.55-2.55,11.78-11.78A14.74,14.74,0,1,0,93,46.1l-2.55-2.54a18.34,18.34,0,0,1,25.94,25.92Z"/>
  <path class="cls-2" d="M115.16,91.76a16.54,16.54,0,0,1,0,23.38h0a16.53,16.53,0,0,1-23.38,0L44.84,68.22a16.54,16.54,0,0,1,0-23.38h0a16.53,16.53,0,0,1,23.38,0"/>
  <path class="cls-1" d="M113.89,113.86a14.64,14.64,0,0,1-10.42,4.32h0a14.64,14.64,0,0,1-10.42-4.31L46.12,67a14.74,14.74,0,0,1,0-20.84l-2.54-2.54a18.32,18.32,0,0,0,0,25.92L54.07,80l-10.5,10.5a18.34,18.34,0,0,0,25.94,25.93L67,113.87A14.73,14.73,0,1,1,46.12,93l10.5-10.51,33.89,33.88a18.21,18.21,0,0,0,13,5.37h0a18.21,18.21,0,0,0,13-5.37Z"/>
  <rect class="cls-1" x="59.16" y="66.52" width="18.15" height="3.6" transform="translate(-28.32 69.65) rotate(-45.82)"/>
  <rect class="cls-1" x="82.56" y="89.92" width="18.15" height="3.6" transform="translate(-38 93.53) rotate(-45.82)"/>
  <path class="cls-1" d="M80.07,156.8H80c-5.45-.16-61.8-18.64-61.8-72.54V28.2H20c32.42,0,49.81-10.59,58.69-19.47L80,7.45l1.28,1.28C90.12,17.61,107.53,28.2,140,28.2v3.6c-32.24,0-50.33-10.21-60-19.3-9.52,8.92-27.1,18.92-58.16,19.29V84.26c0,27.05,15.07,44.19,27.7,53.81C63.41,148.66,78,153.06,80,153.2c2.06-.14,16.6-4.54,30.49-15.13,12.62-9.62,27.67-26.76,27.67-53.81h3.6c0,53.9-56.29,72.38-61.73,72.54Z"/>
</svg>
