<svg version="1.1" xmlns="http://www.w3.org/2000/svg" xmlns:xlink="http://www.w3.org/1999/xlink" x="0px" y="0px"
	 viewBox="0 0 160 160" style="enable-background:new 0 0 160 160;" xml:space="preserve">
<style type="text/css">
	.st0{clip-path:url(#SVGID_2_);}
	.st1{fill:#ec0c21;}
	.st2{fill:#403C3C;}
</style>
<g>
	<g>
		<defs>
			<path id="SVGID_1_" d="M120,85L97.3,44.1c-1.4-2.5-4.1-4.1-7-4.1H15L5,85H120z"/>
		</defs>
		<clipPath id="SVGID_2_">
			<use xlink:href="#SVGID_1_"  style="overflow:visible;"/>
		</clipPath>
		<g class="st0">
			<rect x="10" y="40" class="st1" width="95" height="15"/>
		</g>
	</g>
</g>
<rect x="15" y="83.2" class="st2" width="105" height="3.6"/>
<rect x="73.2" y="60" class="st2" width="3.6" height="25"/>
<rect x="75" y="98.2" class="st2" width="10" height="3.6"/>
<rect x="30" y="98.2" class="st2" width="10" height="3.6"/>
<path class="st1" d="M125,128.3c3.7,0,6.7,3,6.7,6.7c0,3.7-3,6.7-6.7,6.7c-3.7,0-6.7-3-6.7-6.7l0,0
	C118.3,131.3,121.3,128.3,125,128.3 M125,115c-11,0-20,9-20,20s9,20,20,20s20-9,20-20S136,115,125,115z"/>
<path class="st2" d="M125,143.5v-3.6c2.7,0,4.9-2.2,4.9-4.9c0-2.7-2.2-4.9-4.9-4.9s-4.9,2.2-4.9,4.9l0,0h-3.6c0-4.7,3.8-8.5,8.5-8.5
	s8.5,3.8,8.5,8.5S129.7,143.5,125,143.5z"/>
<path class="st1" d="M35,128.3c3.7,0,6.7,3,6.7,6.7c0,3.7-3,6.7-6.7,6.7s-6.7-3-6.7-6.7l0,0C28.3,131.3,31.3,128.3,35,128.3 M35,115
	c-11,0-20,9-20,20s9,20,20,20s20-9,20-20S46,115,35,115z"/>
<path class="st2" d="M153,120v7c0,3.3-2.7,6-6,6h-4v2c0,9.9-8.1,18-18,18s-18-8.1-18-18s8.1-18,18-18v-4c-11.5,0-21,8.8-22,20.2
	H53.2v1.8c0,10.1-8.1,18.2-18.2,18.2c-10.1,0-18.2-8.1-18.2-18.2c0-10.1,8.1-18.2,18.2-18.2h0v-3.6c-11.3,0-20.8,8.7-21.7,20H13
	c-3.4,0-6.2-2.8-6.2-6.2V85.2l9.6-43.4h73.8c2.3,0,4.3,1.2,5.4,3.2l23.2,41.7l34.3,4.9v16.6H140v3.6h16.8V88.4l-35.7-5.1L98.9,43.2
	c-1.7-3.1-5-5-8.6-5H13.6L3.2,84.6l0,42.4c0,5.4,4.4,9.8,9.8,9.8h0.3c1,12,11.5,20.9,23.5,19.9c10.6-0.9,19-9.3,19.9-19.9h46.3
	c0.8,12.1,11.3,21.3,23.5,20.4c10.9-0.7,19.6-9.3,20.4-20.2h0.1c5.5,0,10-4.5,10-10v-7L153,120z"/>
<path class="st2" d="M35,143.5v-3.6c2.7,0,4.9-2.2,4.9-4.9c0-2.7-2.2-4.9-4.9-4.9c-2.7,0-4.9,2.2-4.9,4.9l0,0h-3.6
	c0-4.7,3.8-8.5,8.5-8.5s8.5,3.8,8.5,8.5S39.7,143.5,35,143.5z"/>
</svg>
