<svg data-name="Layer 1" xmlns="http://www.w3.org/2000/svg" viewBox="0 0 160 160">
  <g>
    <rect x="25" y="85" width="110" height="20" style="fill: #ec0c21"/>
    <g>
      <path d="M13.2,48v64a9.813,9.813,0,0,0,9.8,9.8H137a9.813,9.813,0,0,0,9.8-9.8V48a9.812,9.812,0,0,0-9.8-9.8H23A9.812,9.812,0,0,0,13.2,48Zm130,0v64a6.21,6.21,0,0,1-6.2,6.2H23a6.211,6.211,0,0,1-6.2-6.2V48A6.21,6.21,0,0,1,23,41.8H137A6.209,6.209,0,0,1,143.2,48Z" style="fill: #403c3c"/>
      <rect x="25" y="53.201" width="110" height="3.6" style="fill: #403c3c"/>
      <rect x="25" y="63.201" width="110" height="3.6" style="fill: #403c3c"/>
      <rect x="25" y="73.201" width="50" height="3.6" style="fill: #403c3c"/>
      <rect x="85" y="73.201" width="50" height="3.6" style="fill: #403c3c"/>
      <polygon points="6.8 31.8 25 31.8 25 28.201 3.2 28.201 3.2 50 6.8 50 6.8 31.8" style="fill: #403c3c"/>
      <polygon points="135 28.201 135 31.8 153.2 31.8 153.2 50 156.8 50 156.8 28.201 135 28.201" style="fill: #403c3c"/>
      <polygon points="153.2 128.307 135 128.307 135 131.907 156.8 131.907 156.8 110.107 153.2 110.107 153.2 128.307" style="fill: #403c3c"/>
      <polygon points="6.8 110.107 3.2 110.107 3.2 131.907 25 131.907 25 128.307 6.8 128.307 6.8 110.107" style="fill: #403c3c"/>
      <polygon points="75 103.201 26.8 103.201 26.8 86.8 35 86.8 35 83.201 23.2 83.201 23.2 106.8 75 106.8 75 103.201" style="fill: #403c3c"/>
      <polygon points="120 86.8 133.2 86.8 133.2 95 136.8 95 136.8 83.201 120 83.201 120 86.8" style="fill: #403c3c"/>
    </g>
  </g>
</svg>
