<svg data-name="Layer 1" xmlns="http://www.w3.org/2000/svg" viewBox="0 0 160 160">
  <defs>
    <style>
      .cls-1 {
        fill: #ec0c21;
      }

      .cls-2 {
        fill: #403c3c;
      }
    </style>
  </defs>

  <circle class="cls-1" cx="80" cy="19.96" r="15"/>
  <rect class="cls-1" x="15" y="65" width="30" height="30"/>
  <rect class="cls-1" x="115" y="65.02" width="30" height="30"/>
  <rect class="cls-1" x="65" y="65" width="30" height="30"/>
  <polygon class="cls-2" points="145 126.8 145 123.2 131.8 123.2 131.8 108.2 81.8 108.2 81.8 95 78.2 95 78.2 108.2 28.2 108.2 28.2 123.2 13.2 123.2 13.2 156.8 45 156.8 45 153.2 16.8 153.2 16.8 126.8 45 126.8 45 123.2 31.8 123.2 31.8 111.8 78.2 111.8 78.2 123.2 63.2 123.2 63.2 156.8 95 156.8 95 153.2 66.8 153.2 66.8 126.8 95 126.8 95 123.2 81.8 123.2 81.8 111.8 128.2 111.8 128.2 123.2 113.2 123.2 113.2 156.8 145 156.8 145 153.2 116.8 153.2 116.8 126.8 145 126.8"/>
  <path class="cls-2" d="M131.8,63.22v-15h-50v-15H80a13.2,13.2,0,0,1,0-26.4V3.16a16.8,16.8,0,0,0-1.8,33.5V48.2h-50v15h-15V95h3.6V66.8H45V63.2H31.8V51.8H78.2V63.2h-15V95h3.6V66.8H95V63.2H81.8V51.8h46.4V63.22h-15V95h3.6V66.82H145v-3.6Z"/>
</svg>
