<svg data-name="Layer 1" xmlns="http://www.w3.org/2000/svg" viewBox="0 0 160 160">
  <defs>
    <style>
      .cls-1 {
        fill: #ec0c21;
      }

      .cls-2 {
        fill: #403c3c;
      }
    </style>
  </defs>

  <path class="cls-1" d="M120,80a39.8,39.8,0,0,1-6.89,22.45l25.09,25.1a75,75,0,0,0,0-94.92l-25,25A39.82,39.82,0,0,1,120,80Z"/>
  <path class="cls-1" d="M80,40a39.79,39.79,0,0,1,22.52,6.94l25-25a75,75,0,0,0-94.8.05L57.55,46.89A39.8,39.8,0,0,1,80,40Z"/>
  <path class="cls-1" d="M40,80a39.77,39.77,0,0,1,6.89-22.44L22,32.69a75,75,0,0,0-.05,94.8l25-25A39.79,39.79,0,0,1,40,80Z"/>
  <path class="cls-1" d="M80,120a39.82,39.82,0,0,1-22.38-6.84l-25,25a75,75,0,0,0,94.92.05l-25.1-25.1A39.77,39.77,0,0,1,80,120Z"/>
  <rect class="cls-2" x="42.97" y="16.62" width="3.6" height="35" transform="translate(-11.01 41.65) rotate(-45)"/>
  <path class="cls-2" d="M26.88,80.05h-3.6a56.52,56.52,0,0,1,16.65-40.2l2.55,2.55A52.9,52.9,0,0,0,26.88,80.05Z"/>
  <path class="cls-2" d="M80.11,3.32a76.88,76.88,0,0,0-76.8,76.8h3.6A73.06,73.06,0,0,1,32.6,24.5L54.78,46.67a41.7,41.7,0,0,0-4.34,3.77L53,53a38.2,38.2,0,1,1,54,54l2.55,2.55a41.7,41.7,0,0,0,3.77-4.34l8.2,8.2a55.36,55.36,0,0,1-3.84,4.28l2.54,2.55c1.37-1.37,2.65-2.79,3.86-4.26l11.64,11.64a73,73,0,0,1-55.62,25.69v3.6a76.8,76.8,0,0,0,0-153.6ZM80,38.2a41.45,41.45,0,0,0-22.21,6.39L35.41,22.21a73,73,0,0,1,89.34,0L102.29,44.63A41.56,41.56,0,0,0,80,38.2Zm29.56,12.24a42.76,42.76,0,0,0-4.27-3.72l22.27-22.27a73.16,73.16,0,0,1,8.12,8.11L113.39,54.85A43.05,43.05,0,0,0,109.56,50.44Zm16.73,62.65a56.41,56.41,0,0,0,10.59-33h-3.6a52.87,52.87,0,0,1-9.57,30.46l-8.3-8.3a41.79,41.79,0,0,0,0-44.34L138,35.36a73,73,0,0,1,.05,89.46Z"/>
</svg>
