<svg data-name="Layer 1" xmlns="http://www.w3.org/2000/svg" viewBox="0 0 160 160">
  <defs>
    <style>
      .cls-1 {
        fill: #ec0c21;
      }

      .cls-2 {
        fill: #403c3c;
      }
    </style>
  </defs>
  <polygon class="cls-1" points="95 90 70 90 60 115 75 115 65 150 95 105 85 105 95 90"/>
  <path class="cls-2" d="M130,58.2c-1.44,0-2.82,.2-4.15,.54,.7-2.86,1.05-5.79,1.05-8.74,0-20.29-16.51-36.8-36.8-36.8-11.96,0-23.08,5.78-29.99,15.5-1.67-.33-3.4-.5-5.16-.5-14.32,0-26.05,11.31-26.72,25.47-8.67,1.96-15.03,9.8-15.03,18.83,0,10.64,8.66,19.3,19.3,19.3h34.84l-10,25h15.27l-9.34,32.71,3.46,.99,10.65-37.29h-14.73l10-25H32.5c-8.66,0-15.7-7.04-15.7-15.7,0-7.76,5.78-14.44,13.46-15.54l1.54-.22v-1.79c0-12.76,10.39-23.15,23.15-23.15s23.15,10.38,23.15,23.15h3.6c0-11.64-7.47-21.56-17.87-25.23,6.28-8.13,15.93-12.92,26.28-12.92,18.31,0,33.2,14.89,33.2,33.2,0,3.49-.55,6.95-1.61,10.22l-.09,.26c-5.01,2.91-8.4,8.32-8.4,14.53h3.6c0-7.28,5.92-13.2,13.2-13.2s13.2,5.92,13.2,13.2-5.92,13.2-13.2,13.2h-40v3.6h40c9.26,0,16.8-7.54,16.8-16.8s-7.54-16.8-16.8-16.8Z"/>
</svg>