<svg data-name="Layer 1" xmlns="http://www.w3.org/2000/svg" viewBox="0 0 160 160">
  <defs>
    <style>
      .cls-1 {
        fill: #ec0c21;
      }

      .cls-2 {
        fill: #403c3c;
      }
    </style>
  </defs>

  <path class="cls-1" d="M45,95A20,20,0,0,1,5,95Z"/>
  <path class="cls-1" d="M155,75a20,20,0,0,1-40,0Z"/>
  <rect class="cls-2" x="20" y="143.2" width="120" height="3.6"/>
  <polygon class="cls-2" points="81.8 59.91 78.2 59.91 78.2 133.2 40 133.2 40 136.8 120 136.8 120 133.2 81.8 133.2 81.8 59.91"/>
  <path class="cls-2" d="M136.07,28l-40,7.26A16.83,16.83,0,0,0,81.8,23.3V15H78.2v8.3A16.82,16.82,0,0,0,63.2,40c0,.41,0,.81.06,1.21L23.74,48.4,3.2,94.62V95a22.05,22.05,0,0,0,21.73,21.8A22.13,22.13,0,0,0,46.8,95v-.38L27.57,51.36l36.33-6.6A16.79,16.79,0,0,0,96.8,40c0-.41,0-.81-.06-1.21L132,32.38,113.2,74.62V75a21.8,21.8,0,1,0,43.6,0v-.38ZM42.24,93.22H25v3.6H43.09A18.51,18.51,0,0,1,24.93,113.2,18.43,18.43,0,0,1,6.8,95.37L25,54.43ZM80,53.2A13.2,13.2,0,1,1,93.2,40,13.21,13.21,0,0,1,80,53.2Zm55.07,40A18.5,18.5,0,0,1,116.8,75.37L135,34.43l17.24,38.79H135v3.6h18.09A18.42,18.42,0,0,1,135.07,93.2Z"/>
</svg>
