<svg data-name="purchase-security" xmlns="http://www.w3.org/2000/svg" viewBox="0 0 160 160">
  <defs>
    <style>
      .cls-1 {
        fill: #ec0c21;
      }

      .cls-2 {
        fill: #403c3c;
      }

    </style>
  </defs>
  <path class="cls-1" d="M80,50c-16.57,0-30,13.43-30,30s13.43,30,30,30,30-13.43,30-30-13.43-30-30-30Zm1.99,45.06v3.98h-3.47v-4.02c-4.61-.68-8.24-4.19-8.88-9.77l-.05-.46h3.59c.58,4.31,3.54,6.93,7.12,6.93,3.76,0,6.22-1.9,6.22-4.86,0-7.61-15.86-3.21-15.86-14.25,0-4.15,3.17-7.11,7.86-7.66v-3.98h3.47v4.02c4.23,.63,7.4,3.47,8.03,8.12l.02,.21h-3.59c-.7-3.21-3.04-5.03-6.32-5.03-3.51,0-5.62,1.65-5.62,4.31,0,7.28,15.9,2.67,15.9,14.21,0,4.53-3.3,7.66-8.41,8.25Z"/>
  <g>
    <path class="cls-2" d="M138.2,79.26c0,27.05-15.05,44.2-27.67,53.82-13.89,10.59-28.42,14.99-30.49,15.12-2.09-.14-16.63-4.54-30.54-15.12-12.64-9.62-27.7-26.76-27.7-53.82V26.79c31.06-.37,48.64-10.37,58.17-19.29,9.71,9.08,27.8,19.3,60.04,19.3v-3.6c-32.47,0-49.88-10.59-58.76-19.47l-1.27-1.27-1.27,1.27c-8.88,8.88-26.28,19.47-58.69,19.47h-1.8v56.06c0,53.9,56.35,72.38,61.8,72.54h0s.05,0,.07,0h0c5.44-.16,61.73-18.64,61.73-72.54h-3.6Z"/>
    <path class="cls-2" d="M51.8,80h-3.6c0,17.53,14.27,31.8,31.8,31.8v-3.6c-15.55,0-28.2-12.65-28.2-28.2Z"/>
    <path class="cls-2" d="M80,51.8c15.55,0,28.2,12.65,28.2,28.2h3.6c0-17.53-14.27-31.8-31.8-31.8v3.6Z"/>
  </g>
</svg>