<svg data-name="Layer 1" xmlns="http://www.w3.org/2000/svg" viewBox="0 0 160 160">
  <polygon points="95.099 24.912 95.099 104.963 55.099 64.912 95.099 24.912" style="fill: #ec0c21"/>
  <g>
    <circle cx="60.097" cy="134.933" r="5" style="fill: #403c3c"/>
    <polygon points="20.037 8.207 20.037 11.807 98.208 11.807 98.208 95.828 98.208 102.093 98.208 106.134 98.208 108.089 98.208 118.207 21.838 118.207 21.838 108.633 21.838 106.135 21.838 102.094 21.838 88.579 21.838 49.976 18.238 49.976 18.238 151.807 100.09 151.807 100.09 148.207 21.838 148.207 21.838 121.807 101.808 121.807 101.808 8.207 20.037 8.207" style="fill: #403c3c"/>
    <rect x="63.3" y="22.929" width="3.6" height="14.142" transform="translate(-2.15 54.806) rotate(-44.989)" style="fill: #403c3c"/>
    <rect x="30.1" y="63.138" width="15" height="3.6" style="fill: #403c3c"/>
    <rect x="58.029" y="98.417" width="14.142" height="3.6" transform="translate(-51.796 75.385) rotate(-45)" style="fill: #403c3c"/>
    <polygon points="93.826 106.236 96.373 103.692 57.644 64.913 96.372 26.184 93.826 23.639 52.554 64.911 93.826 106.236" style="fill: #403c3c"/>
    <polygon points="106.371 28.725 103.828 31.274 137.554 64.933 103.825 98.728 106.373 101.271 142.646 64.927 106.371 28.725" style="fill: #403c3c"/>
  </g>
</svg>
