<svg data-name="Layer 1" xmlns="http://www.w3.org/2000/svg" viewBox="0 0 160 160">
  <defs>
    <style>
      .cls-1 {
        fill: #ec0c21;
      }

      .cls-2 {
        fill: #403c3c;
      }
    </style>
  </defs>

  <path class="cls-1" d="M74.91,105H35a20,20,0,0,0,15,19.34V140H65V122.21A20,20,0,0,0,74.91,105Z"/>
  <path class="cls-2" d="M125,68.19a26.81,26.81,0,0,0-24.07,15h-46a21.78,21.78,0,0,0-6.76,42.49l0,16.11H65v-3.6H51.8l0-15.26-1.36-.35a18.14,18.14,0,0,1-13.56-15.8H100v-3.6H36.84A18.2,18.2,0,0,1,54.93,86.79h48.33l.47-1.08A23.2,23.2,0,1,1,125,118.19v3.6a26.8,26.8,0,1,0,0-53.6Z"/>
  <path class="cls-2" d="M135,101.8a6.8,6.8,0,1,1,6.8-6.8A6.81,6.81,0,0,1,135,101.8Zm0-10a3.2,3.2,0,1,0,3.2,3.2A3.21,3.21,0,0,0,135,91.8Z"/>
  <path class="cls-2" d="M100,71.8V68.2H41.8V35.05a13.2,13.2,0,1,1,26.4,0V54.91h3.6V35.05a16.8,16.8,0,1,0-33.6,0V68.2H26.8V35a28.2,28.2,0,0,1,56.4,0V54.94h3.6V35a31.8,31.8,0,0,0-63.6,0V68.2H8.2v83.6H100v-3.6H11.8V71.8Z"/>
</svg>
