<svg data-name="Layer 1" xmlns="http://www.w3.org/2000/svg" viewBox="0 0 160 160">
  <rect x="25" y="35" width="105" height="25" style="fill: #ec0c21"/>
  <g>
    <path d="M141.8,13.2H126.648a11.784,11.784,0,0,0-23.3,0h-16.7a11.784,11.784,0,0,0-23.3,0h-16.7a11.784,11.784,0,0,0-23.3,0H8.2V141.8H141.8Zm-3.6,125H11.8V16.8H23.352A11.808,11.808,0,0,0,35,26.8V23.2A8.2,8.2,0,1,1,43.2,15v1.8H63.352A11.808,11.808,0,0,0,75,26.8V23.2A8.2,8.2,0,1,1,83.2,15v1.8h20.152A11.808,11.808,0,0,0,115,26.8V23.2a8.2,8.2,0,1,1,8.2-8.2v1.8h15Z" style="fill: #403c3c"/>
    <polygon points="23.2 60 26.8 60 26.8 36.8 130 36.8 130 33.201 23.2 33.201 23.2 60" style="fill: #403c3c"/>
    <polygon points="23.2 80 26.8 80 26.8 71.8 40 71.8 40 68.201 23.2 68.201 23.2 80" style="fill: #403c3c"/>
    <polygon points="53.2 80 56.8 80 56.8 71.8 70 71.8 70 68.201 53.2 68.201 53.2 80" style="fill: #403c3c"/>
    <polygon points="83.2 80 86.8 80 86.8 71.8 100 71.8 100 68.201 83.2 68.201 83.2 80" style="fill: #403c3c"/>
    <polygon points="113.2 80 116.8 80 116.8 71.8 130 71.8 130 68.201 113.2 68.201 113.2 80" style="fill: #403c3c"/>
    <polygon points="23.2 105 26.8 105 26.8 96.8 40 96.8 40 93.201 23.2 93.201 23.2 105" style="fill: #403c3c"/>
    <polygon points="53.2 105 56.8 105 56.8 96.8 70 96.8 70 93.201 53.2 93.201 53.2 105" style="fill: #403c3c"/>
    <polygon points="83.2 105 86.8 105 86.8 96.8 100 96.8 100 93.201 83.2 93.201 83.2 105" style="fill: #403c3c"/>
    <polygon points="113.2 105 116.8 105 116.8 96.8 130 96.8 130 93.201 113.2 93.201 113.2 105" style="fill: #403c3c"/>
    <polygon points="23.2 130 26.8 130 26.8 121.8 40 121.8 40 118.201 23.2 118.201 23.2 130" style="fill: #403c3c"/>
    <polygon points="53.2 130 56.8 130 56.8 121.8 70 121.8 70 118.201 53.2 118.201 53.2 130" style="fill: #403c3c"/>
    <polygon points="83.2 130 86.8 130 86.8 121.8 100 121.8 100 118.201 83.2 118.201 83.2 130" style="fill: #403c3c"/>
    <polygon points="113.2 130 116.8 130 116.8 121.8 130 121.8 130 118.201 113.2 118.201 113.2 130" style="fill: #403c3c"/>
    <polygon points="148.2 30 148.2 148.201 20 148.201 20 151.8 151.8 151.8 151.8 30 148.2 30" style="fill: #403c3c"/>
  </g>
</svg>
