<svg data-name="Layer 1" xmlns="http://www.w3.org/2000/svg" viewBox="0 0 160 160">
  <defs>
    <style>
      .cls-1 {
        fill: #ec0c21;
      }

      .cls-2 {
        fill: #403c3c;
      }
    </style>
  </defs>
  <path class="cls-1" d="M80,5a75,75,0,1,0,75,75A75,75,0,0,0,80,5Zm0,135a60,60,0,1,1,60-60A60,60,0,0,1,80,140.05Z"/>
  <path class="cls-2" d="M80.1,156.83A76.88,76.88,0,0,1,3.3,80H6.9A73.2,73.2,0,1,0,80.1,6.83V3.23a76.8,76.8,0,0,1,0,153.6Z"/>
  <path class="cls-2" d="M138.22,80.05h3.6A61.8,61.8,0,1,0,80,141.85v-3.6c-1.1,0-2.2,0-3.29-.09V111.63a32.25,32.25,0,0,0,3.27.17c1,0,2.1,0,3.13-.15v28.4h3.6v-29a31.62,31.62,0,0,0,15.76-8.59l-2.55-2.55A28,28,0,0,1,80,108.2h0A28.2,28.2,0,1,1,108.2,80h3.6a32.45,32.45,0,0,0-.24-3.84l23.75-14.24A57.86,57.86,0,0,1,138.22,80.05Zm-89.08-7.7L26,58.54a57.94,57.94,0,0,1,3.29-6.88l22.54,13.7A31.12,31.12,0,0,0,49.14,72.35Zm8.38,30.13h0a31.58,31.58,0,0,0,15.62,8.56v26.78A58.15,58.15,0,0,1,24.71,62L48.44,76.12A33.13,33.13,0,0,0,48.2,80,31.74,31.74,0,0,0,57.52,102.48ZM80,48.2A31.81,31.81,0,0,0,53.62,62.26L31.11,48.58a58.12,58.12,0,0,1,97.87.06L106.42,62.33A31.79,31.79,0,0,0,80,48.2Zm30.87,24.17a31.51,31.51,0,0,0-2.62-6.94l22.58-13.71a58.09,58.09,0,0,1,3.23,6.75Z"/>
  <path class="cls-2" d="M82,95.2v4H78.48v-4c-4.61-.68-8.24-4.19-8.88-9.77l0-.46h3.59c.58,4.31,3.54,6.93,7.12,6.93,3.76,0,6.21-1.9,6.21-4.86,0-7.62-15.85-3.22-15.85-14.26,0-4.14,3.17-7.1,7.86-7.65v-4H82v4a9.08,9.08,0,0,1,8,8.12l0,.21h-3.6a6.05,6.05,0,0,0-6.32-5c-3.51,0-5.62,1.65-5.62,4.31C74.47,80,90.36,75.41,90.36,87,90.36,91.48,87.07,94.61,82,95.2Z"/>
</svg>
