<svg data-name="Layer 1" xmlns="http://www.w3.org/2000/svg" viewBox="0 0 160 160">
  <defs>
    <style>
      .cls-1 {
        fill: #ec0c21;
      }

      .cls-2 {
        fill: #403c3c;
      }
    </style>
  </defs>

  <polygon class="cls-1" points="5 55.03 5 75.03 80 145.03 155 75.03 155 55.03 80 125.03 5 55.03"/>
  <rect class="cls-2" x="78.54" y="5" width="3.6" height="50.03"/>
  <polygon class="cls-2" points="104.01 31.21 80.34 7.55 56.68 31.21 54.13 28.67 80.34 2.45 106.56 28.67 104.01 31.21"/>
  <polygon class="cls-2" points="95.2 53.23 95.2 56.83 153.2 56.83 153.2 150.42 114.88 112.38 112.35 114.93 150.93 153.23 9.35 153.23 47.65 114.92 45.11 112.38 6.8 150.69 6.8 56.83 65.17 56.83 65.17 53.23 3.2 53.23 3.2 156.83 156.8 156.83 156.8 53.23 95.2 53.23"/>
  <polygon class="cls-2" points="80.01 127.49 3.77 56.35 6.23 53.71 80.01 122.57 153.77 53.72 156.23 56.35 80.01 127.49"/>
</svg>
