<svg data-name="Layer 1" xmlns="http://www.w3.org/2000/svg" viewBox="0 0 160 160">
  <rect x="15" y="120" width="65" height="30" style="fill: #ec0c21"/>
  <g>
    <polygon points="72.337 88.2 60 88.2 60 91.8 68.738 91.8 68.738 102.929 65 102.929 65 106.528 78.201 106.528 78.201 148.2 16.8 148.2 16.8 106.528 60 106.528 60 102.929 26.222 102.929 26.222 91.8 35 91.8 35 88.2 22.622 88.2 22.622 102.929 13.2 102.929 13.2 151.8 81.8 151.8 81.8 102.929 72.337 102.929 72.337 88.2" style="fill: #403c3c"/>
    <path d="M144.279,7.966,95.336,52.379l-7.76-7.409,38.7-38.7-2.545-2.545L84.971,42.484l-.011-.01-1.3,1.324L82.425,45.03l.011.01-6.718,6.828L63.727,63.727,48.335,79.119,61.082,74.87A59.707,59.707,0,0,1,80,71.8h.746l5.518-5.519L96.549,56.14,146.7,10.632ZM83.728,63.727,79.25,68.2a63.258,63.258,0,0,0-17.624,2.715L75.11,57.534l3.6,3.718,2.587-2.5-3.617-3.737,2.461-2.451,3.569,3.691,2.587-2.5-3.655-3.782,2.4-2.44,7.68,7.331Z" style="fill: #403c3c"/>
  </g>
</svg>
