<svg xmlns="http://www.w3.org/2000/svg" viewBox="0 0 160 160">
  <defs>
    <style>
      .ae79001e-c180-420f-a1f5-b854ea6ea4cc {
        fill: none;
      }

      .acd5555e-3d68-4ce3-b694-d299fad26d56 {
        fill: #ec0c21;
      }

      .b34a68d9-6ff5-4428-bcab-16b564243391 {
        fill: #403c3c;
      }
    </style>
  </defs>
  <g data-name="white bg">
    <rect class="ae79001e-c180-420f-a1f5-b854ea6ea4cc" x="-0.1" width="160" height="160"/>
  </g>
  <g data-name="Layer 1">
    <path class="acd5555e-3d68-4ce3-b694-d299fad26d56" d="M77.52,25.09A35,35,0,0,0,52,81a40.41,40.41,0,0,1,8,24h40a40.17,40.17,0,0,1,7.91-23.9,35,35,0,0,0-30.4-56ZM80,80a20,20,0,1,1,20-20A20,20,0,0,1,80,80Z"/>
    <path class="b34a68d9-6ff5-4428-bcab-16b564243391" d="M132.13,24.59l-2.55,2.54L140.65,38.2H80A21.83,21.83,0,0,0,58.2,60h3.6A18.21,18.21,0,0,1,80,41.8h27.74A33.13,33.13,0,0,1,106.48,80a42.23,42.23,0,0,0-8.28,25.43v7.75H70v3.6H98.2v6.48a5.53,5.53,0,0,1-.58,2.46l-2.21,4.42a5.47,5.47,0,0,1-4.92,3h-21a5.47,5.47,0,0,1-4.92-3l-1.68-3.36H88.28v-3.6H61.8V106.8H95v-3.6H81.8V81.72A21.83,21.83,0,0,0,101.8,60H98.2A18.21,18.21,0,0,1,80,78.2H19.35L30.42,67.13l-2.55-2.54L12.45,80,27.87,95.41l2.55-2.54L19.35,81.8h31l.23.31a38.93,38.93,0,0,1,7.61,23.34v17.83a9.15,9.15,0,0,0,1,4.07l2.21,4.42a9.05,9.05,0,0,0,8.14,5h21a9.05,9.05,0,0,0,8.14-5l2.21-4.42a9.15,9.15,0,0,0,1-4.07V105.45a38.65,38.65,0,0,1,7.55-23.26A36.74,36.74,0,0,0,112,41.8h28.68L129.58,52.87l2.55,2.54L147.55,40ZM54.77,81.8H78.2v21.4H61.74A42.71,42.71,0,0,0,54.77,81.8Z"/>
  </g>
</svg>
