<svg data-name="Layer 1" xmlns="http://www.w3.org/2000/svg" viewBox="0 0 160 160">
  <defs>
    <style>
      .cls-1 {
        fill: #ec0c21;
      }

      .cls-2 {
        fill: #403c3c;
      }
    </style>
  </defs>
  <g data-name="Layer 1">
    <circle class="cls-1" cx="85.08" cy="42.81" r="32.8"/>
    <g>
      <path class="cls-2" d="M101.78,91.01c3.3,0,6.9,2.6,6.9,6.4,0,0,.1,2.8-1.7,4.6-1.1,1.1-2.8,1.7-5,1.7h-28.1v3.6h28.1c3.2,0,5.8-1,7.6-2.9,2.9-3,2.7-7.1,2.7-7.2,0-6-5.4-10-10.5-10H41.78l-29.5,29.5,2.5,2.5,28.5-28.2h58.5Z"/>
      <path class="cls-2" d="M144.28,76.51c-1.9-1.9-4.5-3-7.2-3s-5.3,1.1-7.2,3l-16,16,2.5,2.5,16-16c1.3-1.2,2.9-1.9,4.7-1.9s3.5,.6,4.7,1.9c1.2,1.3,1.9,2.9,1.9,4.7s-.7,3.5-1.9,4.7l-38.7,38.7h-31l-6.94,6.94-26.76-26.76-2.55,2.55,26.76,26.76-15.21,15.21,2.5,2.5,23.6-23.6h31l39.8-39.8c1.9-1.9,3-4.5,3-7.2s-1.1-5.3-3-7.2Z"/>
      <path class="cls-2" d="M85.08,77.41v-3.6c-17.1,0-31-13.9-31-31h-3.6c0,19.1,15.5,34.6,34.6,34.6Z"/>
      <path class="cls-2" d="M116.08,42.81h3.6c0-19.1-15.5-34.6-34.6-34.6v3.6c17.1,0,31,13.9,31,31Z"/>
      <path class="cls-2" d="M84.78,58.61c-4.7,0-8.5-3.4-9.3-9.1h-4.7l.1,.6c.8,7.3,5.6,11.9,11.6,12.8v5.3h4.5v-5.2c6.7-.8,11-4.9,10.9-10.7,0-15.1-20.8-9.1-20.8-18.6,0-3.5,2.8-5.7,7.4-5.7,4.3,0,7.4,2.4,8.3,6.6h4.7v-.3c-.8-6.2-5-9.9-10.5-10.7v-5.3h-4.5v5.2c-6.1,.7-10.3,4.6-10.3,10,0,14.5,20.8,8.7,20.8,18.7,0,3.9-3.3,6.4-8.2,6.4Z"/>
    </g>
  </g>
</svg>