<svg data-name="Layer 1" xmlns="http://www.w3.org/2000/svg" viewBox="0 0 160 160">
  <defs>
    <style>
      .cls-1 {
        fill: #ec0c21;
      }

      .cls-2 {
        fill: #403c3c;
      }
    </style>
  </defs>

  <path class="cls-1" d="M140,117.91c-11.27,0-20-3.83-22.55-15.86a19.61,19.61,0,0,1,4.32-1.72A19.56,19.56,0,0,1,125,100c1.68,7.34,7.86,10,15,10Z"/>
  <rect class="cls-1" x="63.45" y="37.11" width="10.61" height="28.28" transform="translate(-16.1 63.62) rotate(-45)"/>
  <path class="cls-2" d="M91.78,29.39l0-18.41-78,67.66,2.36,2.72,72-62.48v12l19.27,19.26-5,5a10.23,10.23,0,0,1-14.4,0l-2.8-2.81-12,12v84H61.5L51.77,94.68l-3.54.64,3.68,20.23L18.73,148.74l2.54,2.55,31.42-31.43L58.5,151.8l18.3,0V65.75l8.39-8.37.27.27a13.82,13.82,0,0,0,19.47.05l7.62-7.55Z"/>
  <rect class="cls-2" x="128.2" y="124.97" width="3.6" height="25.04"/>
  <path class="cls-2" d="M141.85,83.65l-.1-5.48H140c-9.72,0-16.78,7.42-16.78,17.65a19.84,19.84,0,0,0,.16,2.47c-10.14.91-21.06,10.08-26.56,23.43V95A11.81,11.81,0,0,0,85,83.2v3.6A8.21,8.21,0,0,1,93.2,95v45h3.6c0-22.37,16.12-37.39,27.33-38.13a14.33,14.33,0,0,0,5.57,7.46l2-3c-3.17-2.15-4.92-5.88-4.92-10.5,0-7.63,4.61-13.14,11.42-13.95l.08,4.51,1.31.35c2.59.68,8.59,3.1,8.59,10.76s-6,10.06-8.6,10.76l-1.32.37L138.2,150h3.6l.07-38.69a14.59,14.59,0,0,0,0-27.66Z"/>
</svg>
