<svg xmlns="http://www.w3.org/2000/svg" viewBox="0 0 160 160">
  <defs>
    <style>
      .a959b750-47e4-45fb-b42d-41917e60257c {
        fill: none;
      }

      .ad0f03b9-e2d1-4024-a064-640a09ce0c02 {
        fill: #ec0c21;
      }

      .eef56844-1f8f-4841-a784-b86309bf33ca {
        fill: #403c3c;
      }
    </style>
  </defs>
  <g data-name="white bg">
    <rect class="a959b750-47e4-45fb-b42d-41917e60257c" x="-0.1" width="160" height="160"/>
  </g>
  <g data-name="Layer 1">
    <rect class="ad0f03b9-e2d1-4024-a064-640a09ce0c02" x="56.01" y="41.24" width="100" height="25" transform="translate(69.05 -59.22) rotate(45)"/>
    <g>
      <path class="eef56844-1f8f-4841-a784-b86309bf33ca" d="M147.94,75.45,145.39,78l2.27,2.26L132.52,95.39,110.86,73.73l-2.55,2.54L130,97.94l-2.78,2.78a8.17,8.17,0,0,1-9,1.73l-37-15.87a11.73,11.73,0,0,0-13,2.5L46.89,110.31l3.54,3.54L24.69,139.59l-4.53-4.53,23.48-23.48L41.09,109l-26,26,9.62,9.62,30.83-30.83L52,110.31,70.67,91.62a8.19,8.19,0,0,1,9-1.74l37.05,15.88a11.72,11.72,0,0,0,13-2.5l23-23Z"/>
      <polygon class="eef56844-1f8f-4841-a784-b86309bf33ca" points="66.62 29.49 64.36 27.23 68.39 23.2 68.39 23.2 75.46 16.13 75.46 16.13 79.49 12.1 98.67 31.27 101.22 28.73 79.49 7 59.27 27.23 64.08 32.03 66.62 29.49"/>
    </g>
  </g>
</svg>
