<svg data-name="Layer 1" xmlns="http://www.w3.org/2000/svg" viewBox="0 0 160 160">
  <defs>
    <style>
      .bd72fda3-5d54-419a-971b-6b4859cc0b8b {
        fill: #ec0c21;
      }

      .f471075b-642e-4eca-987d-72e310e85edb {
        fill: #403c3c;
      }
    </style>
  </defs>
  <g>
    <g>
      <path class="bd72fda3-5d54-419a-971b-6b4859cc0b8b" d="M40,125a15,15,0,1,0,15,15A15,15,0,0,0,40,125Zm0,20a5,5,0,1,1,5-5A5,5,0,0,1,40,145Z"/>
      <rect class="bd72fda3-5d54-419a-971b-6b4859cc0b8b" x="20" y="100" width="40" height="10"/>
    </g>
    <g>
      <path class="f471075b-642e-4eca-987d-72e310e85edb" d="M136.8,138.2v-85H45.36A42.77,42.77,0,0,0,3.22,89.74l0,40.17A11.9,11.9,0,0,0,15.09,141.8v-3.6a8.3,8.3,0,0,1-8.29-8.29V90.13A39.16,39.16,0,0,1,45.36,56.8H133.2v81.4H86.8V100a13.2,13.2,0,0,1,26.4,0h3.6a16.8,16.8,0,0,0-33.6,0v38.2h-30V140h0A13.2,13.2,0,1,1,40,126.8v-3.6a16.8,16.8,0,1,0,16.7,18.6H155v-3.6Z"/>
      <polygon class="f471075b-642e-4eca-987d-72e310e85edb" points="60 86.8 60 83.2 18.2 83.2 18.2 111.8 60 111.8 60 108.2 21.8 108.2 21.8 101.8 60 101.8 60 98.2 21.8 98.2 21.8 86.8 60 86.8"/>
      <path class="f471075b-642e-4eca-987d-72e310e85edb" d="M40,143.2v3.6a6.8,6.8,0,1,0-6.8-6.8h3.6a3.2,3.2,0,1,1,3.2,3.2Z"/>
    </g>
  </g>
</svg>
