<svg data-name="Layer 1" xmlns="http://www.w3.org/2000/svg" viewBox="0 0 160 160">
  <defs>
    <style>
      .cls-1 {
        fill: #ec0c21;
      }

      .cls-2 {
        fill: #403c3c;
      }
    </style>
  </defs>

  <rect class="cls-1" x="15" y="120" width="130" height="35"/>
  <rect class="cls-2" x="5" y="153.2" width="150" height="3.6"/>
  <path class="cls-2" d="M129.85,66.29a11.76,11.76,0,0,0,21.77-6.21l-5-51.88H13.37L8.15,59.9v.18A11.8,11.8,0,0,0,19.93,71.87a11.44,11.44,0,0,0,3.27-.48V118.2H15v3.6H145v-3.6h-8.2V80h-3.6v38.2h-6.4V69.58A11.68,11.68,0,0,0,129.85,66.29ZM123.2,118.2H51.8V101.8H110V98.2H48.2v20H36.8V80H33.2v38.2H26.8V69.63a11.69,11.69,0,0,0,3.12-3.34,11.74,11.74,0,0,0,20,0,11.73,11.73,0,0,0,20,0,11.74,11.74,0,0,0,20,0,11.73,11.73,0,0,0,20,0,11.73,11.73,0,0,0,13.34,5.09Zm.07-50.69h-.07v0a8.17,8.17,0,0,1-11.52-7.47h-3.63a8.18,8.18,0,1,1-16.36,0H88.07a8.19,8.19,0,1,1-16.37,0H68.08a8.18,8.18,0,1,1-16.36,0H48.09a8.18,8.18,0,1,1-16.36,0H28.11a8.18,8.18,0,0,1-4.77,7.43H23.2v.07a8.17,8.17,0,0,1-11.45-7.41L16.63,11.8H143.37L148,60.17a8.18,8.18,0,0,1-16.36-.09H128A8.18,8.18,0,0,1,123.27,67.51Z"/>
</svg>
