<svg data-name="Layer 1" xmlns="http://www.w3.org/2000/svg" viewBox="0 0 160 160">
  <defs>
    <style>
      .cls-1 {
        fill: #ec0c21;
      }

      .cls-2 {
        fill: #403c3c;
      }
    </style>
  </defs>
  <rect class="cls-1" x="60" y="105" width="95" height="50"/>
  <path class="cls-2" d="M61.8,155H58.2V28a6.21,6.21,0,0,0-6.2-6.2H10v-3.6H52A9.81,9.81,0,0,1,61.8,28Z"/>
  <rect class="cls-2" x="86.74" y="119.94" width="3.6" height="10"/>
  <rect class="cls-2" x="86.74" y="144.92" width="3.6" height="10"/>
  <rect class="cls-2" x="101.68" y="119.94" width="3.6" height="10"/>
  <rect class="cls-2" x="101.68" y="144.92" width="3.6" height="10"/>
  <rect class="cls-2" x="116.65" y="119.94" width="3.6" height="10"/>
  <rect class="cls-2" x="116.65" y="144.92" width="3.6" height="10"/>
  <rect class="cls-2" x="131.6" y="119.94" width="3.6" height="10"/>
  <rect class="cls-2" x="131.6" y="144.92" width="3.6" height="10"/>
  <rect class="cls-2" x="100" y="58.2" width="55" height="3.6"/>
  <rect class="cls-2" x="100" y="73.2" width="55" height="3.6"/>
  <rect class="cls-2" x="100" y="88.2" width="55" height="3.6"/>
  <path class="cls-2" d="M155,46.8V43.2H136.8V35h0V19.25L125,7.45l-11.8,11.8v24h-25v60H75v3.6h80v-3.6H91.8V46.8Zm-38.2-26,8.2-8.2,8.2,8.2V33.2H116.8Zm0,16h16.4v6.4H116.8Z"/>
  <rect class="cls-2" x="13.2" y="34.96" width="3.6" height="120"/>
  <rect class="cls-2" x="43.2" y="34.96" width="3.6" height="120"/>
  <rect class="cls-2" x="28.2" y="35" width="3.6" height="120"/>
</svg>
