<svg data-name="Layer 1" xmlns="http://www.w3.org/2000/svg" viewBox="0 0 160 160">
  <defs>
    <style>
      .cls-1 {
        fill: #ec0c21;
      }

      .cls-2 {
        fill: #403c3c;
      }
    </style>
  </defs>

  <rect class="cls-1" x="10" y="110" width="100" height="40"/>
  <rect class="cls-2" x="5.06" y="148.32" width="150" height="3.6"/>
  <rect class="cls-2" x="10.04" y="108.2" width="100" height="3.6"/>
  <rect class="cls-2" x="18.2" y="75" width="3.6" height="35"/>
  <path class="cls-2" d="M40.08,66.9A11.8,11.8,0,0,1,28.29,55.11h3.6a8.19,8.19,0,1,0,16.37,0h3.6A11.8,11.8,0,0,1,40.08,66.9Z"/>
  <path class="cls-2" d="M60.06,66.9A11.8,11.8,0,0,1,48.28,55.11h3.6a8.19,8.19,0,1,0,16.37,0h3.6A11.8,11.8,0,0,1,60.06,66.9Z"/>
  <path class="cls-2" d="M80.06,66.9A11.8,11.8,0,0,1,68.28,55.11h3.6a8.19,8.19,0,1,0,16.37,0h3.6A11.8,11.8,0,0,1,80.06,66.9Z"/>
  <path class="cls-2" d="M100.06,66.9A11.8,11.8,0,0,1,88.28,55.11h3.6a8.19,8.19,0,0,0,16.37.11l-4.81-38.5H16.67L11.9,55.22a8.19,8.19,0,0,0,16.37-.11h3.6a11.79,11.79,0,1,1-23.57,0l0-.22,5.16-41.77h93.14l5.23,42A11.8,11.8,0,0,1,100.06,66.9Z"/>
  <rect class="cls-2" x="98.2" y="75" width="3.6" height="35"/>
  <path class="cls-2" d="M115,126.8v-3.6a38.2,38.2,0,0,0,0-76.4V43.2a41.8,41.8,0,0,1,0,83.6Z"/>
  <path class="cls-2" d="M125.33,99.25v4h-3.47v-4c-4.61-.67-8.24-4.18-8.88-9.77l0-.46h3.59c.57,4.31,3.54,6.93,7.12,6.93,3.76,0,6.21-1.9,6.21-4.86,0-7.61-15.85-3.22-15.85-14.25,0-4.15,3.17-7.11,7.86-7.66v-4h3.47v4a9.09,9.09,0,0,1,8,8.12l0,.21h-3.6a6.05,6.05,0,0,0-6.32-5c-3.51,0-5.63,1.65-5.63,4.32,0,7.27,15.9,2.66,15.9,14.21C133.74,95.52,130.44,98.65,125.33,99.25Z"/>
</svg>
