<svg xmlns="http://www.w3.org/2000/svg" viewBox="0 0 160 160">
  <defs>
    <style>
      .b82ce651-0eba-409d-99d1-2addb29803b0 {
        fill: none;
      }

      .b4c98854-f669-4a98-bb6e-5e0ed821f1c9 {
        fill: #ec0c21;
      }

      .e30d26ba-28aa-4358-abd7-42859e9778ab {
        fill: #403c3c;
      }
    </style>
  </defs>
  <g data-name="white bg">
    <rect class="b82ce651-0eba-409d-99d1-2addb29803b0" x="-0.1" width="160" height="160"/>
  </g>
  <g data-name="Layer 1">
    <path class="b4c98854-f669-4a98-bb6e-5e0ed821f1c9" d="M60,50.36C60,30.71,80,15,80,15s20,15.71,20,35.36a20,20,0,0,1-40,0Z"/>
    <path class="b4c98854-f669-4a98-bb6e-5e0ed821f1c9" d="M95,18.34a60.86,60.86,0,0,0-8.5,2.85A61.39,61.39,0,0,0,80,15a62.89,62.89,0,0,0-6.48,6.17,61.3,61.3,0,0,0-8.46-2.83s-11,21.79-3.58,39.41l.21.5.26.59c.13.29.29.56.44.83a.43.43,0,0,0,0,.07A19.58,19.58,0,0,0,79.32,70c.24,0,.47,0,.71,0s.47,0,.71,0a19.58,19.58,0,0,0,17.37-11.2C106.44,41.05,95,18.34,95,18.34Z"/>
    <path class="e30d26ba-28aa-4358-abd7-42859e9778ab" d="M113.24,104.57l-9.13,41.09a3.18,3.18,0,0,1-3.12,2.5H59a3.18,3.18,0,0,1-3.12-2.5l-8.65-38.9H90v-3.6H81.8V95.75l9.67-9.67-2.55-2.55L82,90.47c.9-9.83,5.23-13.31,16.17-13.64-.34,8.23-3.09,12.89-8.78,15l1.24,3.38C98.25,92.39,101.8,86,101.8,75V73.2H100c-9.12,0-14.9,1.83-18.2,6.35V71.81a21.9,21.9,0,0,0,5.72-1.18,21.13,21.13,0,0,0,12.22-11c3.58-7.64,4.16-17.35,1.69-28.09a67.79,67.79,0,0,0-4.83-14L96,16.26l-1.38.32A62.19,62.19,0,0,0,87,19.06a60.8,60.8,0,0,0-5.86-5.48L80,12.71l-1.11.87A60.22,60.22,0,0,0,73.06,19a64,64,0,0,0-7.59-2.45l-1.38-.32-.63,1.27a67.79,67.79,0,0,0-4.83,14c-2.36,10.26-1.93,19.58,1.23,27.05l.15.33c.1.24.2.48.31.71a21.13,21.13,0,0,0,12.22,11,21.88,21.88,0,0,0,5.66,1.18v31.35H42.76l9.61,43.28A6.77,6.77,0,0,0,59,151.76h42a6.77,6.77,0,0,0,6.64-5.32l9.13-41.08ZM86,23.36c1.27-.55,2.46-1,3.55-1.42,1.86-.69,3.41-1.17,4.44-1.47a68.16,68.16,0,0,1,4.66,15.72c.19,1.17.35,2.36.46,3.58a36,36,0,0,0-7.91-10l-.44-.39a52.21,52.21,0,0,0-6.93-5.08C84.58,24,85.3,23.67,86,23.36Zm-6-6c.81.7,2,1.79,3.39,3.2-.86.39-1.74.81-2.64,1.27l-.7.37c-1.17-.61-2.31-1.16-3.42-1.66C78,19.14,79.2,18.06,80,17.36ZM76.15,67.79l-.67-.17A18.16,18.16,0,0,1,63.27,57.38a.77.77,0,0,0-.07-.16,35.9,35.9,0,0,1-2.26-17.46c.12-1.29.29-2.56.49-3.79a68,68,0,0,1,4.63-15.5c1,.29,2.56.77,4.39,1.45,1.09.4,2.29.87,3.56,1.42.73.31,1.47.65,2.24,1,1.23.59,2.5,1.24,3.79,2a48.64,48.64,0,0,1,8.76,6.17,32,32,0,0,1,7.74,10.15,17.45,17.45,0,0,1,1.63,6.73c0,.11,0,.23,0,.34A18.24,18.24,0,0,1,87.63,66.52c-.53.24-1.06.46-1.6.65l-.16.06c-.33.11-.66.2-1,.3A18.31,18.31,0,0,1,80,68.2a18.79,18.79,0,0,1-3.46-.33Z"/>
  </g>
</svg>
