<svg data-name="Layer 1" xmlns="http://www.w3.org/2000/svg" viewBox="0 0 160 160">
  <defs>
    <style>
      .cls-1 {
        fill: #ec0c21;
      }

      .cls-2 {
        fill: #403c3c;
      }
    </style>
  </defs>

  <rect class="cls-1" x="15" y="35.01" width="75" height="14.99"/>
  <circle class="cls-1" cx="122.5" cy="82.5" r="32.5"/>
  <polygon class="cls-1" points="121.9 112.84 133.88 145 139.92 136.53 150 138.91 137.46 105.24 121.9 112.84"/>
  <polygon class="cls-1" points="123.17 112.64 111.12 145 105.08 136.53 95 138.91 107.62 105.02 123.17 112.64"/>
  <rect class="cls-2" x="15" y="63.2" width="45" height="3.6"/>
  <rect class="cls-2" x="15" y="33.21" width="75" height="3.6"/>
  <rect class="cls-2" x="15" y="48.2" width="75" height="3.6"/>
  <polygon class="cls-2" points="3.2 13.2 3.2 116.8 101.31 116.8 92.14 141.43 104.32 138.56 109.66 146.04 112.59 143.96 105.84 134.5 97.86 136.38 107.95 109.31 104.57 108.05 102.65 113.2 6.8 113.2 6.8 16.8 153.2 16.8 153.2 50 156.8 50 156.8 13.2 3.2 13.2"/>
  <path class="cls-2" d="M134.38,141.19l-9.13-24.51A34.34,34.34,0,0,0,156.8,82.5h-3.6a30.73,30.73,0,0,1-30.7,30.7h-2.06v3.6h1l11.92,32,7.3-10.25,8.91,2.1.82-3.5-11.25-2.66Z"/>
  <path class="cls-2" d="M122.5,48.2A34.34,34.34,0,0,0,88.2,82.5h3.6a30.73,30.73,0,0,1,30.7-30.7Z"/>
  <path class="cls-2" d="M124.49,97.56v4H121v-4c-4.6-.68-8.24-4.19-8.87-9.78l-.06-.46h3.59c.58,4.32,3.54,6.94,7.12,6.94,3.76,0,6.22-1.91,6.22-4.87,0-7.61-15.86-3.21-15.86-14.25,0-4.15,3.17-7.11,7.86-7.66v-4h3.47v4a9.11,9.11,0,0,1,8,8.13l0,.21H129a6.07,6.07,0,0,0-6.33-5c-3.51,0-5.62,1.65-5.62,4.32,0,7.27,15.9,2.66,15.9,14.21C132.91,93.84,129.61,97,124.49,97.56Z"/>
</svg>
