<svg data-name="Layer 1" xmlns="http://www.w3.org/2000/svg" viewBox="0 0 160 160">
  <defs>
    <style>
      .abf037a5-bf29-4975-a799-3afe8ea2f254 {
        fill: #ec0c21;
      }

      .ee2b7d7e-ef9f-4709-9f4a-fccb1d17c14e {
        fill: #403c3c;
      }
    </style>
  </defs>
  <g>
    <path class="abf037a5-bf29-4975-a799-3afe8ea2f254" d="M75,130H20a10,10,0,0,0-10,10h0a10,10,0,0,0,10,10H75a10,10,0,0,0,10-10h0A10,10,0,0,0,75,130Z"/>
    <g>
      <path class="ee2b7d7e-ef9f-4709-9f4a-fccb1d17c14e" d="M153.73,133.73l-12.06,12.06a8.21,8.21,0,0,1-5.77,2.41l-14.46-19.28-2.88,2.16L131.4,148.2H105v3.6h30.84a11.78,11.78,0,0,0,8.38-3.47l12.05-12.06Z"/>
      <path class="ee2b7d7e-ef9f-4709-9f4a-fccb1d17c14e" d="M11.8,140a8.21,8.21,0,0,1,8.2-8.2v-3.6a11.8,11.8,0,0,0,0,23.6H55v-3.6H20A8.21,8.21,0,0,1,11.8,140Z"/>
      <path class="ee2b7d7e-ef9f-4709-9f4a-fccb1d17c14e" d="M75,128.2H45v3.6H75a8.2,8.2,0,1,1,0,16.4v3.6a11.8,11.8,0,0,0,0-23.6Z"/>
      <path class="ee2b7d7e-ef9f-4709-9f4a-fccb1d17c14e" d="M138.1,120.36,151.8,111V93.89l-26-13-1.62,3.22,24,12v12.94l-11.91,8.19a8.13,8.13,0,0,1-3.84,1H11.8V100.59a8.24,8.24,0,0,1,8.68-8.23l7.72.4v14H80v-3.6H31.8V93l72.78,3.85a11.87,11.87,0,0,0,9.92-5.31l8-12-17-11.3H94.93v3.6h9.52l13,8.7-6,9a8.28,8.28,0,0,1-6.83,3.71l-84-4.44A11.85,11.85,0,0,0,8.2,100.59V121.8H132.45A11.86,11.86,0,0,0,138.1,120.36Z"/>
    </g>
  </g>
</svg>
