<svg data-name="Layer 1" xmlns="http://www.w3.org/2000/svg" viewBox="0 0 160 160">
  <defs>
    <style>
      .cls-1 {
        fill: #ec0c21;
      }

      .cls-2 {
        fill: #403c3c;
      }
    </style>
  </defs>

  <path class="cls-1" d="M35,5V125h90V5ZM80,90a30,30,0,1,1,30-30A30,30,0,0,1,80,90Z"/>
  <polygon class="cls-2" points="125 126.81 125 123.21 36.8 123.21 36.8 60.01 33.2 60.01 33.2 156.81 125 156.81 125 153.21 36.8 153.21 36.8 126.81 125 126.81"/>
  <path class="cls-2" d="M80,91.81H5v-3.6H80A28.23,28.23,0,0,0,108.2,60h3.6A31.84,31.84,0,0,1,80,91.81Z"/>
  <path class="cls-2" d="M143,15.48,140.47,18l10.18,10.19H126.8v-25H35v3.6h88.2v21.4H80A31.84,31.84,0,0,0,48.2,60h3.6A28.23,28.23,0,0,1,80,31.81h43.2V60h3.6V31.81h23.85L140.47,42,143,44.54,157.55,30Z"/>
  <polygon class="cls-2" points="16.99 104.54 2.45 90.01 16.99 75.48 19.53 78.02 7.55 90.01 19.53 101.99 16.99 104.54"/>
  <path class="cls-2" d="M82,75.07v4H78.52V75c-4.6-.68-8.24-4.19-8.87-9.78l-.06-.46h3.59c.58,4.32,3.54,6.94,7.12,6.94,3.76,0,6.22-1.91,6.22-4.87,0-7.61-15.86-3.21-15.86-14.25,0-4.15,3.17-7.11,7.86-7.66V41H82v4a9.11,9.11,0,0,1,8,8.13l0,.21H86.46a6.06,6.06,0,0,0-6.33-5c-3.51,0-5.62,1.65-5.62,4.32,0,7.27,15.9,2.66,15.9,14.21C90.41,71.34,87.11,74.47,82,75.07Z"/>
</svg>
