<svg data-name="Layer 1" xmlns="http://www.w3.org/2000/svg" viewBox="0 0 160 160">
  <rect x="20.1" y="35" width="120" height="40" rx="5" style="fill: #ec0c21"/>
  <g>
    <path d="M129.767,127.755H30.432A27.163,27.163,0,0,0,3.3,154.888H6.9a23.56,23.56,0,0,1,23.532-23.534h99.335A23.559,23.559,0,0,1,153.3,154.888h3.6A27.164,27.164,0,0,0,129.767,127.755Z" style="fill: #403c3c"/>
    <path d="M25.1,76.8h.767a56.774,56.774,0,0,0,108.48,0h.756a6.806,6.806,0,0,0,6.8-6.8V40a6.806,6.806,0,0,0-6.8-6.8H130.16a56.758,56.758,0,0,0-100.11,0H25.1A6.806,6.806,0,0,0,18.3,40V70A6.806,6.806,0,0,0,25.1,76.8ZM21.9,40a3.2,3.2,0,0,1,3.2-3.2h75V33.2H34.181a53.134,53.134,0,0,1,91.837,0H110.1v3.6h25a3.2,3.2,0,0,1,3.2,3.2V70a3.2,3.2,0,0,1-3.2,3.2h-15v3.6h10.464a53.181,53.181,0,0,1-100.929,0H60.1V73.2h-35A3.2,3.2,0,0,1,21.9,70Z" style="fill: #403c3c"/>
    <rect x="8.301" y="17.929" width="3.599" height="14.142" transform="translate(-14.719 14.464) rotate(-45)" style="fill: #403c3c"/>
    <rect x="143.029" y="23.2" width="14.142" height="3.599" transform="translate(26.286 113.459) rotate(-45)" style="fill: #403c3c"/>
    <rect x="3.029" y="83.2" width="14.142" height="3.599" transform="translate(-57.146 32.038) rotate(-45)" style="fill: #403c3c"/>
    <rect x="148.301" y="77.929" width="3.599" height="14.142" transform="translate(-16.141 131.033) rotate(-45)" style="fill: #403c3c"/>
    <rect x="5.1" y="53.199" width="10" height="3.6" style="fill: #403c3c"/>
    <rect x="145.1" y="53.199" width="10" height="3.6" style="fill: #403c3c"/>
  </g>
</svg>
