<?xml version="1.0" encoding="UTF-8"?>
<svg data-name="Layer 1" xmlns="http://www.w3.org/2000/svg" viewBox="0 0 160 160">
  <defs>
    <style>
      .cls-1 {
        fill: #ec0c21;
      }

      .cls-2 {
        fill: #403c3c;
      }
    </style>
  </defs>
  <g>
    <path class="cls-1" d="M130.1,25v110H45.1v10h87c4.42,0,8-3.58,8-8V25h-10Z"/>
    <path class="cls-1" d="M115.1,91.2c0-8.95-7.25-16.2-16.2-16.2h-17.6c-8.95,0-16.2,7.25-16.2,16.2v3.8h50v-3.8Z"/>
  </g>
  <g>
    <path class="cls-2" d="M66.93,91.03c0-7.83,6.37-14.2,14.2-14.2h8.97v-3.6h-8.97c-9.81,0-17.8,7.98-17.8,17.8v3.97h3.6v-3.97Z"/>
    <path class="cls-2" d="M90.1,71.8c9.26,0,16.8-7.54,16.8-16.8s-7.54-16.8-16.8-16.8-16.8,7.54-16.8,16.8,7.54,16.8,16.8,16.8Zm0-30c7.28,0,13.2,5.92,13.2,13.2s-5.92,13.2-13.2,13.2-13.2-5.92-13.2-13.2,5.92-13.2,13.2-13.2Z"/>
    <rect class="cls-2" x="65.1" y="103.2" width="50" height="3.6"/>
    <rect class="cls-2" x="65.1" y="113.2" width="30" height="3.6"/>
    <path class="cls-2" d="M131.9,136.8V13.2H28.3v15.15c-5.65,.87-10,5.75-10,11.65s4.35,10.78,10,11.65v11.71c-5.65,.87-10,5.75-10,11.65s4.35,10.78,10,11.65v11.71c-5.65,.87-10,5.75-10,11.65s4.35,10.78,10,11.65v15.15h103.6ZM21.9,110c0-4.52,3.68-8.2,8.2-8.2s8.2,3.68,8.2,8.2h3.6c0-5.89-4.35-10.78-10-11.65v-15.15h-1.8c-4.52,0-8.2-3.68-8.2-8.2s3.68-8.2,8.2-8.2,8.2,3.68,8.2,8.2h3.6c0-5.89-4.35-10.78-10-11.65v-15.16h-1.86c-4.49-.03-8.14-3.7-8.14-8.2s3.68-8.2,8.2-8.2,8.2,3.68,8.2,8.2h3.6c0-5.89-4.35-10.78-10-11.65v-11.55h96.4v116.4H31.9v-15h-1.82c-4.51-.01-8.18-3.68-8.18-8.2Z"/>
    <rect class="cls-2" x="48.3" y="25" width="3.6" height="100"/>
    <path class="cls-2" d="M138.3,25v112c0,3.42-2.78,6.2-6.2,6.2H45.1v3.6h87c5.41,0,9.8-4.4,9.8-9.8V25h-3.6Z"/>
  </g>
</svg>