<svg xmlns="http://www.w3.org/2000/svg" viewBox="0 0 160 160">
  <defs>
    <style>
      .b55fca5f-8089-4950-9f9f-08747d4a0985 {
        fill: none;
      }

      .b00d2b93-f530-49af-8a21-c41352085035 {
        fill: #ec0c21;
      }

      .b3962a45-4ed4-4673-827d-253d0b1b6558 {
        fill: #403c3c;
      }
    </style>
  </defs>
  <g data-name="white bg">
    <rect class="b55fca5f-8089-4950-9f9f-08747d4a0985" x="-0.1" width="160" height="160"/>
  </g>
  <g data-name="Layer 1">
    <path class="b00d2b93-f530-49af-8a21-c41352085035" d="M104,96.48,97,103.56a25,25,0,0,0,0,35.35h0l-3.54,3.54,7.07,7.07L150,100,142.93,93l-3.54,3.53h0A25,25,0,0,0,104,96.48Z"/>
    <g>
      <path class="b3962a45-4ed4-4673-827d-253d0b1b6558" d="M142.93,90.4,139.35,94a26.8,26.8,0,0,0-35.27,0L34.6,24.5A6.8,6.8,0,0,0,25,34.12L94.46,103.6a26.8,26.8,0,0,0,0,35.27l-3.57,3.58,8.34,8.34,2.55-2.54-5.8-5.8,3.53-3.54-1.27-1.27a23.19,23.19,0,0,1,0-32.81l1.27-1.27-72-72a3.2,3.2,0,0,1,4.52-4.52l72,72,1.27-1.27a23.19,23.19,0,0,1,32.81,0L139.39,99l3.54-3.54,5.8,5.8,2.54-2.54Z"/>
      <path class="b3962a45-4ed4-4673-827d-253d0b1b6558" d="M102.77,109.35a16.82,16.82,0,0,0,0,23.76l2.54-2.54a13.21,13.21,0,0,1,0-18.67Z"/>
    </g>
  </g>
</svg>
