<svg xmlns="http://www.w3.org/2000/svg" viewBox="0 0 160 160">
  <defs>
    <style>
      .b3a18e7e-77c9-4441-bd98-c05e627d7373 {
        fill: none;
      }

      .eb6ec65e-cd83-4efb-9a6b-f7e94d0f034f {
        fill: #ec0c21;
      }

      .a296790b-ffb2-4d17-955c-50e5c86aac2c {
        fill: #403c3c;
      }
    </style>
  </defs>
  <g data-name="white bg">
    <rect class="b3a18e7e-77c9-4441-bd98-c05e627d7373" x="-0.1" width="160" height="160"/>
  </g>
  <g data-name="Layer 1">
    <g>
      <circle class="eb6ec65e-cd83-4efb-9a6b-f7e94d0f034f" cx="50" cy="100" r="15"/>
      <path class="eb6ec65e-cd83-4efb-9a6b-f7e94d0f034f" d="M155.15,50V40h-7a28.33,28.33,0,0,0-4.67-11.29l4.92-4.93-7.07-7.07-4.92,4.93A28.26,28.26,0,0,0,125.15,17V10h-10v7a28.26,28.26,0,0,0-11.29,4.68l-4.92-4.93-7.08,7.07,4.93,4.93A28.34,28.34,0,0,0,92.11,40h-7V50h7a28.3,28.3,0,0,0,4.68,11.28l-4.93,4.93,7.08,7.07,4.92-4.92A28.6,28.6,0,0,0,110.92,72,28.21,28.21,0,0,0,115.15,73v7h10V73a28.39,28.39,0,0,0,11.29-4.67l4.92,4.92,7.07-7.07-4.92-4.93A28.28,28.28,0,0,0,148.18,50Zm-35,10a15,15,0,1,1,15-15A15,15,0,0,1,120.15,60Z"/>
    </g>
    <g>
      <path class="a296790b-ffb2-4d17-955c-50e5c86aac2c" d="M120.15,28.21v3.6a13.2,13.2,0,0,1,0,26.4v3.6a16.8,16.8,0,0,0,0-33.6Z"/>
      <path class="a296790b-ffb2-4d17-955c-50e5c86aac2c" d="M117,71.53l-1.49-.26a27.08,27.08,0,0,1-4-1,26.4,26.4,0,0,1-6.61-3.36L103.65,66l-4.71,4.72-4.53-4.53,4.72-4.72-.86-1.24a26.2,26.2,0,0,1-4.38-10.57l-.27-1.48H87v-6.4h6.67l.27-1.49a26.25,26.25,0,0,1,4.38-10.57l.86-1.24-4.72-4.72,4.53-4.52L103.65,24l1.24-.87a26.39,26.39,0,0,1,10.57-4.38l1.49-.26V11.81h3.2V8.21h-6.8V15.5a30.05,30.05,0,0,0-9.26,3.83l-5.15-5.15-9.62,9.61L94.48,29a29.74,29.74,0,0,0-3.84,9.26H83.35v13.6h7.29a29.68,29.68,0,0,0,3.84,9.25l-5.16,5.16,9.62,9.62,5.15-5.16a30,30,0,0,0,6.24,3,28.85,28.85,0,0,0,3,.86v7.3h6.8v-3.6H117Z"/>
      <path class="a296790b-ffb2-4d17-955c-50e5c86aac2c" d="M96,91.57a46.76,46.76,0,0,0-3.82-11.81l-.63-1.31-5,1.24a41.82,41.82,0,0,0-5.92-8.15l2.73-4.4-1.06-1a46.92,46.92,0,0,0-10-7.31L71,58.12l-3.36,4A41.59,41.59,0,0,0,58,59l-.38-5.17-1.45-.19A47.26,47.26,0,0,0,50,53.2v3.6a41.89,41.89,0,0,1,4.28.22l.37,5,1.4.22a37.85,37.85,0,0,1,11.22,3.65l1.27.65,3.27-3.88a43.36,43.36,0,0,1,6.91,5L76.06,72l1,1A38.32,38.32,0,0,1,84,82.59l.65,1.27,4.92-1.21a42.75,42.75,0,0,1,2.63,8.14l-4.67,1.9.21,1.41a38.07,38.07,0,0,1,0,11.8l-.21,1.41,4.67,1.9a42.75,42.75,0,0,1-2.63,8.14l-4.92-1.21L84,117.41A38.32,38.32,0,0,1,77.06,127l-1,1,2.66,4.29a43.36,43.36,0,0,1-6.91,5.05l-3.27-3.88-1.27.65a37.85,37.85,0,0,1-11.22,3.65l-1.4.22-.37,5a42.22,42.22,0,0,1-8.56,0l-.37-5-1.4-.22a37.85,37.85,0,0,1-11.22-3.65l-1.27-.65-3.27,3.88a43.36,43.36,0,0,1-6.91-5.05L23.94,128l-1-1A38.32,38.32,0,0,1,16,117.41l-.65-1.27-4.92,1.21a42.75,42.75,0,0,1-2.63-8.14l4.67-1.9-.21-1.41a37.55,37.55,0,0,1-.46-5.9H8.2a42.47,42.47,0,0,0,.3,5L3.71,107,4,108.43a46.76,46.76,0,0,0,3.82,11.81l.63,1.31,5.05-1.24a42.19,42.19,0,0,0,5.92,8.16l-2.72,4.39,1,1a46.67,46.67,0,0,0,10,7.31l1.28.7,3.36-4A41.59,41.59,0,0,0,42,141l.38,5.17,1.45.19a46,46,0,0,0,12.4,0l1.45-.19L58,141a41.59,41.59,0,0,0,9.58-3.11l3.36,4,1.28-.7a46.67,46.67,0,0,0,10-7.31l1-1-2.72-4.39a42.19,42.19,0,0,0,5.92-8.16l5,1.24.63-1.31A46.76,46.76,0,0,0,96,108.43l.26-1.44L91.5,105A42.49,42.49,0,0,0,91.5,95L96.29,93Z"/>
      <path class="a296790b-ffb2-4d17-955c-50e5c86aac2c" d="M50,86.8A13.21,13.21,0,0,1,63.2,100h3.6A16.8,16.8,0,1,0,50,116.8v-3.6a13.2,13.2,0,0,1,0-26.4Z"/>
      <path class="a296790b-ffb2-4d17-955c-50e5c86aac2c" d="M50,131.8A31.84,31.84,0,0,0,81.8,100H78.2A28.2,28.2,0,1,1,50,71.8V68.2a31.8,31.8,0,0,0,0,63.6Z"/>
    </g>
  </g>
</svg>
