<svg data-name="Layer 1" xmlns="http://www.w3.org/2000/svg" viewBox="0 0 160 160">
  <defs>
    <style>
      .cls-1 {
        fill: #ec0c21;
      }

      .cls-2 {
        fill: #403c3c;
      }
    </style>
  </defs>

  <path class="cls-1" d="M30,125a50,50,0,0,1,100,0v.25L129.93,110A50,50,0,1,0,30,110v15Z"/>
  <path class="cls-1" d="M130,60A50,50,0,0,0,30,60l.07,10.31C30.07,42.72,53.29,25,80,25s49.92,18,49.92,45.15Z"/>
  <path class="cls-2" d="M82,135.93v4H78.5v-4.08c-4.68-.69-8.37-4.25-9-9.92l0-.47h3.64c.59,4.38,3.6,7,7.24,7,3.82,0,6.31-1.93,6.31-4.94,0-7.74-16.11-3.27-16.11-14.48,0-4.21,3.22-7.22,8-7.78v-4H82v4.08a9.24,9.24,0,0,1,8.16,8.25l0,.22H86.56a6.16,6.16,0,0,0-6.43-5.11c-3.56,0-5.71,1.67-5.71,4.38,0,7.39,16.15,2.71,16.15,14.44C90.57,132.15,87.22,135.33,82,135.93Z"/>
  <path class="cls-2" d="M131.72,70.17l-3.6,0L128.2,60A48.25,48.25,0,0,0,80,11.8V8.2A51.86,51.86,0,0,1,131.8,60Z"/>
  <path class="cls-2" d="M31.87,70.31h-3.6C28.27,43.45,50.51,23.2,80,23.2v3.6C67.08,26.8,55.08,31,46.19,38.67A40.55,40.55,0,0,0,31.87,70.31Z"/>
  <path class="cls-2" d="M126.27,148.2a51.31,51.31,0,0,0,5.52-23h0V125h0l-.07-15A51.79,51.79,0,0,0,80,58.22v3.6A48.19,48.19,0,0,1,128.13,110L128.2,125a47.86,47.86,0,0,1-6,23.16H37.77A48.17,48.17,0,0,1,80,76.8V73.2a51.74,51.74,0,0,0-46.28,75H5v3.6H155v-3.6Z"/>
</svg>
