<svg data-name="Layer 1" xmlns="http://www.w3.org/2000/svg" viewBox="0 0 160 160">
  <defs>
    <style>
      .cls-1 {
        fill: #ec0c21;
      }

      .cls-2 {
        fill: #403c3c;
      }
    </style>
  </defs>
  <g>
    <polygon class="cls-1" points="139.69 44.81 93.73 90.78 76.03 73.12 69 80.19 94.02 105.19 147.04 52.16 139.69 44.81"/>
    <rect class="cls-1" x="45" y="99.96" width="10" height="10"/>
    <rect class="cls-1" x="45" y="80" width="10" height="10"/>
    <rect class="cls-1" x="45" y="60" width="10" height="10"/>
    <rect class="cls-1" x="45" y="120" width="10" height="10"/>
  </g>
  <polygon class="cls-2" points="56.8 91.8 45 91.8 45 88.2 53.2 88.2 53.2 81.8 45 81.8 45 78.2 56.8 78.2 56.8 91.8"/>
  <g>
    <rect class="cls-2" x="45" y="33.2" width="50" height="3.6"/>
    <rect class="cls-2" x="45" y="43.2" width="50" height="3.6"/>
    <rect class="cls-2" x="83.08" y="69.45" width="3.6" height="25" transform="translate(-33.08 84.18) rotate(-45.08)"/>
    <polygon class="cls-2" points="148.31 53.43 145.77 50.89 92.75 103.92 95.3 106.46 113.2 88.55 113.2 143.2 26.8 143.2 26.8 21.8 113.2 21.8 113.2 71.31 116.8 67.71 116.8 18.2 23.2 18.2 23.2 146.8 116.8 146.8 116.8 84.95 148.31 53.43"/>
    <polygon class="cls-2" points="56.8 58.2 45 58.2 45 61.8 53.2 61.8 53.2 68.2 45 68.2 45 71.8 56.8 71.8 56.8 58.2"/>
    <polygon class="cls-2" points="56.8 78.2 45 78.2 45 81.8 53.2 81.8 53.2 88.2 45 88.2 45 91.8 56.8 91.8 56.8 78.2"/>
    <polygon class="cls-2" points="56.8 98.2 45 98.2 45 101.8 53.2 101.8 53.2 108.2 45 108.2 45 111.8 56.8 111.8 56.8 98.2"/>
    <polygon class="cls-2" points="45 128.2 45 131.8 56.8 131.8 56.8 118.2 45 118.2 45 121.8 53.2 121.8 53.2 128.2 45 128.2"/>
  </g>
</svg>
