<svg xmlns="http://www.w3.org/2000/svg" viewBox="0 0 160 160">
  <defs>
    <style>
      .be5e406e-aa6e-451d-a744-cb54aefcef6c {
        fill: none;
      }

      .a2a3b2ba-4054-4f9d-a6c7-411a10fd84d6 {
        fill: #ec0c21;
      }

      .eb666a7e-b379-4fae-9060-532bdb0f3d75 {
        fill: #403c3c;
      }
    </style>
  </defs>
  <g data-name="white bg">
    <rect class="be5e406e-aa6e-451d-a744-cb54aefcef6c" x="-0.1" width="160" height="160"/>
  </g>
  <g data-name="Layer 1">
    <path class="a2a3b2ba-4054-4f9d-a6c7-411a10fd84d6" d="M111.55,97.43,108,101,90.34,83.28,86.8,86.82a44.74,44.74,0,0,0,4.61-5.39A45,45,0,0,1,28.52,18.62a45.87,45.87,0,0,0-5.36,4.56A45,45,0,0,0,86.8,86.82l-3.53,3.54L101,108l-3.54,3.54,36,36,14.14-14.15Z"/>
    <path class="eb666a7e-b379-4fae-9060-532bdb0f3d75" d="M111.55,94.88l-7.81,7.81,2.55,2.54,5.26-5.26L145,133.46l-11.59,11.6L100,111.57l3.53-3.54L85.73,90.27c.79-.69,1.58-1.41,2.35-2.18a46.86,46.86,0,0,0,0-66.18c-19.3-19.3-49.79-15.6-66.16,0C9.3,33.88,8.22,50,8.19,54.68l3.6,0c0-3.07.72-18.92,12.61-30.23,18.76-17.82,46.75-14.41,61.13,0a43.26,43.26,0,0,1,0,61.1C73.27,97.8,56.91,98.2,55.08,98.2v3.6a50.86,50.86,0,0,0,27.8-9.28L98.4,108l-3.53,3.54,38.58,38.58,16.69-16.69Z"/>
  </g>
</svg>
