<svg xmlns="http://www.w3.org/2000/svg" viewBox="0 0 160 160">
  <defs>
    <style>
      .a2e617aa-073e-4fd7-9b71-4f883d190ae4 {
        fill: none;
      }

      .a95bebcb-00c0-46e7-9104-0adc42c6a799 {
        fill: #ec0c21;
      }

      .b9f38159-4768-4365-844b-b7d821f6d7e7 {
        fill: #403c3c;
      }
    </style>
  </defs>
  <g data-name="white bg">
    <rect class="a2e617aa-073e-4fd7-9b71-4f883d190ae4" x="-0.1" width="160" height="160"/>
  </g>
  <g data-name="Layer 1">
    <rect class="a95bebcb-00c0-46e7-9104-0adc42c6a799" x="30" y="60" width="25" height="5"/>
    <path class="a95bebcb-00c0-46e7-9104-0adc42c6a799" d="M100,75a30,30,0,1,0,30,30A30,30,0,0,0,100,75Zm0,45a15,15,0,1,1,15-15A15,15,0,0,1,100,120Z"/>
    <g>
      <path class="b9f38159-4768-4365-844b-b7d821f6d7e7" d="M145,63.2H132.68A3.19,3.19,0,0,1,130,61.77l-7-10.54a6.78,6.78,0,0,0-5.66-3H82.68a6.78,6.78,0,0,0-5.66,3L70,61.78a3.2,3.2,0,0,1-2.67,1.42H56.8V60H53.2v3.2H31.8V60H28.2v3.2H15A6.81,6.81,0,0,0,8.2,70v70a6.81,6.81,0,0,0,6.8,6.8H145a6.81,6.81,0,0,0,6.8-6.8V70A6.81,6.81,0,0,0,145,63.2Zm3.2,76.8a3.2,3.2,0,0,1-3.2,3.2H15a3.2,3.2,0,0,1-3.2-3.2V70A3.2,3.2,0,0,1,15,66.8H67.32a6.78,6.78,0,0,0,5.66-3l7-10.55a3.2,3.2,0,0,1,2.67-1.42h34.64A3.19,3.19,0,0,1,120,53.23l7,10.54a6.78,6.78,0,0,0,5.66,3H145a3.2,3.2,0,0,1,3.2,3.2Z"/>
      <path class="b9f38159-4768-4365-844b-b7d821f6d7e7" d="M77.51,82.51a31.84,31.84,0,0,0,0,45l2.55-2.55a28.2,28.2,0,0,1,39.88-39.88l2.55-2.55A31.84,31.84,0,0,0,77.51,82.51Z"/>
      <path class="b9f38159-4768-4365-844b-b7d821f6d7e7" d="M88.12,93.12a16.82,16.82,0,0,0,0,23.76l2.55-2.55a13.19,13.19,0,0,1,18.66-18.66l2.55-2.55A16.82,16.82,0,0,0,88.12,93.12Z"/>
      <rect class="b9f38159-4768-4365-844b-b7d821f6d7e7" x="28.2" y="80" width="3.6" height="50"/>
    </g>
  </g>
</svg>
