<svg xmlns="http://www.w3.org/2000/svg" viewBox="0 0 160 160">
  <defs>
    <style>
      .ff1bb930-f2f6-4597-962e-9dca6340bfd2 {
        fill: none;
      }

      .be2d5bfa-c4df-4e4b-8af1-31280b8ca399 {
        fill: #ec0c21;
      }

      .bbce59e9-3370-4654-8590-161c93c01a53 {
        fill: #403c3c;
      }
    </style>
  </defs>
  <g data-name="white bg">
    <rect class="ff1bb930-f2f6-4597-962e-9dca6340bfd2" x="-0.1" width="160" height="160"/>
  </g>
  <g data-name="Layer 1">
    <rect class="be2d5bfa-c4df-4e4b-8af1-31280b8ca399" x="79.41" y="14.2" width="15" height="40" transform="translate(49.64 -51.44) rotate(45)"/>
    <rect class="be2d5bfa-c4df-4e4b-8af1-31280b8ca399" x="105.8" y="65.59" width="40" height="15" transform="translate(-14.84 110.36) rotate(-45)"/>
    <path class="bbce59e9-3370-4654-8590-161c93c01a53" d="M147.79,64.25,135.91,52.37l-2.54,2.55,9.33,9.33L117,90l-9.33-9.33-27-27L108.9,25.36,97,13.48,94.48,16l9.33,9.33L78.07,51.1,56.86,29.89,44.27,42.47a51.9,51.9,0,0,0-7.37,64L13.16,130.15l2.54,2.55,23.24-23.23a51.34,51.34,0,0,0,5.33,6.26l2.55-2.55a48.24,48.24,0,0,1,0-68.16l10-10L72.59,50.71l5.48,5.48h0l32.17,32.17L117,95.08h0l8.06,8.06-10,10a48.32,48.32,0,0,1-60.66,6.14l-1.23-.81L27.3,144.3l2.55,2.54,23.72-23.72a52,52,0,0,0,64-7.39l12.58-12.59-10.6-10.6Z"/>
  </g>
</svg>
