<svg data-name="Layer 1" xmlns="http://www.w3.org/2000/svg" viewBox="0 0 160 160">
  <defs>
    <style>
      .cls-1 {
        fill: #ec0c21;
      }

      .cls-2 {
        fill: #403c3c;
      }
    </style>
  </defs>

  <polygon class="cls-1" points="87.69 55.39 89.97 59.93 55 60 61.75 53.25 65.85 50.41 71.66 50 81.56 49.95 85 51.08 87.69 55.39"/>
  <circle class="cls-1" cx="65" cy="75" r="5"/>
  <circle class="cls-1" cx="95" cy="75" r="5"/>
  <circle class="cls-2" cx="79.99" cy="135" r="5"/>
  <polygon class="cls-2" points="121.77 121.8 121.77 8.2 40 8.2 40 11.8 118.17 11.8 118.17 95.82 118.17 102.09 118.17 106.13 118.17 108.08 118.17 118.2 41.8 118.2 41.8 108.63 41.8 106.13 41.8 102.09 41.8 88.57 41.8 49.97 38.2 49.97 38.2 151.8 120.05 151.8 120.05 148.2 41.8 148.2 41.8 121.8 121.77 121.8"/>
  <polygon class="cls-2" points="60 91.8 48.2 91.8 48.2 80 51.8 80 51.8 88.2 60 88.2 60 91.8"/>
  <polygon class="cls-2" points="111.8 50 108.2 50 108.2 41.8 100 41.8 100 38.2 111.8 38.2 111.8 50"/>
  <path class="cls-2" d="M95.8,58.39l-1.6,3.22,9,4.5V70h0v.35a2.86,2.86,0,0,1-2.85,2.85H98.21V75h0A3.2,3.2,0,1,1,95,71.8V68.2a6.8,6.8,0,0,0-6.55,5H68.23V75h0A3.2,3.2,0,1,1,65,71.8V68.2a6.8,6.8,0,0,0-6.53,4.92A2.22,2.22,0,0,1,56.8,71V60.75l7.06-7.07a6.42,6.42,0,0,1,4.55-1.88H80.55a5.37,5.37,0,0,1,4.82,3l1.71,3.43H65v3.6H89.38a2.18,2.18,0,0,0,2-3.16l-2.75-5.48a8.93,8.93,0,0,0-8-5H68.41a10,10,0,0,0-7.1,2.94L53.2,59.26V71a5.83,5.83,0,0,0,5.24,5.8,6.79,6.79,0,0,0,13.11,0h16.9a6.79,6.79,0,0,0,13.13-.12,6.45,6.45,0,0,0,5.22-6.33V70h0V63.89Z"/>
</svg>
