<svg data-name="Layer 1" xmlns="http://www.w3.org/2000/svg" viewBox="0 0 160 160">
  <defs>
    <style>
      .cls-1 {
        fill: #ec0c21;
      }

      .cls-2 {
        fill: #403c3c;
      }
    </style>
  </defs>

  <path class="cls-1" d="M75,100h64a16,16,0,0,1,16,16v39H95V115H70L50,95,60,85Z"/>
  <rect class="cls-1" x="20" y="25" width="90" height="15"/>
  <polygon class="cls-2" points="36.22 101.8 3.2 101.8 3.2 3.2 156.8 3.2 156.8 89.91 153.2 89.91 153.2 6.8 6.8 6.8 6.8 98.2 36.22 98.2 36.22 101.8"/>
  <path class="cls-2" d="M120,91.8A16.8,16.8,0,1,1,136.8,75,16.82,16.82,0,0,1,120,91.8Zm0-30A13.2,13.2,0,1,0,133.2,75,13.21,13.21,0,0,0,120,61.8Z"/>
  <rect class="cls-2" x="20" y="23.2" width="90" height="3.6"/>
  <rect class="cls-2" x="20" y="38.2" width="90" height="3.6"/>
  <rect class="cls-2" x="20" y="53.2" width="45" height="3.6"/>
  <path class="cls-2" d="M156.8,155h-3.6V116A14.22,14.22,0,0,0,139,101.8H75V98.2h64A17.82,17.82,0,0,1,156.8,116Z"/>
  <polygon class="cls-2" points="70.75 113.2 52.55 95 61.27 86.27 58.73 83.73 50 92.45 42.55 85 51.27 76.27 48.73 73.73 37.45 85 69.25 116.8 95 116.8 95 113.2 70.75 113.2"/>
  <rect class="cls-2" x="137.5" y="119.63" width="3.6" height="35.37"/>
</svg>
