<svg data-name="Layer 1" xmlns="http://www.w3.org/2000/svg" viewBox="0 0 160 160">
  <defs>
    <style>
      .cls-1 {
        fill: #ec0c21;
      }

      .cls-2 {
        fill: #403c3c;
      }
    </style>
  </defs>

  <circle class="cls-1" cx="45" cy="100" r="25"/>
  <path class="cls-2" d="M45,126.8A26.83,26.83,0,0,1,18.2,100h3.6A23.23,23.23,0,0,0,45,123.2Z"/>
  <path class="cls-2" d="M71.8,100H68.2A23.23,23.23,0,0,0,45,76.8V73.2A26.83,26.83,0,0,1,71.8,100Z"/>
  <circle class="cls-1" cx="114.95" cy="60" r="25"/>
  <path class="cls-2" d="M115,86.8A26.83,26.83,0,0,1,88.15,60h3.6A23.23,23.23,0,0,0,115,83.2Z"/>
  <path class="cls-2" d="M141.75,60h-3.6A23.22,23.22,0,0,0,115,36.8V33.2A26.83,26.83,0,0,1,141.75,60Z"/>
  <polygon class="cls-2" points="141.8 145 141.8 143.2 141.8 135 141.8 133.2 141.8 125 141.8 123.2 141.8 115 141.8 113.2 141.8 105 141.8 103.2 141.8 93.2 90 93.2 90 96.8 138.2 96.8 138.2 103.2 90 103.2 90 106.8 138.2 106.8 138.2 113.2 90 113.2 90 116.8 138.2 116.8 138.2 123.2 90 123.2 90 126.8 138.2 126.8 138.2 133.2 90 133.2 90 136.8 138.2 136.8 138.2 143.2 90 143.2 90 146.8 138.2 146.8 138.2 153.2 71.8 153.2 71.8 145 71.8 143.2 71.8 133.2 20 133.2 20 136.8 68.2 136.8 68.2 143.2 20 143.2 20 146.8 68.2 146.8 68.2 153.2 6.8 153.2 6.8 66.8 60.81 66.8 100.81 21.8 150.81 21.8 138.88 33.73 141.43 36.27 157.7 20 141.43 3.73 138.88 6.27 150.81 18.2 99.19 18.2 59.19 63.2 6.8 63.2 6.8 5 3.2 5 3.2 156.8 155 156.8 155 153.2 141.8 153.2 141.8 145"/>
  <path class="cls-2" d="M47,115.05v4H43.57v-4c-4.6-.67-8.24-4.18-8.87-9.77l-.06-.46h3.59c.58,4.31,3.54,6.93,7.12,6.93,3.76,0,6.22-1.9,6.22-4.86,0-7.61-15.86-3.22-15.86-14.25,0-4.15,3.17-7.11,7.86-7.66V81H47v4a9.11,9.11,0,0,1,8,8.12l0,.21H51.51a6.06,6.06,0,0,0-6.33-5c-3.51,0-5.62,1.65-5.62,4.32,0,7.27,15.9,2.66,15.9,14.21C55.46,111.32,52.16,114.45,47,115.05Z"/>
  <path class="cls-2" d="M117,75.05v4h-3.47V75c-4.61-.67-8.25-4.18-8.88-9.77l0-.46h3.59c.57,4.31,3.54,6.93,7.11,6.93,3.77,0,6.22-1.9,6.22-4.86,0-7.61-15.86-3.22-15.86-14.25,0-4.15,3.18-7.11,7.87-7.66V41H117v4a9.1,9.1,0,0,1,8,8.12l0,.21h-3.59a6.06,6.06,0,0,0-6.32-5c-3.51,0-5.63,1.65-5.63,4.32,0,7.27,15.9,2.66,15.9,14.21C125.36,71.32,122.06,74.45,117,75.05Z"/>
</svg>
