<?xml version="1.0" encoding="UTF-8"?>
<svg id="Layer_1" data-name="Layer 1" xmlns="http://www.w3.org/2000/svg" viewBox="0 0 160 160">
  <defs>
    <style>
      .cls-1 {
        fill: #ec0c21;
      }

      .cls-2 {
        fill: #403c3c;
      }
    </style>
  </defs>
  <g>
    <path class="cls-1" d="M130,100c-11.05,0-20,8.95-20,20s8.95,20,20,20,20-8.95,20-20-8.95-20-20-20Zm0,30c-5.52,0-10-4.48-10-10s4.48-10,10-10,10,4.48,10,10-4.48,10-10,10Z"/>
    <path class="cls-1" d="M35,100c-11.05,0-20,8.95-20,20s8.95,20,20,20,20-8.95,20-20-8.95-20-20-20Zm0,30c-5.52,0-10-4.48-10-10s4.48-10,10-10,10,4.48,10,10-4.48,10-10,10Z"/>
  </g>
  <g>
    <path class="cls-2" d="M154.82,101.48c-5.54-8.32-14.82-13.28-24.82-13.28s-19.27,4.96-24.82,13.28l-8.83,13.24c-1.45,2.18-3.88,3.48-6.5,3.48h-23.11c-.94-16.7-14.82-30-31.75-30S3.2,102.47,3.2,120h3.6c0-15.55,12.65-28.2,28.2-28.2s28.2,12.65,28.2,28.2v1.8h26.65c3.83,0,7.38-1.9,9.5-5.08l8.83-13.24c4.88-7.31,13.03-11.68,21.82-11.68s16.95,4.37,21.82,11.68l1.68,2.52,3-2-1.68-2.52Z"/>
    <path class="cls-2" d="M11.77,39.93c0-3.43,1.37-6.62,3.86-8.99,2.49-2.36,5.75-3.57,9.17-3.38l73.37,4.12v6.5H28.02c-2.67,0-4.85,2.17-4.85,4.85v30.18h-3.17v3.6h30v-.03h58.2v8.23h3.6v-8.23h6.37v8.2h3.6v-8.2h6.4v8.2h3.6v-8.2h16.4v13.2h3.6v-16.8h-55v-31.4h5v-13.5L25,23.96c-4.43-.23-8.63,1.32-11.84,4.37-3.21,3.05-4.98,7.17-4.98,11.6v50.04h3.6V39.93Zm50.03,33.25v-28.17h-3.6v28.17H26.77v-30.15c0-.69,.56-1.25,1.25-1.25H93.17v31.4h-31.37Z"/>
    <path class="cls-2" d="M130,138.2c-10.04,0-18.2-8.17-18.2-18.2s8.16-18.2,18.2-18.2v-3.6c-12.02,0-21.8,9.78-21.8,21.8s9.78,21.8,21.8,21.8,21.8-9.78,21.8-21.8h-3.6c0,10.04-8.16,18.2-18.2,18.2Z"/>
    <path class="cls-2" d="M130,128.7v3.6c6.78,0,12.3-5.52,12.3-12.3s-5.52-12.3-12.3-12.3-12.3,5.52-12.3,12.3h3.6c0-4.8,3.9-8.7,8.7-8.7s8.7,3.9,8.7,8.7-3.9,8.7-8.7,8.7Z"/>
    <path class="cls-2" d="M35,128.7v3.6c6.78,0,12.3-5.52,12.3-12.3s-5.52-12.3-12.3-12.3-12.3,5.52-12.3,12.3h3.6c0-4.8,3.9-8.7,8.7-8.7s8.7,3.9,8.7,8.7-3.9,8.7-8.7,8.7Z"/>
    <path class="cls-2" d="M35,138.2c-10.04,0-18.2-8.17-18.2-18.2s8.16-18.2,18.2-18.2v-3.6c-12.02,0-21.8,9.78-21.8,21.8s9.78,21.8,21.8,21.8,21.8-9.78,21.8-21.8h-3.6c0,10.04-8.16,18.2-18.2,18.2Z"/>
    <rect class="cls-2" x="65" y="83.2" width="10" height="3.6"/>
  </g>
</svg>