<svg data-name="Layer 1" xmlns="http://www.w3.org/2000/svg" viewBox="0 0 160 160">
  <defs>
    <style>
      .cls-1 {
        fill: #ec0c21;
      }

      .cls-2 {
        fill: #403c3c;
      }
    </style>
  </defs>

  <path class="cls-1" d="M45,47.55a12.5,12.5,0,1,1,25,0V50H45Z"/>
  <polygon class="cls-1" points="134.96 50.02 104.96 50.02 109.94 20.02 129.96 20.02 134.96 50.02"/>
  <path class="cls-2" d="M142.46,103.24a9.18,9.18,0,0,0-5.69,2V96.59a18.37,18.37,0,0,0-15-18V48.24H107.08l4.38-26.44h9V18.2h-12l-5.58,33.63h15.33V78.24H41.52A18.37,18.37,0,0,0,23.17,96.59v8.61a9.32,9.32,0,0,0-15,7.36V150h3.6V112.56a5.72,5.72,0,0,1,11.44-.31v9.59h0v30h96.75v-3.6H26.78v-26.4H119.9v-3.6H26.78v-5.68c0-.11,0-.21,0-.31V96.59A14.76,14.76,0,0,1,41.52,81.84h76.9a14.77,14.77,0,0,1,14.75,14.75v15.74c0,.07,0,.14,0,.21V150h3.6v-35h0v-2.72a5.7,5.7,0,0,1,11.39.21V150h3.6v-37.5A9.31,9.31,0,0,0,142.46,103.24Z"/>
  <path class="cls-2" d="M90,51.84v-3.6H46.74v-.69A10.72,10.72,0,0,1,57.45,36.84v-3.6A14.33,14.33,0,0,0,43.14,47.55v.69H26.76V21.84H90v-3.6H23.16v43.6H89.74v-3.6h-63v-6.4Z"/>
</svg>
