<svg data-name="Layer 1" xmlns="http://www.w3.org/2000/svg" viewBox="0 0 160 160">
  <circle cx="125.1" cy="85" r="30" style="fill: #ec0c21"/>
  <g>
    <path d="M125.1,53.2A31.835,31.835,0,0,0,93.3,85h3.6a28.2,28.2,0,1,1,28.2,28.2v3.6a31.8,31.8,0,1,0,0-63.6Z" style="fill: #403c3c"/>
    <path d="M75.428,145.32l-.328.655A607.321,607.321,0,0,0,6.506,38.876L3.694,41.124A603.751,603.751,0,0,1,72.126,148.076l2.974,5.949,3.547-7.1A288.862,288.862,0,0,1,96.6,116l-3-2A292.2,292.2,0,0,0,75.428,145.32Z" style="fill: #403c3c"/>
    <path d="M23.607,81.005C33.97,96.4,43.474,112.236,53.516,130.854l3.169-1.709C46.585,110.422,37.023,94.485,26.593,79Z" style="fill: #403c3c"/>
    <path d="M86.6,116l-3-2C80.33,118.91,80.33,118.91,73.6,129.159l3.008,1.976C83.33,120.9,83.33,120.9,86.6,116Z" style="fill: #403c3c"/>
  </g>
</svg>
