<svg xmlns="http://www.w3.org/2000/svg" viewBox="0 0 160 160">
  <defs>
    <style>
      .ad62ea44-8c52-42e9-bc1a-8031aab3f0d2 {
        fill: none;
      }

      .a8e43016-84dc-4a98-a248-458e996fdf9c {
        fill: #ec0c21;
      }

      .ad82029f-3403-492b-b86a-aed3b20725de {
        fill: #403c3c;
      }

      .ece85435-7de7-458c-88b3-40627878ff4c {
        fill: #413c3c;
      }
    </style>
  </defs>
  <g data-name="white bg">
    <rect class="ad62ea44-8c52-42e9-bc1a-8031aab3f0d2" x="-0.1" width="160" height="160"/>
  </g>
  <g data-name="Layer 1">
    <path class="a8e43016-84dc-4a98-a248-458e996fdf9c" d="M55,100h64a16,16,0,0,1,16,16v39H75V115H50L30,95,40,85Z"/>
    <path class="ad82029f-3403-492b-b86a-aed3b20725de" d="M100,91.8A16.8,16.8,0,1,1,116.78,75,16.82,16.82,0,0,1,100,91.8Zm0-30A13.2,13.2,0,1,0,113.18,75,13.21,13.21,0,0,0,100,61.8Z"/>
    <path class="ad82029f-3403-492b-b86a-aed3b20725de" d="M136.78,155h-3.6V116A14.22,14.22,0,0,0,119,101.8H55V98.2h64a17.82,17.82,0,0,1,17.8,17.8Z"/>
    <polygon class="ad82029f-3403-492b-b86a-aed3b20725de" points="50.72 113.2 32.52 95 41.25 86.27 38.7 83.73 29.98 92.45 22.52 85 31.25 76.27 28.7 73.73 17.43 85 49.23 116.8 74.98 116.8 74.98 113.2 50.72 113.2"/>
    <rect class="ad82029f-3403-492b-b86a-aed3b20725de" x="118.18" y="119.63" width="3.6" height="35.37"/>
    <g>
      <path class="ece85435-7de7-458c-88b3-40627878ff4c" d="M76.36,66.81,61.84,62.92c-.36,1.14-.67,2.3-.92,3.48l14.51,3.89A24.71,24.71,0,0,1,76.36,66.81Z"/>
      <path class="ece85435-7de7-458c-88b3-40627878ff4c" d="M95.26,50.45,91.38,35.94c-1.18.26-2.35.56-3.48.92l3.89,14.52A25,25,0,0,1,95.26,50.45Z"/>
      <path class="ece85435-7de7-458c-88b3-40627878ff4c" d="M108.17,51.38l3.89-14.52c-1.14-.36-2.3-.66-3.48-.92l-3.89,14.51A25.08,25.08,0,0,1,108.17,51.38Z"/>
      <path class="ece85435-7de7-458c-88b3-40627878ff4c" d="M124.53,70.29,139,66.4c-.26-1.18-.56-2.34-.92-3.48L123.6,66.81A24.71,24.71,0,0,1,124.53,70.29Z"/>
      <path class="ece85435-7de7-458c-88b3-40627878ff4c" d="M118.88,58.65,129.51,48c-.82-.89-1.66-1.74-2.55-2.55L116.33,56.1A25.58,25.58,0,0,1,118.88,58.65Z"/>
      <path class="ece85435-7de7-458c-88b3-40627878ff4c" d="M83.62,56.1,73,45.47Q71.66,46.69,70.45,48L81.08,58.65A26.58,26.58,0,0,1,83.62,56.1Z"/>
    </g>
  </g>
</svg>
