<svg data-name="Layer 1" xmlns="http://www.w3.org/2000/svg" viewBox="0 0 160 160">
  <defs>
    <style>
      .cls-1 {
        fill: #ec0c21;
      }

      .cls-2 {
        fill: #403c3c;
      }
    </style>
  </defs>

  <polygon class="cls-1" points="125 70 65 130 49.95 115 42.49 122.5 67.51 147.5 135 80 125 70"/>
  <rect class="cls-1" x="45" y="20" width="70" height="30"/>
  <path class="cls-2" d="M122,156.8H38a9.82,9.82,0,0,1-9.8-9.8V13A9.82,9.82,0,0,1,38,3.2h84a9.82,9.82,0,0,1,9.8,9.8V50h-3.6V13A6.21,6.21,0,0,0,122,6.8H38A6.21,6.21,0,0,0,31.8,13V147a6.21,6.21,0,0,0,6.2,6.2h84a6.21,6.21,0,0,0,6.2-6.2V110h3.6v37A9.82,9.82,0,0,1,122,156.8Z"/>
  <path class="cls-2" d="M52.5,81.8a9.3,9.3,0,1,1,9.3-9.3H58.2a5.7,5.7,0,1,0-5.7,5.7Z"/>
  <path class="cls-2" d="M107.5,81.8a9.3,9.3,0,1,1,9.3-9.3h-3.6a5.7,5.7,0,1,0-5.7,5.7Z"/>
  <path class="cls-2" d="M80.13,81.8a9.3,9.3,0,1,1,9.3-9.3h-3.6a5.7,5.7,0,1,0-5.7,5.7Z"/>
  <path class="cls-2" d="M52.5,111.8a9.3,9.3,0,1,1,9.3-9.3H58.2a5.7,5.7,0,1,0-5.7,5.7Z"/>
  <path class="cls-2" d="M80,111.8a9.3,9.3,0,1,1,9.3-9.3H85.7a5.7,5.7,0,1,0-5.7,5.7Z"/>
  <path class="cls-2" d="M107.5,141.8a9.3,9.3,0,1,1,9.3-9.3h-3.6a5.7,5.7,0,1,0-5.7,5.7Z"/>
  <polygon class="cls-2" points="46.8 50 43.2 50 43.2 18.2 115 18.2 115 21.8 46.8 21.8 46.8 50"/>
  <rect class="cls-2" x="55.65" y="111.89" width="3.6" height="21.21" transform="translate(-69.79 76.5) rotate(-45)"/>
  <rect class="cls-2" x="53.53" y="111.95" width="95.45" height="3.6" transform="translate(-50.78 104.94) rotate(-45.01)"/>
</svg>
