<svg version="1.1" xmlns="http://www.w3.org/2000/svg" xmlns:xlink="http://www.w3.org/1999/xlink" x="0px" y="0px"
	 viewBox="0 0 160 160" style="enable-background:new 0 0 160 160;" xml:space="preserve">
<style type="text/css">
	.st0{fill:#EC0C21;stroke:#EC0C21;stroke-miterlimit:10;}
	.st1{fill:#EC0C21;}
	.st2{fill:#403C3C;}
</style>
<path class="st0" d="M72.73,13.3l4.76-1.95l3.43,6.49c0.28,0.53,0.82,0.83,1.37,0.83c0.25,0,0.5-0.06,0.73-0.19
	c0.76-0.41,1.03-1.37,0.63-2.14l-4.46-8.37c0.12-1.16,1.1-2.08,2.27-2.08h14.59c1.18,0,2.16,0.93,2.28,2.1l-4.25,8.34
	c-0.4,0.77-0.12,1.73,0.63,2.14c0.24,0.13,0.49,0.19,0.73,0.19c0.55,0,1.09-0.31,1.37-0.83l3.39-6.41l4.58,1.88
	c0.86,0.36,1.3,1.32,1.06,2.21l-9.85,12.84c-3.61-0.54-10.83-0.54-14.45,0L71.67,15.5c-0.25-0.89,0.2-1.85,1.06-2.21V13.3z"/>
<path class="st1" d="M120.71,85.75c-5.14,5.97-14.45,6.05-14.55,6.05H71.47l0,0c-0.09,0-9.41-0.07-14.55-6.05
	c-2.84-3.3-3.93-7.87-3.24-13.57c2.81-23.02,25.58-41,27.41-41.8c0.83-0.36,4.28-0.55,7.72-0.55s6.88,0.18,7.72,0.54
	c1.83,0.8,24.59,18.77,27.41,41.8c0.69,5.7-0.39,10.27-3.24,13.57L120.71,85.75z"/>
<path class="st2" d="M44.33,160.33l-2.5-2.5l21.8-21.9h42.2l44.5-42.1c3.1-3.1,3.1-8.2,0-11.3c-1.5-1.5-3.5-2.4-5.7-2.4
	s-4.2,0.8-5.7,2.4l-18.8,18.8l-2.5-2.5l18.8-18.8c4.5-4.5,11.9-4.5,16.5,0c2.2,2.2,3.4,5.1,3.4,8.2s-1.2,6-3.4,8.2l-45.6,43.1h-42.2
	L44.33,160.33z"/>
<path class="st2" d="M6.93,123.73l-2.6-2.6l28.5-28.7h70.4c5.7,0,12,4.8,12,11.7c0,0.1,0.2,4.8-3,8.2c-2.1,2.2-5,3.3-8.8,3.3h-33
	v-3.6h33c2.7,0,4.8-0.7,6.1-2.2c2.2-2.2,2.1-5.6,2.1-5.7c0-4.7-4.4-8.2-8.4-8.2h-68.9L6.93,123.73z"/>
<rect x="39.73" y="111.56" transform="matrix(0.707 -0.7072 0.7072 0.707 -81.0854 68.0018)" class="st2" width="3.6" height="40.6"/>
<path class="st2" d="M127,71.53c-2.65-21.13-21.99-38.5-27.97-42.44c0,0,9.54-12.23,9.59-12.36c1-2.49-0.22-5.34-2.7-6.35
	l-4.51-1.81c0.02-0.09,0.03-0.19,0.03-0.29c0-2.96-2.41-5.37-5.37-5.37H81.55c-2.96,0-5.37,2.41-5.37,5.37c0,0.09,0,0.2,0.03,0.29
	l-4.51,1.81c-2.49,1.01-3.71,3.85-2.7,6.35c0.05,0.13,9.59,12.36,9.59,12.36c-5.98,3.94-25.32,21.32-27.97,42.44
	c-0.81,6.48,0.54,11.75,4,15.66c6.08,6.87,16.38,6.93,16.86,6.92h34.7c0.57,0,10.81-0.1,16.84-6.92c3.46-3.92,4.8-9.18,4-15.66H127z
	 M72.86,13.26l4.74-1.91l3.42,6.34c0.28,0.52,0.81,0.81,1.36,0.81c0.25,0,0.49-0.06,0.73-0.19c0.75-0.4,1.03-1.34,0.63-2.09
	L79.3,8.06c0.12-1.13,1.09-2.03,2.26-2.03h14.53c1.17,0,2.15,0.91,2.27,2.05l-4.23,8.14c-0.4,0.75-0.12,1.69,0.63,2.09
	c0.24,0.12,0.48,0.19,0.73,0.19c0.55,0,1.08-0.3,1.36-0.81l3.38-6.26l4.56,1.83c0.86,0.35,1.3,1.29,1.05,2.15l-9.81,12.54
	c-3.6-0.53-10.79-0.53-14.39,0L71.81,15.4c-0.25-0.87,0.2-1.8,1.05-2.15V13.26z M120.71,85.14c-5.14,5.82-14.45,5.89-14.55,5.89
	H71.47l0,0c-0.09,0-9.41-0.07-14.55-5.89c-2.84-3.21-3.93-7.67-3.24-13.22C56.5,49.5,79.27,31.98,81.09,31.2
	c0.83-0.35,4.28-0.54,7.72-0.54s6.88,0.18,7.72,0.53c1.83,0.78,24.59,18.29,27.41,40.73c0.69,5.55-0.39,10-3.24,13.22L120.71,85.14z
	"/>
<path class="st2" d="M90.65,74.85v3.8h-3.35v-3.89c-4.43-0.63-7.96-4.07-8.5-9.4l-0.09-0.45h3.44c0.54,4.16,3.44,6.69,6.87,6.69
	c3.62,0,5.97-1.81,5.97-4.7c0-7.32-15.28-3.07-15.28-13.65c0-3.98,3.07-6.78,7.59-7.32v-3.8h3.35v3.89
	c4.07,0.45,7.32,3.71,7.78,7.78v0.18h-3.44c-0.45-2.89-3.07-4.97-6.06-4.88c-3.35,0-5.42,1.63-5.42,4.16
	c0,6.96,15.28,2.53,15.28,13.65C98.7,71.23,95.53,74.22,90.65,74.85z"/>
</svg>