<svg data-name="Layer 1" xmlns="http://www.w3.org/2000/svg" xmlns:xlink="http://www.w3.org/1999/xlink" viewBox="0 0 160 160">
  <defs>
    <style>
      .cls-1 {
        fill: none;
        stroke: #403c3c;
        stroke-miterlimit: 10;
      }

      .cls-2 {
        clip-path: url(#clip-path);
      }

      .cls-3 {
        fill: #ec0c21;
      }

      .cls-4 {
        fill: #403c3c;
      }
    </style>
    <clipPath id="clip-path">
      <path class="cls-1" d="M55,80h3.47A16,16,0,0,0,73.65,69.06L75,65h80l-5.78,15Z"/>
    </clipPath>
  </defs>
  <g>
    <g class="cls-2">
      <rect class="cls-3" x="65" y="65" width="90" height="15"/>
    </g>
    <path class="cls-1" d="M55,80h3.47A16,16,0,0,0,73.65,69.06L75,65h80l-5.78,15Z"/>
  </g>
  <polygon class="cls-3" points="20 40 107.5 40 100 25 20 25 20 40"/>
  <path class="cls-4" d="M95,136.8c-8.46,0-13.49-3-17.92-5.72-3.8-2.3-7.08-4.28-12.08-4.28s-8.28,2-12.08,4.28c-4.43,2.68-9.46,5.72-17.92,5.72-8,0-12.09-2.7-16-5.3-3.62-2.42-7-4.7-14-4.7v-3.6c8.05,0,12.09,2.7,16,5.3,3.62,2.42,7,4.7,14,4.7,7.46,0,11.83-2.64,16.06-5.2C55,125.64,59,123.2,65,123.2s10,2.44,13.94,4.8c4.23,2.56,8.6,5.2,16.06,5.2,7.65,0,12.3-2.74,16.8-5.39,4-2.37,7.83-4.61,13.2-4.61v3.6c-4.39,0-7.62,1.91-11.37,4.11C108.94,133.67,103.63,136.8,95,136.8Z"/>
  <path class="cls-4" d="M157.62,63.2H121.11l-20-40H18.2V40h3.6V26.8H98.89l5.7,11.41H33.2v40H3.2V95H6.8V81.8H58.47A17.77,17.77,0,0,0,75.35,69.63l1-2.83h76.08L148,78.2H79.93v3.6H146.6l-7.81,20.27A23.92,23.92,0,0,0,125,98.2c-8.82,0-14.44,3.23-19.41,6.08-3.66,2.1-6.83,3.92-10.59,3.92s-6.93-1.82-10.6-3.92c-5-2.85-10.58-6.08-19.4-6.08-8.56,0-13.75,3.09-18.34,5.82-3.77,2.24-7,4.18-11.66,4.18v3.6c5.62,0,9.63-2.38,13.5-4.69,4.39-2.61,8.93-5.31,16.5-5.31,7.86,0,12.82,2.85,17.61,5.6,3.94,2.26,7.67,4.4,12.39,4.4s8.45-2.14,12.39-4.4c4.79-2.75,9.75-5.6,17.61-5.6,6.95,0,10.38,2.28,14,4.7,3.91,2.6,7.95,5.3,16,5.3v-3.6a21.21,21.21,0,0,1-13.12-4.12Zm-83.92,0-1.76,5.29A14.18,14.18,0,0,1,58.47,78.2H36.8V41.8h69.59l10.7,21.39Z"/>
</svg>
