<svg data-name="Layer 1" xmlns="http://www.w3.org/2000/svg" viewBox="0 0 160 160">
  <defs>
    <style>
      .cls-1 {
        fill: #403c3c;
      }

      .cls-2 {
        fill: #ec0c21;
      }
    </style>
  </defs>

  <path class="cls-1" d="M156.8,86.8H3.2V18.2H156.8ZM6.8,83.2H153.2V21.8H6.8Z"/>
  <rect class="cls-1" x="15" y="33.2" width="130" height="3.6"/>
  <rect class="cls-1" x="15" y="48.2" width="40" height="3.6"/>
  <path class="cls-1" d="M121,71.81a2,2,0,0,1-1.17-.37,2,2,0,0,1-.82-1.61V63.7l-11.68,7.76a2,2,0,0,1-3.07-1.65V64.63l-6.79,6.78-2.55-2.54,9.56-9.55a2,2,0,0,1,3.38,1.4v6.07L119.49,59a2,2,0,0,1,3.07,1.65v6.57L130,63.67a2,2,0,0,1,1.44-.1c1.08.33,13.73,4.57,14.27,4.75l-1.14,3.41c-4-1.34-11.36-3.8-13.59-4.53l-9.42,4.51A1.86,1.86,0,0,1,121,71.81Zm-15.66-3.36h0Z"/>
  <polygon class="cls-2" points="70 65 80 65 80 75 15 140 5 130 70 65"/>
  <polygon class="cls-1" points="13.73 141.27 2.46 130 69.25 63.2 81.8 63.2 81.8 75 78.2 75 78.2 66.8 70.75 66.8 7.54 130 16.27 138.73 13.73 141.27"/>
</svg>
