<svg data-name="Layer 1" xmlns="http://www.w3.org/2000/svg" viewBox="0 0 160 160">
  <defs>
    <style>
      .cls-1 {
        fill: #ec0c21;
      }

      .cls-2 {
        fill: #403c3c;
      }
    </style>
  </defs>

  <path class="cls-1" d="M35,5V57.69A19.94,19.94,0,0,1,64.34,70H85V95l20-25h50V5Z"/>
  <path class="cls-2" d="M73.22,47.18v4.23H68.31V47.18Z"/>
  <path class="cls-2" d="M87.35,47.18v4.23H82.44V47.18Z"/>
  <path class="cls-2" d="M100.63,47.18v4.23H95.72V47.18Z"/>
  <path class="cls-2" d="M118.78,29.58c0-2.92-2-4.82-5.17-4.82a5.47,5.47,0,0,0-5.87,5.67L104.18,30c.21-5.12,3.94-8.5,9.43-8.5s9,3.34,9,8.12c0,8-8.58,7.11-8.5,13.62h-3.51C110.4,35.12,118.78,35.5,118.78,29.58Zm-4,17.6v4.23h-4.91V47.18Z"/>
  <polygon class="cls-2" points="86.4 96.11 83.58 93.86 104.12 68.19 153.18 68.19 153.18 5 156.78 5 156.78 71.79 105.85 71.79 86.4 96.11"/>
  <path class="cls-2" d="M86.79,155h-3.6V129.45a22.73,22.73,0,0,0-22.75-22.66H29.55A22.73,22.73,0,0,0,6.8,129.45V155H3.2V129.45a26.33,26.33,0,0,1,26.35-26.26H60.44a26.33,26.33,0,0,1,26.35,26.26Z"/>
  <path class="cls-2" d="M85,68.19H65.7A21.79,21.79,0,1,0,66.79,75a22.64,22.64,0,0,0-.23-3.2H85Zm-40,25A18.2,18.2,0,1,1,63.19,75,18.21,18.21,0,0,1,45,93.19Z"/>
</svg>
