<svg data-name="Layer 1" xmlns="http://www.w3.org/2000/svg" viewBox="0 0 160 160">
  <defs>
    <style>
      .cls-1 {
        fill: #403c3c;
      }

      .cls-2 {
        fill: #ec0c21;
      }
    </style>
  </defs>

  <polygon class="cls-1" points="56.07 58.2 18.39 58.2 13.21 104.8 16.79 105.2 20.5 71.8 50 71.8 50 68.2 20.9 68.2 21.61 61.8 53.93 61.8 83.42 115.86 86.58 114.14 56.07 58.2"/>
  <path class="cls-2" d="M110,44.47,95.82,48.65a3.92,3.92,0,0,0-.06,7.48L110,60.58Z"/>
  <path class="cls-2" d="M5,125a30,30,0,0,1,60,0Z"/>
  <path class="cls-1" d="M135,103.2a21.72,21.72,0,0,0-9.46,2.16l-3.25-5.52A28.16,28.16,0,0,1,153.8,104l2.4-2.68a31.76,31.76,0,0,0-35.74-4.57l-22.34-38L110,62.46V58.69L96.3,54.42a2.13,2.13,0,0,1,0-4l13.67-4V42.59L95.3,46.93a5.61,5.61,0,0,0-2.93,2L86,38.2H70v3.6H84l33.39,56.76a31.82,31.82,0,0,0-14.11,24.64H66.75A31.84,31.84,0,0,0,35,93.2v3.6a28.23,28.23,0,0,1,28.14,26.4H5v3.6h8.28a21.79,21.79,0,0,0,43.44,0H106.8V125a28.22,28.22,0,0,1,12.38-23.34l3.26,5.54a21.78,21.78,0,1,0,12.56-4Zm-100,40a18.23,18.23,0,0,1-18.11-16.4H53.11A18.23,18.23,0,0,1,35,143.2Zm100,0a18.17,18.17,0,0,1-10.72-32.87l9.17,15.58,3.1-1.82-9.17-15.6A18.19,18.19,0,1,1,135,143.2Z"/>
</svg>
