<svg data-name="Layer 1" xmlns="http://www.w3.org/2000/svg" viewBox="0 0 160 160">
  <defs>
    <style>
      .cls-1 {
        fill: #403c3c;
      }

      .cls-2 {
        fill: #ec0c21;
      }
    </style>
  </defs>

  <path class="cls-1" d="M25.61,147a12.41,12.41,0,0,1-8.78-21.18l41.9-41.89,2.54,2.54-41.89,41.9a8.8,8.8,0,1,0,12.45,12.45l41.9-41.89,2.54,2.54-41.89,41.9A12.33,12.33,0,0,1,25.61,147Z"/>
  <rect class="cls-1" x="84.79" y="47.08" width="52.97" height="3.6" transform="translate(-1.97 93.01) rotate(-45.01)"/>
  <polygon class="cls-1" points="136.27 36.42 133.73 33.88 142.45 25.15 135 17.7 126.27 26.42 123.73 23.88 135 12.61 147.55 25.15 136.27 36.42"/>
  <rect class="cls-1" x="16.18" y="112.05" width="60.16" height="3.6" transform="translate(-66.96 66.07) rotate(-45.01)"/>
  <path class="cls-2" d="M94.73,110.17a15.65,15.65,0,0,0,0,22.13l8.11,8.12a15.65,15.65,0,0,0,22.13,0l-11-11A10.91,10.91,0,0,1,114,114h0a10.91,10.91,0,0,1,15.44,0l11,11a15.65,15.65,0,0,0,0-22.13l-8.12-8.11a15.65,15.65,0,0,0-22.13,0l-44.9-44.9a15.65,15.65,0,0,0,0-22.13l-8.11-8.12a15.65,15.65,0,0,0-22.13,0l11,11A10.91,10.91,0,0,1,46,46h0a10.91,10.91,0,0,1-15.44,0l-11-11a15.65,15.65,0,0,0,0,22.13l8.12,8.11a15.65,15.65,0,0,0,22.13,0Z"/>
  <path class="cls-1" d="M38.77,71.65a17.4,17.4,0,0,1-12.34-5.1l-8.12-8.12a17.45,17.45,0,0,1,0-24.68l1.27-1.27L31.82,44.72a9.12,9.12,0,0,0,12.9-12.9L32.48,19.58l1.27-1.27a17.45,17.45,0,0,1,24.68,0l-2.55,2.55a13.84,13.84,0,0,0-18.23-1.19l9.62,9.61a12.72,12.72,0,1,1-18,18l-9.61-9.61a13.84,13.84,0,0,0,1.19,18.23L29,64a13.87,13.87,0,0,0,19.59,0l2.54,2.55A17.39,17.39,0,0,1,38.77,71.65Z"/>
  <path class="cls-1" d="M141.69,126.25l-2.55-2.55a13.83,13.83,0,0,0,0-19.58L131,96a13.87,13.87,0,0,0-19.59,0l-1.27,1.27L64,51.1l2.55-2.54,43.68,43.69a17.48,17.48,0,0,1,23.34,1.2l8.12,8.12a17.45,17.45,0,0,1,0,24.68Z"/>
  <path class="cls-1" d="M113.91,146.8a17.33,17.33,0,0,1-12.34-5.11l-8.12-8.12a17.44,17.44,0,0,1,0-24.67L96,111.44A13.85,13.85,0,0,0,96,131l8.12,8.11a13.84,13.84,0,0,0,18.23,1.19l-9.62-9.61a12.74,12.74,0,0,1,0-18l2.55,2.54a9.14,9.14,0,0,0,0,12.9l12.24,12.24-1.27,1.27A17.33,17.33,0,0,1,113.91,146.8Z"/>
</svg>
