<svg data-name="Layer 1" xmlns="http://www.w3.org/2000/svg" viewBox="0 0 160 160">
  <defs>
    <style>
      .cls-1 {
        fill: #ec0c21;
      }

      .cls-2 {
        fill: #403c3c;
      }
    </style>
  </defs>
  <path class="cls-1" d="M134.13,25a15,15,0,0,0-14-10H39.94a15,15,0,0,0-14,10Z"/>
  <rect class="cls-1" x="25" y="115" width="30" height="20"/>
  <rect class="cls-1" x="105" y="115" width="30" height="20"/>
  <path class="cls-2" d="M136.8,48.2V29.88A16.76,16.76,0,0,0,120,13.2H40A16.76,16.76,0,0,0,23.2,29.88V48.2h-10V70h3.6V51.8h6.4V84.4h3.6V41.8H78.2V95h3.6V41.8H125V38.2H26.8V29.88A13.16,13.16,0,0,1,40,16.8h80A13.16,13.16,0,0,1,133.2,29.88V103.2H26.8V100H23.2v36.8h0v5.06a9.94,9.94,0,0,0,9.93,9.94h3.72a10,10,0,0,0,9.94-9.94V136.8h66.4v5.06a9.94,9.94,0,0,0,9.94,9.93h3.72a9.94,9.94,0,0,0,9.93-9.93V135h0V51.8h6.4V70h3.6V48.2ZM43.2,141.86a6.34,6.34,0,0,1-6.34,6.34H33.14a6.34,6.34,0,0,1-6.33-6.34v-5.05H43.2ZM26.8,133.2V116.8H53.2V125h3.6V113.2h-30v-6.4H133.2v6.4h-30V125h3.6v-8.2h26.4v16.4H26.8Zm106.39,8.66a6.34,6.34,0,0,1-6.33,6.33h-3.72a6.34,6.34,0,0,1-6.34-6.33V136.8h16.39Z"/>
</svg>
