<svg data-name="Layer 1" xmlns="http://www.w3.org/2000/svg" viewBox="0 0 160 160">
  <defs>
    <style>
      .ebafea11-b2b7-489d-9eb9-1979244145a7 {
        fill: #ec0c21;
      }

      .b3ed5bc1-7dea-4df5-a95d-f449c951fea4 {
        fill: #403c3c;
      }
    </style>
  </defs>
  <g>
    <path class="ebafea11-b2b7-489d-9eb9-1979244145a7" d="M137.5,102.5a22.5,22.5,0,1,0-37.4,16.85L94,142l8.54-2.88,6,6.77L114.12,125l.88,0,.88,0,5.59,20.88,6-6.77L136,142l-6.06-22.62A22.43,22.43,0,0,0,137.5,102.5Z"/>
    <g>
      <path class="b3ed5bc1-7dea-4df5-a95d-f449c951fea4" d="M122.34,142.14l-4.17-15.55A24.34,24.34,0,0,0,139.3,102.5h-3.6A20.73,20.73,0,0,1,115,123.2h-2.42v3.6h1.92l6.1,22.77,7.38-8.39,7.4,2.5,1.16-3.41L126.86,137Z"/>
      <path class="b3ed5bc1-7dea-4df5-a95d-f449c951fea4" d="M115,81.8V78.2a24.33,24.33,0,0,0-24.3,24.3h3.6A20.73,20.73,0,0,1,115,81.8Z"/>
      <polygon class="b3ed5bc1-7dea-4df5-a95d-f449c951fea4" points="96.65 139.19 102.25 118.29 98.77 117.36 91.43 144.76 102.02 141.18 107.18 147.05 109.88 144.67 103.14 137 96.65 139.19"/>
      <path class="b3ed5bc1-7dea-4df5-a95d-f449c951fea4" d="M79.29,115l-7.44,3.58V112a2,2,0,0,0-3.07-1.65l-11.69,7.76V112a2,2,0,0,0-3.38-1.4l-9.55,9.55,2.55,2.55,6.78-6.79v5.18a2,2,0,0,0,3.08,1.65L68.25,115v6.13a2,2,0,0,0,.82,1.61,2,2,0,0,0,1.16.37,2.16,2.16,0,0,0,.62-.09l9.41-4.52c2.24.73,5.15,2.36,9.17,3.7l1.14-3.41c-.54-.18-8.76-3.59-9.84-3.92A2,2,0,0,0,79.29,115Z"/>
      <rect class="b3ed5bc1-7dea-4df5-a95d-f449c951fea4" x="45" y="33.2" width="50" height="3.6"/>
      <rect class="b3ed5bc1-7dea-4df5-a95d-f449c951fea4" x="45" y="43.2" width="50" height="3.6"/>
      <rect class="b3ed5bc1-7dea-4df5-a95d-f449c951fea4" x="45" y="53.2" width="50" height="3.6"/>
      <rect class="b3ed5bc1-7dea-4df5-a95d-f449c951fea4" x="45" y="63.2" width="50" height="3.6"/>
      <rect class="b3ed5bc1-7dea-4df5-a95d-f449c951fea4" x="45" y="73.2" width="45" height="3.6"/>
      <rect class="b3ed5bc1-7dea-4df5-a95d-f449c951fea4" x="45" y="83.2" width="40" height="3.6"/>
      <rect class="b3ed5bc1-7dea-4df5-a95d-f449c951fea4" x="45" y="93.2" width="40" height="3.6"/>
      <polygon class="b3ed5bc1-7dea-4df5-a95d-f449c951fea4" points="26.8 21.8 113.2 21.8 113.2 75 116.8 75 116.8 18.2 23.2 18.2 23.2 146.8 85 146.8 85 143.2 26.8 143.2 26.8 21.8"/>
    </g>
  </g>
</svg>
