<svg data-name="Layer 1" xmlns="http://www.w3.org/2000/svg" viewBox="0 0 160 160">
  <defs>
    <style>
      .cls-1 {
        fill: #ec0c21;
      }

      .cls-2 {
        fill: #403c3c;
      }
    </style>
  </defs>

  <rect class="cls-1" x="70" y="60" width="10" height="35"/>
  <path class="cls-1" d="M140,5c0,42-18.06,60-60,60C80,20,95,5,140,5Z"/>
  <path class="cls-1" d="M20,5c0,42,18,60,60,60C80,20,65,5,20,5Z"/>
  <path class="cls-2" d="M56.78,156.8a9.76,9.76,0,0,1-9.66-8.19L37.88,93.22H70v3.6H42.12L50.67,148a6.18,6.18,0,0,0,6.11,5.18h46.47a6.18,6.18,0,0,0,6.12-5.19l8.85-53.3,3.56.58-8.86,53.31a9.78,9.78,0,0,1-9.67,8.2Z"/>
  <path class="cls-2" d="M138.2,5c0,39.27-16.14,56.86-53.74,58.12l36.81-36.85-2.54-2.54-37,37c-.48-21.39-4.74-35-13.62-43.9C58.69,7.41,43.85,3.2,20,3.2V6.8C62.57,6.8,77.21,20,78.15,60.64L41.27,23.73l-2.54,2.54L78.2,65.79V95h3.6V66.79c20.73-.26,35.53-5.1,45.2-14.77,10-10,14.8-25.33,14.8-47Z"/>
  <path class="cls-2" d="M82,140.07v4H78.51v-4c-4.61-.68-8.25-4.19-8.88-9.77l-.06-.46h3.59c.58,4.31,3.54,6.93,7.12,6.93,3.76,0,6.22-1.9,6.22-4.86,0-7.62-15.86-3.22-15.86-14.26,0-4.14,3.17-7.1,7.87-7.65v-4H82v4a9.1,9.1,0,0,1,8,8.12l0,.21H86.44a6.06,6.06,0,0,0-6.33-5c-3.51,0-5.62,1.65-5.62,4.31,0,7.28,15.9,2.67,15.9,14.21C90.39,136.35,87.09,139.48,82,140.07Z"/>
</svg>
