<svg xmlns="http://www.w3.org/2000/svg" viewBox="0 0 160 160">
  <defs>
    <style>
      .f54a79b9-9982-4916-a21c-ef50a1a70f09 {
        fill: none;
      }

      .f7a753b4-64f3-41a8-95d6-41e37788dabb {
        fill: #ec0c21;
      }

      .a661a8e0-8963-4b60-8b42-fef9fbf4f73f {
        fill: #403c3c;
      }
    </style>
  </defs>
  <g data-name="white bg">
    <rect class="f54a79b9-9982-4916-a21c-ef50a1a70f09" x="-0.1" width="160" height="160"/>
  </g>
  <g data-name="Layer 1">
    <path class="f7a753b4-64f3-41a8-95d6-41e37788dabb" d="M97.65,50a22.5,22.5,0,1,0,22.5,22.5A22.5,22.5,0,0,0,97.65,50Zm0,25a5,5,0,1,1,5-5A5,5,0,0,1,97.65,75Z"/>
    <g>
      <path class="a661a8e0-8963-4b60-8b42-fef9fbf4f73f" d="M105.85,104.3a8.91,8.91,0,0,0,0,11.4v3.53a8.91,8.91,0,0,0,0,11.47v8.19l-8.2,4.1-8.2-4.1V95.37a24.2,24.2,0,0,0,8.2,1.43V93.2a20.7,20.7,0,0,1,0-41.4V48.2a24.29,24.29,0,0,0-11.8,45.53v47.38l11.8,5.9,11.8-5.9V130l0-.78-.53-.53a5.29,5.29,0,0,1,0-7.43l.59-.59v-6.41l-.53-.53a5.29,5.29,0,0,1,0-7.46l.53-.52V100h-3.6Z"/>
      <rect class="a661a8e0-8963-4b60-8b42-fef9fbf4f73f" x="95.85" y="105.02" width="3.6" height="29.98"/>
      <path class="a661a8e0-8963-4b60-8b42-fef9fbf4f73f" d="M62.76,57.86A20.57,20.57,0,0,1,77.4,51.8V48.2A24.32,24.32,0,0,0,67,94.48l-6.26,6.27H52.62v8.13l-2.44,2.43-8.17.06v8.11l-5.75,5.76-8.7-2.9-2.9-8.7,27.5-27.49L49.61,83.6,20.54,112.67l4.17,12.52,12.52,4.17L45.61,121v-6l6.07,0,4.54-4.53v-6h6l8.48-8.48a24.44,24.44,0,0,0,6.68.93V93.2A20.7,20.7,0,0,1,62.76,57.86Z"/>
      <path class="a661a8e0-8963-4b60-8b42-fef9fbf4f73f" d="M97.15,13.2a29.33,29.33,0,0,0-29.3,29.3h3.6a25.7,25.7,0,1,1,25.7,25.7v3.6a29.3,29.3,0,0,0,0-58.6Z"/>
    </g>
  </g>
</svg>
