<svg data-name="Layer 1" xmlns="http://www.w3.org/2000/svg" viewBox="0 0 160 160">
  <defs>
    <style>
      .cls-1 {
        fill: #ec0c21;
      }

      .cls-2 {
        fill: #403c3c;
      }

      .cls-3 {
        fill: #413c3c;
      }
    </style>
  </defs>

  <path class="cls-1" d="M120.1,130a5,5,0,1,1-5,5,5,5,0,0,1,5-5m0-10a15,15,0,1,0,15,15,15,15,0,0,0-15-15Z"/>
  <polygon class="cls-2" points="118.3 45 118.3 91.8 145.08 91.8 145.08 88.2 121.9 88.2 121.9 45 118.3 45"/>
  <path class="cls-1" d="M40.1,130a5,5,0,1,1-5,5,5,5,0,0,1,5-5m0-10a15,15,0,1,0,15,15,15,15,0,0,0-15-15Z"/>
  <path class="cls-2" d="M40.1,151.8a16.82,16.82,0,0,1-16.7-15H5.06v-3.6H26.9V135a13.2,13.2,0,1,0,13.2-13.2v-3.6a16.8,16.8,0,0,1,0,33.6Z"/>
  <path class="cls-2" d="M146.6,33.2H103.3v70H5.1v3.6H106.9v-70h36.7l9.67,53.36v43H136.8a16.82,16.82,0,0,0-16.7-15v3.6A13.2,13.2,0,1,1,106.9,135v-1.8H80.1v3.6h23.3a16.8,16.8,0,0,0,33.4,0h20.07V90Z"/>
  <polygon class="cls-3" points="96.8 96.8 63.2 96.8 63.2 23.2 75 23.2 75 26.8 66.8 26.8 66.8 93.2 93.2 93.2 93.2 26.8 85 26.8 85 23.2 96.8 23.2 96.8 96.8"/>
  <polygon class="cls-3" points="56.9 96.8 8.2 96.8 8.2 73.2 27.55 73.2 27.55 76.8 11.8 76.8 11.8 93.2 53.3 93.2 53.3 76.8 37.55 76.8 37.55 73.2 56.9 73.2 56.9 96.8"/>
  <polygon class="cls-3" points="56.9 66.8 23.2 66.8 23.2 43.2 35 43.2 35 46.8 26.8 46.8 26.8 63.2 53.3 63.2 53.3 46.8 45 46.8 45 43.2 56.9 43.2 56.9 66.8"/>
  <rect class="cls-1" x="75" y="23.22" width="10" height="31.78"/>
  <rect class="cls-1" x="35" y="43.22" width="10" height="11.78"/>
  <rect class="cls-1" x="27.55" y="73.22" width="10" height="11.78"/>
  <g>
    <polyline class="cls-1" points="83.2 55 75 55 75 25"/>
    <polygon class="cls-2" points="85 56.8 73.2 56.8 73.2 23.2 76.8 23.2 76.8 53.2 85 53.2 85 56.8"/>
  </g>
  <polygon class="cls-2" points="44.95 56.8 34.2 56.8 34.2 43.2 37.8 43.2 37.8 53.2 44.95 53.2 44.95 56.8"/>
  <polygon class="cls-2" points="37.56 86.8 25.6 86.8 25.6 73.2 29.2 73.2 29.2 83.2 37.56 83.2 37.56 86.8"/>
  <rect class="cls-2" x="78.2" y="85" width="3.6" height="10"/>
  <rect class="cls-2" x="30.75" y="90" width="3.6" height="5"/>
  <rect class="cls-2" x="38.2" y="60" width="3.6" height="5"/>
</svg>
