<svg xmlns="http://www.w3.org/2000/svg" viewBox="0 0 160 160">
  <defs>
    <style>
      .a28127d6-291a-4cb4-899f-99ab290bebbd {
        fill: none;
      }

      .ef3ce1d9-9380-4515-b9bb-15926cf5a7e0 {
        fill: #ec0c21;
      }

      .e54e8233-1fd8-4258-9f00-3e0eeacdebad {
        fill: #403c3c;
      }
    </style>
  </defs>
  <g data-name="white bg">
    <rect class="a28127d6-291a-4cb4-899f-99ab290bebbd" x="-0.1" width="160" height="160"/>
  </g>
  <g data-name="Layer 1">
    <path class="ef3ce1d9-9380-4515-b9bb-15926cf5a7e0" d="M155,130a20,20,0,0,0-20-20H105c6,4.56,15,11.82,15,20v20h35Z"/>
    <rect class="ef3ce1d9-9380-4515-b9bb-15926cf5a7e0" x="20" y="30" width="90" height="15"/>
    <g>
      <path class="e54e8233-1fd8-4258-9f00-3e0eeacdebad" d="M100.06,108.2H69.94A21.76,21.76,0,0,0,48.2,129.94V150h3.6V129.94A18.16,18.16,0,0,1,69.94,111.8h30.12a18.16,18.16,0,0,1,18.14,18.14V150h3.6V129.94A21.76,21.76,0,0,0,100.06,108.2Z"/>
      <path class="e54e8233-1fd8-4258-9f00-3e0eeacdebad" d="M141.8,85A16.8,16.8,0,1,0,125,101.8,16.82,16.82,0,0,0,141.8,85ZM125,98.2A13.2,13.2,0,1,1,138.2,85,13.21,13.21,0,0,1,125,98.2Z"/>
      <path class="e54e8233-1fd8-4258-9f00-3e0eeacdebad" d="M68.2,85A16.8,16.8,0,1,0,85,68.2,16.82,16.82,0,0,0,68.2,85Zm30,0A13.2,13.2,0,1,1,85,71.8,13.21,13.21,0,0,1,98.2,85Z"/>
      <path class="e54e8233-1fd8-4258-9f00-3e0eeacdebad" d="M134.65,108.22H125v3.6h9.63a18.55,18.55,0,0,1,18.53,18.53V150h3.6V130.35A22.16,22.16,0,0,0,134.65,108.22Z"/>
      <polygon class="e54e8233-1fd8-4258-9f00-3e0eeacdebad" points="3.2 8.2 3.2 86.8 55 86.8 55 83.2 6.8 83.2 6.8 11.8 153.2 11.8 153.2 85 156.8 85 156.8 8.2 3.2 8.2"/>
      <rect class="e54e8233-1fd8-4258-9f00-3e0eeacdebad" x="20" y="28.2" width="90" height="3.6"/>
      <rect class="e54e8233-1fd8-4258-9f00-3e0eeacdebad" x="20" y="43.2" width="90" height="3.6"/>
      <rect class="e54e8233-1fd8-4258-9f00-3e0eeacdebad" x="20" y="58.2" width="45" height="3.6"/>
    </g>
  </g>
</svg>
