<svg data-name="Layer 1" xmlns="http://www.w3.org/2000/svg" viewBox="0 0 160 160">
  <defs>
    <style>
      .cls-1 {
        fill: #ec0c21;
      }

      .cls-2 {
        fill: #403c3c;
      }
    </style>
  </defs>

  <rect class="cls-1" x="5" y="30" width="130" height="20"/>
  <path class="cls-1" d="M147,65H33a8,8,0,0,0-8,8v69a8,8,0,0,0,8,8H147a8,8,0,0,0,8-8V73A8,8,0,0,0,147,65ZM70,96a4,4,0,0,1-4,4H44a4,4,0,0,1-4-4V84a4,4,0,0,1,4-4H66a4,4,0,0,1,4,4Z"/>
  <rect class="cls-2" x="45.02" y="123.13" width="20" height="3.6"/>
  <rect class="cls-2" x="69.96" y="123.13" width="20.05" height="3.6"/>
  <rect class="cls-2" x="94.99" y="123.13" width="20" height="3.6"/>
  <rect class="cls-2" x="119.98" y="123.13" width="20" height="3.6"/>
  <path class="cls-2" d="M147,63.19H136.8V23A9.81,9.81,0,0,0,127,13.2H13A9.81,9.81,0,0,0,3.2,23V92A9.81,9.81,0,0,0,13,101.8H25V98.2H13A6.21,6.21,0,0,1,6.8,92V31.77H75v-3.6H6.8V23A6.21,6.21,0,0,1,13,16.8H127A6.21,6.21,0,0,1,133.2,23V63.19H75v3.6h72a6.21,6.21,0,0,1,6.2,6.21v69a6.21,6.21,0,0,1-6.2,6.2H75v3.6h72a9.81,9.81,0,0,0,9.8-9.8V73A9.81,9.81,0,0,0,147,63.19Z"/>
  <path class="cls-2" d="M66,101.8H44a5.8,5.8,0,0,1-5.8-5.8V84A5.8,5.8,0,0,1,44,78.2H66a5.8,5.8,0,0,1,5.8,5.8V96A5.8,5.8,0,0,1,66,101.8Zm-22-20a2.21,2.21,0,0,0-2.2,2.2V96A2.21,2.21,0,0,0,44,98.2H66a2.2,2.2,0,0,0,2.2-2.2V84A2.2,2.2,0,0,0,66,81.8Z"/>
</svg>
