<svg data-name="Layer 1" xmlns="http://www.w3.org/2000/svg" viewBox="0 0 160 160">
  <defs>
    <style>
      .cls-1 {
        fill: #ec0c21;
      }

      .cls-2 {
        fill: #403c3c;
      }
    </style>
  </defs>

  <path class="cls-1" d="M80,95,40,35H20V50a15,15,0,1,0,10,3.82V45h5l40,60h29.92V95ZM20,70a5,5,0,1,1,5-5A5,5,0,0,1,20,70Z"/>
  <path class="cls-1" d="M120,130a5,5,0,1,1-5,5,5,5,0,0,1,5-5m0-10a15,15,0,1,0,15,15,15,15,0,0,0-15-15Z"/>
  <path class="cls-2" d="M156.77,90,146.5,33.2H103.2v60H81l-40-60H18.2V51.82H20A13.2,13.2,0,1,1,6.8,65H3.2a16.8,16.8,0,1,0,18.6-16.7V36.8H39l40,60H103.2v6.4H5v3.6H106.8v-70h36.7l9.67,53.36v43H136.7a16.82,16.82,0,0,0-16.7-15v3.6A13.2,13.2,0,1,1,106.8,135v-1.8H80v3.6h23.3a16.8,16.8,0,0,0,33.4,0h20.07Z"/>
  <polygon class="cls-2" points="118.2 45 118.2 91.8 144.98 91.8 144.98 88.2 121.8 88.2 121.8 45 118.2 45"/>
  <path class="cls-1" d="M40,130a5,5,0,1,1-5,5,5,5,0,0,1,5-5m0-10a15,15,0,1,0,15,15,15,15,0,0,0-15-15Z"/>
  <path class="cls-2" d="M40,151.8a16.82,16.82,0,0,1-16.7-15H5v-3.6H26.8V135A13.2,13.2,0,1,0,40,121.8v-3.6a16.8,16.8,0,0,1,0,33.6Z"/>
</svg>
