<svg data-name="Layer 1" xmlns="http://www.w3.org/2000/svg" viewBox="0 0 160 160">
  <defs>
    <style>
      .cls-1 {
        fill: #ec0c21;
      }

      .cls-2 {
        fill: #403c3c;
      }
    </style>
  </defs>
  <polygon class="cls-1" points="109.5 71.2 89.5 71.2 89.5 51.2 69.5 51.2 69.5 71.2 49.5 71.2 49.5 91.2 69.5 91.2 69.5 111.2 89.5 111.2 89.5 91.2 109.5 91.2 109.5 71.2"/>
  <g>
    <path class="cls-2" d="M138,82.1c0,27-15.1,44.2-27.7,53.8-13.9,10.6-28.4,15-30.5,15.1-2.1-.1-16.6-4.5-30.5-15.1-12.6-9.6-27.7-26.7-27.7-53.8V29.6c31.1-.4,48.7-10.4,58.2-19.3,9.7,9.1,27.8,19.3,60,19.3v-3.6c-32.5,0-49.9-10.6-58.8-19.5l-1.3-1.3-1.3,1.3c-8.9,8.9-26.3,19.5-58.7,19.5h-1.8v56.1c0,53.9,56.4,72.3,61.9,72.5,5.4-.2,61.7-18.6,61.8-72.5h-3.6Z"/>
    <polygon class="cls-2" points="49.5 69.4 49.5 73 71.3 73 71.3 51.2 67.7 51.2 67.7 69.4 49.5 69.4"/>
    <polygon class="cls-2" points="91.3 111.2 91.3 93 109.5 93 109.5 89.4 87.7 89.4 87.7 111.2 91.3 111.2"/>
  </g>
</svg>