<svg data-name="Layer 1" xmlns="http://www.w3.org/2000/svg" viewBox="0 0 160 160">
  <defs>
    <style>
      .cls-1 {
        fill: #ec0c21;
      }

      .cls-2 {
        fill: #403c3c;
      }
    </style>
  </defs>

  <path class="cls-1" d="M130,25V142a8,8,0,0,1-8,8H40V140h80V25Z"/>
  <path class="cls-2" d="M122,151.8H40v-3.6h82a6.21,6.21,0,0,0,6.2-6.2V25h3.6V142A9.82,9.82,0,0,1,122,151.8Z"/>
  <path class="cls-2" d="M121.8,141.8H28.2V13.2h93.6Zm-90-3.6h86.4V16.8H31.8Z"/>
  <path class="cls-2" d="M98.26,55V78.2H71.86V61.75c0-4.71-4.17-8.55-9.3-8.55s-9.3,3.84-9.3,8.55V78.2h-3.2v3.6h51.8V55Zm-41.4,6.75c0-2.73,2.56-5,5.7-5s5.7,2.22,5.7,5V78.2H56.86Z"/>
  <path class="cls-2" d="M101.86,45.74V28.2H88.26v8.47L75,27.84,44.07,48.36l2,3,29-19.2L104,51.5l2-3Zm-10-13.94h6.4V43.34l-6.4-4.27Z"/>
  <rect class="cls-1" x="80.06" y="60" width="10" height="5"/>
  <path class="cls-2" d="M91.86,66.8H78.26V53.2h13.6Zm-10-3.6h6.4V56.8h-6.4Z"/>
  <rect class="cls-2" x="50" y="98.2" width="50" height="3.6"/>
  <rect class="cls-2" x="50" y="108.2" width="50" height="3.6"/>
  <rect class="cls-2" x="50" y="118.2" width="25" height="3.6"/>
</svg>
