<svg data-name="Layer 1" xmlns="http://www.w3.org/2000/svg" viewBox="0 0 160 160">
  <polygon points="80.1 25 25.1 40 80.1 55 135.1 40 80.1 25" style="fill: #ec0c21"/>
  <g>
    <polygon points="115.573 32.809 114.626 36.282 133.3 41.375 133.3 113.625 80.1 128.134 26.9 113.625 26.9 100 23.3 100 23.3 116.375 79.626 131.737 80.1 131.866 136.9 116.375 136.9 38.625 115.573 32.809" style="fill: #403c3c"/>
    <polygon points="26.9 41.375 80.1 26.866 94.626 30.827 95.573 27.355 80.1 23.134 23.3 38.625 23.3 85 26.9 85 26.9 41.375" style="fill: #403c3c"/>
  </g>
  <polygon points="81.9 130 78.3 130 78.3 56.375 24.626 41.737 25.573 38.264 81.9 53.625 81.9 130" style="fill: #403c3c"/>
</svg>
