<svg xmlns="http://www.w3.org/2000/svg" viewBox="0 0 160 160">
  <defs>
    <style>
      .bfe96993-c813-4c27-b5d2-a7594f9c7673 {
        fill: none;
      }

      .bef33909-4fa3-4fe6-9be3-1fa2a0e58686 {
        fill: #ec0c21;
      }

      .b7231d94-fe6e-4f7a-a008-a86f0ec3a059 {
        fill: #403c3c;
      }
    </style>
  </defs>
  <g data-name="white bg">
    <rect class="bfe96993-c813-4c27-b5d2-a7594f9c7673" x="-0.1" width="160" height="160"/>
  </g>
  <g data-name="Layer 1">
    <path class="bef33909-4fa3-4fe6-9be3-1fa2a0e58686" d="M35,5V125h90V5ZM80,90a30,30,0,1,1,30-30A30,30,0,0,1,80,90Z"/>
    <g>
      <path class="b7231d94-fe6e-4f7a-a008-a86f0ec3a059" d="M36.8,91.81H80A31.84,31.84,0,0,0,111.8,60h-3.6A28.23,28.23,0,0,1,80,88.21H36.8V60H33.2v28.2H9.35L19.53,78,17,75.48,2.45,90,17,104.54,19.53,102,9.35,91.81H33.2v65H125v-3.6H36.8v-26.4H125v-3.6H36.8Z"/>
      <path class="b7231d94-fe6e-4f7a-a008-a86f0ec3a059" d="M143,15.48,140.47,18l10.18,10.19H126.8v-25H35v3.6h88.2v21.4H80A31.84,31.84,0,0,0,48.2,60h3.6A28.23,28.23,0,0,1,80,31.81h43.2V60h3.6V31.81h23.85L140.47,42,143,44.54,157.55,30Z"/>
      <rect class="b7231d94-fe6e-4f7a-a008-a86f0ec3a059" x="77.89" y="75.6" width="4.26" height="4.42"/>
      <polygon class="b7231d94-fe6e-4f7a-a008-a86f0ec3a059" points="81.98 40.82 78.06 40.82 78.51 69.72 81.47 69.72 81.98 40.82"/>
      <circle class="b7231d94-fe6e-4f7a-a008-a86f0ec3a059" cx="79.99" cy="140" r="5"/>
    </g>
  </g>
</svg>
