<svg data-name="Layer 1" xmlns="http://www.w3.org/2000/svg" viewBox="0 0 160 160">
  <path d="M80,15h0A30,30,0,0,0,50,45V60h60V45A30,30,0,0,0,80,15Z" style="fill: #ec0c21"/>
  <g>
    <path d="M121.8,85V75h-3.6V85a38.2,38.2,0,0,1-76.4,0V75H38.2V85a41.846,41.846,0,0,0,40,41.754V148.2H50v3.6h60v-3.6H81.8V126.754A41.846,41.846,0,0,0,121.8,85Z" style="fill: #403c3c"/>
    <path d="M80,116.8A31.837,31.837,0,0,0,111.8,85V45A31.837,31.837,0,0,0,80,13.2v3.6A28.231,28.231,0,0,1,108.2,45V68.2H60v3.6h48.2V85a28.2,28.2,0,0,1-56.4,0V61.8H100V58.2H48.2V85A31.837,31.837,0,0,0,80,116.8Z" style="fill: #403c3c"/>
  </g>
</svg>
