<svg data-name="Layer 1" xmlns="http://www.w3.org/2000/svg" viewBox="0 0 160 160">
  <defs>
    <style>
      .cls-1 {
        fill: #403c3c;
      }

      .cls-2 {
        fill: #ec0c21;
      }
    </style>
  </defs>

  <rect class="cls-1" x="13.16" y="79.95" width="3.6" height="10"/>
  <polygon class="cls-2" points="135.06 100.07 95.01 59.98 84.9 70.01 99.91 85.03 79.99 105.06 104.98 130.08 135.06 100.07"/>
  <rect class="cls-1" x="90.37" y="66.9" width="4.08" height="21.23" transform="translate(-27.76 87.99) rotate(-44.97)"/>
  <polygon class="cls-1" points="96.45 58.54 93.56 61.42 157.04 125.01 157.04 32.96 2.96 32.96 2.96 136.98 109.02 136.98 128.46 156.44 131.34 153.56 110.74 132.94 110.74 132.91 110.71 132.91 107.88 130.07 126.53 111.51 123.66 108.62 105 127.19 81.44 103.61 78.56 106.49 95.12 123.08 26.83 123.08 26.83 46.67 145.03 46.67 145.03 43.08 23.23 43.08 23.23 126.67 98.72 126.67 104.94 132.91 7.04 132.91 7.04 37.04 152.96 37.04 152.96 115.15 96.45 58.54"/>
</svg>
