<svg data-name="Layer 1" xmlns="http://www.w3.org/2000/svg" viewBox="0 0 160 160">
  <defs>
    <style>
      .cls-1 {
        fill: #ec0c21;
      }

      .cls-2 {
        fill: #403c3c;
      }
    </style>
  </defs>
  <rect class="cls-1" x="45" y="90" width="35" height="65"/>
  <polygon class="cls-2" points="143.31 85.63 128.63 46.47 80 31.88 31.37 46.47 16.69 85.63 13.31 84.37 28.63 43.53 80 28.12 131.37 43.53 146.69 84.37 143.31 85.63"/>
  <path class="cls-2" d="M80,76.8A16.8,16.8,0,1,1,96.8,60,16.82,16.82,0,0,1,80,76.8Zm0-30A13.2,13.2,0,1,0,93.2,60,13.21,13.21,0,0,0,80,46.8Z"/>
  <path class="cls-2" d="M141.8,153.2V85h-3.6v68.2H116.8v-65H43.2V125h3.6V97.14L77,153.2H21.8V85H18.2v68.2H5v3.6H155v-3.6Zm-63.6-5.34L48,91.8H78.2Zm35,5.34H81.8V91.8h31.4Z"/>
</svg>
