<svg data-name="Layer 1" xmlns="http://www.w3.org/2000/svg" viewBox="0 0 160 160">
  <defs>
    <style>
      .cls-1 {
        fill: #ec0c21;
      }

      .cls-2 {
        fill: #403c3c;
      }
    </style>
  </defs>
  <g>
    <path class="cls-1" d="M147,14.93H13a8,8,0,0,0-8,8v72H155v-72A8,8,0,0,0,147,14.93Zm-67,70a25,25,0,1,1,25-25A25,25,0,0,1,80,84.92Z"/>
    <path class="cls-1" d="M65,59.91a10,10,0,0,0,10,10v-20A10,10,0,0,0,65,59.91Z"/>
    <path class="cls-1" d="M84.8,49.91v20a10,10,0,0,0,0-20Z"/>
  </g>
  <g>
    <rect class="cls-2" x="40" y="143.26" width="80" height="3.6"/>
    <path class="cls-2" d="M6.8,61.71H63.35A11.81,11.81,0,0,0,75,71.71v-3.6a8.2,8.2,0,0,1,0-16.4v-3.6a11.81,11.81,0,0,0-11.65,10H6.8V22.9A6.19,6.19,0,0,1,13,16.73H80v-3.6H13A9.79,9.79,0,0,0,3.2,22.9V70H6.8Z"/>
    <path class="cls-2" d="M153.2,50v8.11H96.45a11.81,11.81,0,0,0-11.65-10H83V53.2H80v3.6h6.6V51.9a8.21,8.21,0,0,1,0,16V63.2H80v3.6h3v4.91h1.8a11.81,11.81,0,0,0,11.65-10H153.2V93.12H5v3.6H153.2V111.9a6.22,6.22,0,0,1-6.2,6.23H13a6.22,6.22,0,0,1-6.2-6.23V110H3.2v1.91a9.83,9.83,0,0,0,9.8,9.83H78.18V134.9h3.6V121.73H147a9.83,9.83,0,0,0,9.8-9.83V50Z"/>
  </g>
</svg>
