<svg data-name="Layer 1" xmlns="http://www.w3.org/2000/svg" viewBox="0 0 160 160">
  <defs>
    <style>
      .cls-1 {
        fill: #ec0c21;
      }

      .cls-2 {
        fill: #403c3c;
      }
    </style>
  </defs>
  <path class="cls-1" d="M135,80A55,55,0,1,1,80,25V80Z"/>
  <path class="cls-2" d="M148.2,80.2A68.2,68.2,0,1,1,80,12V8.35A71.85,71.85,0,1,0,151.8,80.2Z"/>
  <polygon class="cls-2" points="105 81.76 78.24 81.76 78.24 45 81.84 45 81.84 78.16 105 78.16 105 81.76"/>
  <polygon class="cls-2" points="95 70.03 110 80.02 95 90 95 70.03"/>
  <polygon class="cls-2" points="89.95 49.95 79.96 35 70 49.95 89.95 49.95"/>
  <path class="cls-2" d="M82.42,121.43v4H79v-4c-4.61-.68-8.24-4.19-8.88-9.77l0-.47h3.59c.57,4.32,3.54,6.94,7.12,6.94,3.76,0,6.21-1.91,6.21-4.87,0-7.61-15.85-3.21-15.85-14.25,0-4.15,3.17-7.11,7.86-7.66v-4h3.47v4a9.07,9.07,0,0,1,8,8.12l0,.21h-3.6a6.06,6.06,0,0,0-6.32-5c-3.51,0-5.63,1.65-5.63,4.32,0,7.27,15.9,2.66,15.9,14.21C90.83,117.71,87.53,120.84,82.42,121.43Z"/>
  <path class="cls-2" d="M80,136.79v-3.6A53.2,53.2,0,1,0,26.8,80H23.2A56.8,56.8,0,1,1,80,136.79Z"/>
</svg>
