<svg xmlns="http://www.w3.org/2000/svg" viewBox="0 0 160 160">
  <defs>
    <style>
      .e4284870-35b3-4f4d-a0ad-285112a6f313 {
        fill: none;
      }

      .e8194e4b-934b-43a4-a95b-bb5f95cf2780 {
        fill: #ec0c21;
      }

      .ba6864d7-4a01-454a-816f-e9785c499de2 {
        fill: #403c3c;
      }
    </style>
  </defs>
  <g data-name="white bg">
    <rect class="e4284870-35b3-4f4d-a0ad-285112a6f313" x="-0.1" width="160" height="160"/>
  </g>
  <g data-name="Layer 1">
    <g>
      <circle class="e8194e4b-934b-43a4-a95b-bb5f95cf2780" cx="45" cy="65" r="10"/>
      <circle class="e8194e4b-934b-43a4-a95b-bb5f95cf2780" cx="125" cy="110" r="10"/>
    </g>
    <g>
      <polygon class="ba6864d7-4a01-454a-816f-e9785c499de2" points="93.2 50 96.8 50 96.8 41.8 105 41.8 105 38.2 96.8 38.2 96.8 30 93.2 30 93.2 38.2 85 38.2 85 41.8 93.2 41.8 93.2 50"/>
      <polygon class="ba6864d7-4a01-454a-816f-e9785c499de2" points="36.8 135 36.8 126.8 45 126.8 45 123.2 36.8 123.2 36.8 115 33.2 115 33.2 123.2 25 123.2 25 126.8 33.2 126.8 33.2 135 36.8 135"/>
      <path class="ba6864d7-4a01-454a-816f-e9785c499de2" d="M45,76.8A11.81,11.81,0,0,0,56.8,65H53.2A8.2,8.2,0,1,1,45,56.8V53.2a11.8,11.8,0,0,0,0,23.6Z"/>
      <path class="ba6864d7-4a01-454a-816f-e9785c499de2" d="M125,101.8V98.2A11.8,11.8,0,1,0,136.8,110h-3.6a8.2,8.2,0,1,1-8.2-8.2Z"/>
      <polygon class="ba6864d7-4a01-454a-816f-e9785c499de2" points="11.8 143.2 11.8 120.75 45.75 86.8 100.75 86.8 148.2 39.34 148.2 55 151.8 55 151.8 33.2 130 33.2 130 36.8 145.66 36.8 99.25 83.2 44.25 83.2 11.8 115.66 11.8 10 8.2 10 8.2 146.8 155 146.8 155 143.2 11.8 143.2"/>
    </g>
  </g>
</svg>
