<svg data-name="Layer 1" xmlns="http://www.w3.org/2000/svg" viewBox="0 0 160 160">
  <defs>
    <style>
      .cls-1 {
        fill: #ec0c21;
      }

      .cls-2 {
        fill: #403c3c;
      }
    </style>
  </defs>
  <path class="cls-1" d="M125,86.43V73.57h-9a36.48,36.48,0,0,0-6-14.51l6.34-6.33-9.1-9.1L100.94,50a36.48,36.48,0,0,0-14.51-6V35H73.57v9a36.48,36.48,0,0,0-14.51,6l-6.33-6.34-9.1,9.1L50,59.06a36.48,36.48,0,0,0-6,14.51H35V86.43h9a36.48,36.48,0,0,0,6,14.51l-6.34,6.33,9.1,9.1L59.06,110a36.22,36.22,0,0,0,9.07,4.61,38.09,38.09,0,0,0,5.44,1.41v9H86.43v-9a36.48,36.48,0,0,0,14.51-6l6.33,6.34,9.1-9.1L110,100.94a36.48,36.48,0,0,0,6-14.51ZM80,99.29A19.29,19.29,0,1,1,99.29,80,19.29,19.29,0,0,1,80,99.29Z"/>
  <g>
    <path class="cls-2" d="M79.33,98.24h-29a34.39,34.39,0,0,1-4.61-12.13l-.27-1.48H36.8V75.37h8.66l.27-1.48a34.25,34.25,0,0,1,5.71-13.8l.87-1.24-6.13-6.12,6.55-6.55,6.12,6.13,1.24-.87a34.25,34.25,0,0,1,13.8-5.71l1.48-.27V36.8H80V33.2H71.77v9.27a37.8,37.8,0,0,0-12.48,5.18l-6.56-6.56L41.09,52.73l6.56,6.55a37.71,37.71,0,0,0-5.17,12.49H33.2V88.23h9.28a37.93,37.93,0,0,0,3.71,10H11.84l11.1-11.1L20.39,84.6,5,100l15.44,15.43,2.55-2.54-11.1-11.09H46.53l-5.44,5.43,11.64,11.64,6.56-6.56a37.62,37.62,0,0,0,12.48,5.17v9.28H80v-3.6H75.37v-8.66l-1.49-.27a35.66,35.66,0,0,1-5.17-1.33,34.67,34.67,0,0,1-8.62-4.38l-1.24-.87-6.12,6.13-6.55-6.55,5.44-5.43H79.33A21.87,21.87,0,0,0,101.17,80h-3.6A18.26,18.26,0,0,1,79.33,98.24Z"/>
    <path class="cls-2" d="M139.67,44.57l-2.54,2.54,11.09,11.1H80.8A21.87,21.87,0,0,0,59,80.05h3.6A18.26,18.26,0,0,1,80.8,61.81h67.42l-11.09,11.1,2.54,2.54L155.11,60Z"/>
  </g>
</svg>
