<svg data-name="Layer 1" xmlns="http://www.w3.org/2000/svg" viewBox="0 0 160 160">
  <defs>
    <style>
      .cls-1 {
        fill: #ec0c21;
      }

      .cls-2 {
        fill: #403c3c;
      }
    </style>
  </defs>

  <rect class="cls-1" x="45" y="20" width="70" height="90"/>
  <polygon class="cls-2" points="116.8 65.08 113.2 65.08 113.2 21.8 45 21.8 45 18.2 116.8 18.2 116.8 65.08"/>
  <polygon class="cls-2" points="115.04 111.8 115.04 108.2 46.8 108.2 46.8 64.98 43.2 64.98 43.2 141.8 115.04 141.8 115.04 138.2 46.8 138.2 46.8 111.8 115.04 111.8"/>
  <circle class="cls-2" cx="80" cy="125" r="5"/>
  <path class="cls-2" d="M141.51,118.81l-2.63-2.47a52.92,52.92,0,0,0,0-72.4l2.63-2.46a56.53,56.53,0,0,1,0,77.33Z"/>
  <path class="cls-2" d="M18.49,118.81a56.53,56.53,0,0,1,0-77.33l2.63,2.46a52.92,52.92,0,0,0,0,72.4Z"/>
  <path class="cls-2" d="M133.24,101.8l-2.63-2.46a28.07,28.07,0,0,0,0-38.39l2.63-2.46a31.67,31.67,0,0,1,0,43.31Z"/>
  <path class="cls-2" d="M26.76,101.8a31.67,31.67,0,0,1,0-43.31L29.39,61a28.07,28.07,0,0,0,0,38.39Z"/>
</svg>
