<svg data-name="Layer 1" xmlns="http://www.w3.org/2000/svg" viewBox="0 0 160 160">
  <defs>
    <style>
      .cls-1 {
        fill: #ec0c21;
      }

      .cls-2 {
        fill: #403c3c;
      }
    </style>
  </defs>
  <path class="cls-1" d="M35,90a20,20,0,1,0,20,20A20,20,0,0,0,35,90Zm0,30a10,10,0,1,1,10-10A10,10,0,0,1,35,120Z"/>
  <polygon class="cls-2" points="156.75 96.77 144.95 96.77 144.95 93.17 153.15 93.17 153.15 81.38 114.52 71.73 115.4 68.24 156.75 78.57 156.75 96.77"/>
  <path class="cls-2" d="M35,121.77A11.8,11.8,0,1,1,46.8,110H43.2a8.2,8.2,0,1,0-8.2,8.2Z"/>
  <path class="cls-1" d="M120,90a20,20,0,1,0,20,20A20,20,0,0,0,120,90Zm0,30a10,10,0,1,1,10-10A10,10,0,0,1,119.94,120Z"/>
  <path class="cls-2" d="M120,121.77a11.8,11.8,0,1,1,11.8-11.8h-3.6a8.2,8.2,0,1,0-8.2,8.2Z"/>
  <path class="cls-2" d="M153.15,105v2a6.21,6.21,0,0,1-6.2,6.2H141.5a22.42,22.42,0,0,0,.23-3.2A21.79,21.79,0,0,0,120,88.19v3.59A18.18,18.18,0,1,1,101.78,110h-3.6a21,21,0,0,0,.24,3.2H56.54a21,21,0,0,0,.24-3.2A21.8,21.8,0,0,0,35,88.19v3.59A18.18,18.18,0,1,1,16.83,110h-3.6a22.42,22.42,0,0,0,.23,3.2H13A6.21,6.21,0,0,1,6.8,107V70.47L22,44A14.21,14.21,0,0,1,34.28,36.8H77.81A14.22,14.22,0,0,1,88.4,41.54l18.95,21.22a3.28,3.28,0,0,1-2.48,5.42H61.78V40h-3.6V68.18H15v3.6h89.87a6.88,6.88,0,0,0,5.19-11.4l-19-21.24A17.83,17.83,0,0,0,77.81,33.2H34.28a17.85,17.85,0,0,0-15.46,9L3.2,69.51V107a9.82,9.82,0,0,0,9.8,9.8h1.32a21.77,21.77,0,0,0,41.37,0H99.27a21.77,21.77,0,0,0,41.37,0H147a9.82,9.82,0,0,0,9.8-9.8v-2Z"/>
  <rect class="cls-2" x="59.99" y="77.91" width="15.02" height="3.6"/>
</svg>
