<svg data-name="Layer 1" xmlns="http://www.w3.org/2000/svg" viewBox="0 0 160 160">
  <defs>
    <style>
      .cls-1 {
        fill: #ec0c21;
      }

      .cls-2 {
        fill: #403c3c;
      }
    </style>
  </defs>

  <rect class="cls-1" x="15" y="10" width="10" height="30"/>
  <rect class="cls-1" x="55" y="10" width="10" height="30"/>
  <circle class="cls-1" cx="125" cy="107.5" r="12.5"/>
  <polygon class="cls-1" points="155 30 135 30 135 10 114.97 10 114.97 30 95 30 95 50.03 114.97 50.03 114.97 70 135 70 135 50 155 50 155 30"/>
  <polygon class="cls-2" points="116.77 31.8 95 31.8 95 28.2 113.17 28.2 113.17 8.2 135 8.2 135 11.8 116.77 11.8 116.77 31.8"/>
  <polygon class="cls-2" points="136.78 71.8 115 71.8 115 68.2 133.18 68.2 133.18 48.2 155 48.2 155 51.8 136.78 51.8 136.78 71.8"/>
  <path class="cls-2" d="M139.3,107.5h-3.6A10.7,10.7,0,1,1,125,96.8V93.2a14.29,14.29,0,0,0-1.8,28.47V139A14.22,14.22,0,0,1,109,153.2H56A14.22,14.22,0,0,1,41.8,139V91.74A36.82,36.82,0,0,0,76.77,55l0-31.8h-10V10.11H63.2V40h3.6V26.8h6.4l0,28.2A33.19,33.19,0,1,1,6.8,55V26.8h6.4V40h3.6V10.11H13.2V23.2H3.2V55a36.83,36.83,0,0,0,35,36.74V139A17.82,17.82,0,0,0,56,156.8h53A17.82,17.82,0,0,0,126.8,139V121.67A14.31,14.31,0,0,0,139.3,107.5Z"/>
</svg>
