<svg data-name="Layer 1" xmlns="http://www.w3.org/2000/svg" viewBox="0 0 160 160">
  <defs>
    <style>
      .cls-1 {
        fill: #ec0c21;
      }

      .cls-2 {
        fill: #403c3c;
      }
    </style>
  </defs>

  <path class="cls-1" d="M100,49.64C100,69.28,80,85,80,85S60,69.28,60,49.64a20,20,0,0,1,40,0Z"/>
  <path class="cls-2" d="M78.87,86.4a67.54,67.54,0,0,1-10.3-10.61c-6.79-8.67-10.38-17.72-10.38-26.15a21.8,21.8,0,0,1,43.59,0V50h-3.6v-.4a18.2,18.2,0,0,0-36.39,0c0,18.51,19.12,33.78,19.31,33.93Z"/>
  <path class="cls-2" d="M121.77,8.2H40v3.6h78.17v90.29a86.45,86.45,0,0,0-76.37,0V50H38.2V151.8h81.85v-3.6H41.8V121.8h80Zm-80,110V106.13a82.81,82.81,0,0,1,76.37,0V118.2Z"/>
  <circle class="cls-2" cx="79.99" cy="135" r="5"/>
</svg>
