<svg xmlns="http://www.w3.org/2000/svg" viewBox="0 0 160 160">
  <defs>
    <style>
      .e01600e3-6973-43e1-a84f-2be516518316 {
        fill: #ec0c21;
      }

      .eeb38bf8-11b2-4d01-b6a4-8225ce4d07b5 {
        fill: #403c3c;
      }
    </style>
  </defs>
  <g data-name="Layer 1">
    <g>
      <g>
        <rect class="e01600e3-6973-43e1-a84f-2be516518316" x="15" y="20" width="30" height="50"/>
        <rect class="e01600e3-6973-43e1-a84f-2be516518316" x="90" y="115" width="50" height="30"/>
        <rect class="e01600e3-6973-43e1-a84f-2be516518316" x="65.1" y="54.9" width="50" height="30" transform="translate(-23.03 84.19) rotate(-45)"/>
      </g>
      <g>
        <path class="eeb38bf8-11b2-4d01-b6a4-8225ce4d07b5" d="M100,103.2v3.6h48.2v46.4H53.45A11.79,11.79,0,0,0,56.8,145h0V70.39L97.18,30,130,62.82l-70.9,70.91,2.55,2.54,73.45-73.45-37.9-37.9L56.8,65.3V8.2H3.2V145A11.87,11.87,0,0,0,15.05,156.8H151.8V103.2Zm-84.95,50A8.26,8.26,0,0,1,6.8,145V11.8H53.2V145A8.24,8.24,0,0,1,45,153.2Z"/>
        <polygon class="eeb38bf8-11b2-4d01-b6a4-8225ce4d07b5" points="110 143.2 110 146.8 141.8 146.8 141.8 113.2 88.2 113.2 88.2 125 91.8 125 91.8 116.8 138.2 116.8 138.2 143.2 110 143.2"/>
        <rect class="eeb38bf8-11b2-4d01-b6a4-8225ce4d07b5" x="78.2" y="125" width="3.6" height="20"/>
        <rect class="eeb38bf8-11b2-4d01-b6a4-8225ce4d07b5" x="66.18" y="85.98" width="3.6" height="22.57" transform="translate(-48.87 76.56) rotate(-45)"/>
        <rect class="eeb38bf8-11b2-4d01-b6a4-8225ce4d07b5" x="62.65" y="101.59" width="3.6" height="12.57" transform="translate(-57.4 77.14) rotate(-44.99)"/>
        <polygon class="eeb38bf8-11b2-4d01-b6a4-8225ce4d07b5" points="76.27 88.88 73.73 91.42 83.03 100.73 120.93 62.83 98.45 40.34 95.9 42.88 115.84 62.83 83.03 95.64 76.27 88.88"/>
        <polygon class="eeb38bf8-11b2-4d01-b6a4-8225ce4d07b5" points="43.2 68.2 16.8 68.2 16.8 21.8 45 21.8 45 18.2 13.2 18.2 13.2 71.8 46.8 71.8 46.8 45 43.2 45 43.2 68.2"/>
        <path class="eeb38bf8-11b2-4d01-b6a4-8225ce4d07b5" d="M39.3,130H35.7A5.72,5.72,0,0,1,34,134.07a6.49,6.49,0,0,1-.82.67l-.11.06a6.32,6.32,0,0,1-.89.47l-.08,0a5.73,5.73,0,0,1-1,.29h0a5.66,5.66,0,0,1-2.17,0h0a5.3,5.3,0,0,1-1-.3l-.07,0a6.42,6.42,0,0,1-.9-.47l-.1-.06a6.4,6.4,0,0,1-.81-.67l-.09-.09a5.31,5.31,0,0,1-.64-.78l-.08-.13a5,5,0,0,1-.46-.85.56.56,0,0,1,0-.12,5.34,5.34,0,0,1-.3-1,.2.2,0,0,0,0-.07,6.36,6.36,0,0,1-.1-1.07,6.48,6.48,0,0,1,.1-1.08.13.13,0,0,0,0-.06,5.34,5.34,0,0,1,.3-1,.36.36,0,0,1,0-.11,4.83,4.83,0,0,1,.46-.87l.07-.11a5.5,5.5,0,0,1,.66-.8A5.68,5.68,0,0,1,30,124.3v-3.6a9.24,9.24,0,0,0-6.57,2.73h0A9.25,9.25,0,0,0,20.76,129a.13.13,0,0,0,0,.06c0,.32-.05.63-.05.95s0,.63.05.95a.11.11,0,0,0,0,.05,9.22,9.22,0,0,0,2.66,5.58,9.92,9.92,0,0,0,2,1.51l.18.1.52.25.32.15.4.15.47.16.28.07a6.23,6.23,0,0,0,.62.15l.12,0a8.8,8.8,0,0,0,3.34,0l.12,0a6.23,6.23,0,0,0,.62-.15l.28-.07.47-.16.4-.15.32-.15.52-.25.18-.1a9.92,9.92,0,0,0,2-1.51h0A9.24,9.24,0,0,0,39.3,130Z"/>
        <rect class="eeb38bf8-11b2-4d01-b6a4-8225ce4d07b5" x="15" y="78.2" width="30" height="3.6"/>
        <rect class="eeb38bf8-11b2-4d01-b6a4-8225ce4d07b5" x="15" y="88.2" width="30" height="3.6"/>
      </g>
    </g>
  </g>
</svg>
