<svg xmlns="http://www.w3.org/2000/svg" viewBox="0 0 160 160">
  <defs>
    <style>
      .a1e33c43-e53f-4f59-badd-be794733dd10 {
        fill: none;
      }

      .f2ca2761-9582-4cde-b65c-5b86c563cb34 {
        fill: #ec0c21;
      }

      .ad609406-3e4f-4f8d-98ae-2a2283979270 {
        fill: #403c3c;
      }
    </style>
  </defs>
  <g data-name="white bg">
    <rect class="a1e33c43-e53f-4f59-badd-be794733dd10" x="-0.1" width="160" height="160"/>
  </g>
  <g data-name="Layer 1">
    <path class="f2ca2761-9582-4cde-b65c-5b86c563cb34" d="M35.3,140H125c-1.4-6.61-28.46-18.33-39.86-23V80h.12a8.49,8.49,0,0,1,4.37-7.43l18.78-10.43c8.93-5,13.42-12.88,15.44-22.14H36.68C38.43,48,42,55,48.79,60h-.13l.64.36a29.36,29.36,0,0,0,2.82,1.78l13.53,7.52,5.13,2.91A8.49,8.49,0,0,1,75.15,80v37C63.75,121.67,36.69,133.39,35.3,140Z"/>
    <path class="ad609406-3e4f-4f8d-98ae-2a2283979270" d="M37,140h-3.6v-5c0-12.38,1.84-29.86,17.78-38.71L69.91,85.86a6.7,6.7,0,0,0,0-11.71L51.13,63.71C35.19,54.86,33.35,37.38,33.35,25V20H37v5C37,43.23,42,54.53,52.88,60.57L71.65,71a10.29,10.29,0,0,1,0,18L52.88,99.43C42,105.47,37,116.77,37,135Z"/>
    <path class="ad609406-3e4f-4f8d-98ae-2a2283979270" d="M127,140h-3.6v-5c0-18.23-5.06-29.53-15.93-35.57L88.65,89a10.29,10.29,0,0,1,0-18l18.77-10.43c10.87-6,15.93-17.34,15.93-35.57V20H127v5c0,12.38-1.84,29.86-17.78,38.71L90.4,74.15a6.69,6.69,0,0,0,0,11.71l18.77,10.43C125.11,105.14,127,122.62,127,135Z"/>
    <path class="ad609406-3e4f-4f8d-98ae-2a2283979270" d="M127,140h-3.6v-5c0-18.23-5.06-29.53-15.93-35.57L88.65,89a10.29,10.29,0,0,1,0-18l18.77-10.43c10.87-6,15.93-17.34,15.93-35.57V20H127v5c0,12.38-1.84,29.86-17.78,38.71L90.4,74.15a6.69,6.69,0,0,0,0,11.71l18.77,10.43C125.11,105.14,127,122.62,127,135Z"/>
    <g>
      <rect class="ad609406-3e4f-4f8d-98ae-2a2283979270" x="24.85" y="148.2" width="110.3" height="3.6"/>
      <path class="ad609406-3e4f-4f8d-98ae-2a2283979270" d="M69.91,85.86,51.13,96.29C35.19,105.14,33.35,122.62,33.35,135v6.8H80v-3.6H37V135c0-18.23,5.06-29.53,15.93-35.57L71.65,89a10.29,10.29,0,0,0,0-18L52.88,60.57C42,54.53,37,43.23,37,25V20h-3.6v5c0,12.38,1.84,29.86,17.78,38.71L69.91,74.15a6.7,6.7,0,0,1,0,11.71Z"/>
      <polygon class="ad609406-3e4f-4f8d-98ae-2a2283979270" points="23.35 8.2 23.35 20 26.95 20 26.95 11.8 133.35 11.8 133.35 20 136.95 20 136.95 8.2 23.35 8.2"/>
    </g>
  </g>
</svg>
