<svg xmlns="http://www.w3.org/2000/svg" viewBox="0 0 160 160">
  <defs>
    <style>
      .b85e09c5-4fcc-433d-9390-55e54d0afe08 {
        fill: none;
      }

      .a4c03086-5c16-48d4-91ff-29ba0d6d0683 {
        fill: #ec0c21;
      }

      .b80e338d-6195-48ed-9caf-19c387a7c3be {
        fill: #403c3c;
      }
    </style>
  </defs>
  <g data-name="white bg">
    <rect class="b85e09c5-4fcc-433d-9390-55e54d0afe08" x="-0.1" width="160" height="160"/>
  </g>
  <g data-name="Layer 1">
    <path class="a4c03086-5c16-48d4-91ff-29ba0d6d0683" d="M110,39.25a15,15,0,1,0,15,15A15,15,0,0,0,110,39.25Zm0,22.5a7.5,7.5,0,1,1,7.5-7.5A7.5,7.5,0,0,1,110,61.75Z"/>
    <polygon class="a4c03086-5c16-48d4-91ff-29ba0d6d0683" points="45 74.19 30 71.19 30 36.91 45 34.91 45 74.19"/>
    <g>
      <path class="b80e338d-6195-48ed-9caf-19c387a7c3be" d="M131.53,31.27a31.32,31.32,0,0,0-24.14-7.9l-79.19,12V73.46l65.87,10,3.79,53.61a5,5,0,0,0,5,4.7,5,5,0,0,0,2.26-.53l12.91-6.46a6.69,6.69,0,0,0,3.72-6V83.55a31.22,31.22,0,0,0,9.73-52.28Zm-12,49.3-1.28.4v47.77a3.1,3.1,0,0,1-1.73,2.8L103.56,138a1.46,1.46,0,0,1-2.11-1.2L97.72,84l7,1.07.54-3.56-20-3h0L31.8,70.37V38.46l11.44-1.73-.08,25.05,3.6,0,.08-25.62,61-9.24a27.62,27.62,0,0,1,11.64,53.63Z"/>
      <path class="b80e338d-6195-48ed-9caf-19c387a7c3be" d="M110,37.49a16.82,16.82,0,0,0-16.8,16.8h3.6A13.21,13.21,0,0,1,110,41.09Z"/>
      <path class="b80e338d-6195-48ed-9caf-19c387a7c3be" d="M110,67.49v3.6a16.82,16.82,0,0,0,16.8-16.8h-3.6A13.21,13.21,0,0,1,110,67.49Z"/>
    </g>
  </g>
</svg>
