<svg data-name="Layer 1" xmlns="http://www.w3.org/2000/svg" viewBox="0 0 160 160">
  <defs>
    <style>
      .cls-1 {
        fill: #ec0c21;
      }

      .cls-2 {
        fill: #403c3c;
      }
    </style>
  </defs>
  <polygon class="cls-1" points="69.4 68.1 79.4 38.7 89.2 68.2 120.3 68.6 95.3 87 104.5 116.7 79.2 98.6 53.8 116.5 63.3 86.9 38.4 68.3 69.4 68.1"/>
  <g>
    <polygon class="cls-2" points="81.1 38.15 77.6 39.25 87.9 69.9 114.9 70.3 93.2 86.3 102.86 117.2 106.26 116.2 97.4 87.7 125.7 66.8 90.5 66.4 81.1 38.15"/>
    <polygon class="cls-2" points="37 70 61.2 87.6 51.94 115.96 55.34 117.06 65.4 86.2 39.2 67.1 37 70"/>
    <path class="cls-2" d="M134.4,65.2c-4.2-8.7-4-18.6,.7-27.1l2.9-5.3-17.4-16.2-1.3,1c-11.1,8.1-26.5,8-37.5-.1l-1.4-1-1.4,1c-11,8.2-26.4,8.2-37.5,.1l-1.2-.9-17.4,16.2,2.9,5.3c4.7,8.5,4.9,18.3,.7,27l-.1,.2c-5.7,11.7-6.4,24.9-2,37.1,4.7,12.9,14.5,23.3,27.6,29.2,3.9,1.8,7.5,3.8,10.3,5.4l17.9,10.2,19.3-10.8c3.1-1.8,6.8-3.8,10.8-5.6,12.6-5.7,22-15.6,26.5-28,4.4-12.2,3.5-25.6-2.4-37.7Zm-1.2,36.5c-4.1,11.5-12.9,20.7-24.6,26-4.1,1.8-7.9,3.9-11.1,5.7l-17.3,9.7-16.2-9.2c-2.8-1.6-6.6-3.7-10.6-5.5-12.2-5.4-21.3-15.1-25.7-27.1-4.1-11.3-3.5-23.5,1.8-34.3l.1-.2c4.7-9.7,4.4-20.8-.8-30.3l-1.6-2.9,13.1-12.3c12,8,28,7.8,39.8-.4,11.8,8.3,27.9,8.5,39.9,.4l13.2,12.3-1.5,2.8c-5.2,9.5-5.5,20.6-.7,30.4,5.5,11.2,6.3,23.6,2.2,34.9Z"/>
  </g>
</svg>