<svg xmlns="http://www.w3.org/2000/svg" viewBox="0 0 160 160">
  <defs>
    <style>
      .ff1cf066-869e-474f-8e81-95b47e8590aa {
        fill: none;
      }

      .b51088d9-6c0a-4b13-b793-df8ca5b34d5f {
        fill: #ec0c21;
      }

      .affcc555-709f-43a1-bd22-87b36af1f530 {
        fill: #403c3c;
      }
    </style>
  </defs>
  <g data-name="white bg">
    <rect class="ff1cf066-869e-474f-8e81-95b47e8590aa" x="-0.1" width="160" height="160"/>
  </g>
  <g data-name="Layer 1">
    <circle class="b51088d9-6c0a-4b13-b793-df8ca5b34d5f" cx="80" cy="80" r="10"/>
    <g>
      <path class="affcc555-709f-43a1-bd22-87b36af1f530" d="M145,8.2H15A6.81,6.81,0,0,0,8.2,15V145a6.81,6.81,0,0,0,6.8,6.8H145a6.81,6.81,0,0,0,6.8-6.8V15A6.81,6.81,0,0,0,145,8.2ZM148.2,145a3.21,3.21,0,0,1-3.2,3.2H15a3.21,3.21,0,0,1-3.2-3.2V15A3.21,3.21,0,0,1,15,11.8H145a3.21,3.21,0,0,1,3.2,3.2Z"/>
      <path class="affcc555-709f-43a1-bd22-87b36af1f530" d="M80,23.2A56.8,56.8,0,1,0,136.8,80,56.86,56.86,0,0,0,80,23.2Zm0,110A53.2,53.2,0,1,1,133.2,80,53.27,53.27,0,0,1,80,133.2Z"/>
      <path class="affcc555-709f-43a1-bd22-87b36af1f530" d="M71.8,80a8,8,0,0,1,.08-1.1c0-.09,0-.19.05-.29a7.77,7.77,0,0,1,.21-.93c0-.07,0-.14.07-.22a8.36,8.36,0,0,1,.32-.83l.18-.36a6.44,6.44,0,0,1,.36-.63l.3-.45c.14-.19.28-.37.43-.54s.19-.22.29-.32a8.79,8.79,0,0,1,.7-.66l.15-.11a6.12,6.12,0,0,1,.79-.54l.17-.11a7.71,7.71,0,0,1,1-.51A8.22,8.22,0,0,1,80,71.8V68.2a11.76,11.76,0,0,0-3.16.44L63.13,52.93A8.59,8.59,0,1,1,78.2,47.28V59.83h3.6V47.28a12.19,12.19,0,1,0-21.38,8l13,14.9a1.24,1.24,0,0,1-.18.14c-.27.19-.54.4-.8.61s-.37.33-.55.5l-.35.34-.55.6-.25.32c-.18.22-.35.45-.52.69a.75.75,0,0,1-.07.12A11.85,11.85,0,0,0,69.33,75l-.24.5c-.08.21-.15.41-.22.62s-.15.44-.21.67-.1.37-.15.55-.11.56-.16.84,0,.31-.07.47a11.76,11.76,0,0,0,.35,4.52l-15.7,13.7A8.59,8.59,0,1,1,47.28,81.8H60V78.2H47.28a12.2,12.2,0,1,0,8,21.38L72.88,84.24l-.48-1.19A8,8,0,0,1,71.8,80Z"/>
      <path class="affcc555-709f-43a1-bd22-87b36af1f530" d="M104.7,60.42,87.13,75.75l.48,1.19A8.17,8.17,0,0,1,88.2,80a8,8,0,0,1-.08,1.1c0,.09,0,.19-.05.29a7.21,7.21,0,0,1-.21.92,1.55,1.55,0,0,1-.07.23,7.34,7.34,0,0,1-.32.82l-.18.38c-.11.21-.23.41-.35.61s-.21.32-.33.48-.26.35-.41.52-.19.22-.3.33a7.55,7.55,0,0,1-.65.61l-.21.16a7.81,7.81,0,0,1-.75.53l-.2.12a9.66,9.66,0,0,1-1,.5,8.23,8.23,0,0,1-3.07.6v3.6a11.76,11.76,0,0,0,3.16-.44l13.71,15.71a8.59,8.59,0,1,1-15.07,5.65V100H78.2v12.72a12.19,12.19,0,1,0,21.38-8l-13-14.9.26-.2c.24-.18.48-.35.72-.55s.38-.34.56-.51l.34-.33c.19-.2.37-.4.55-.61l.24-.3c.18-.23.36-.46.53-.7a.56.56,0,0,1,0-.08A12.68,12.68,0,0,0,90.68,85c.08-.17.16-.33.22-.49a6.56,6.56,0,0,0,.23-.62c.08-.22.15-.44.21-.67s.1-.37.15-.56.11-.55.15-.83.06-.31.08-.47A11.94,11.94,0,0,0,91.8,80a11.65,11.65,0,0,0-.43-3.17l15.7-13.7a8.59,8.59,0,1,1,5.65,15.07H100v3.6h12.72a12.19,12.19,0,1,0-8-21.38Z"/>
    </g>
  </g>
</svg>
