<svg data-name="Layer 1" xmlns="http://www.w3.org/2000/svg" viewBox="0 0 160 160">
  <defs>
    <style>
      .b6cdf943-3717-4756-99d6-128800bdda22 {
        fill: #ec0c21;
      }

      .b8b400fa-7b48-4fc4-b55f-335e625a5856 {
        fill: #403c3c;
      }
    </style>
  </defs>
  <g>
    <g>
      <rect class="b6cdf943-3717-4756-99d6-128800bdda22" x="15" y="84.27" width="40" height="10"/>
      <path class="b6cdf943-3717-4756-99d6-128800bdda22" d="M125,125a15,15,0,1,0,15,15A15,15,0,0,0,125,125Zm0,20a5,5,0,1,1,5-5A5,5,0,0,1,125,145Z"/>
      <path class="b6cdf943-3717-4756-99d6-128800bdda22" d="M45,125a15,15,0,1,0,15,15A15,15,0,0,0,45,125Zm0,20a5,5,0,1,1,5-5A5,5,0,0,1,45,145Z"/>
    </g>
    <g>
      <path class="b8b400fa-7b48-4fc4-b55f-335e625a5856" d="M56.8,67.47H13.2v28.6H56.8Zm-3.6,25H16.8v-6.4H35v-3.6H16.8V71.07H53.2Z"/>
      <polygon class="b8b400fa-7b48-4fc4-b55f-335e625a5856" points="123.2 80 123.2 106.8 144.98 106.8 144.98 103.2 126.8 103.2 126.8 80 123.2 80"/>
      <path class="b8b400fa-7b48-4fc4-b55f-335e625a5856" d="M156.8,94.65,147.64,71.8h1a6.82,6.82,0,0,0,6.62-8.4L151.5,43.2H3.16v93.74A6.77,6.77,0,0,0,6.86,143l7.71,3.94H20v-3.6H15.43L8.5,139.79a3.2,3.2,0,0,1-1.74-2.85V46.8H148.5l3.17,17.3,0,.12a3.2,3.2,0,0,1-3.11,4H108.2V110h3.6V71.8h32l9.44,23.55V143.2H141.49a16.79,16.79,0,0,0-16.49-20v3.6A13.2,13.2,0,1,1,111.8,140h-3.6a16.94,16.94,0,0,0,.31,3.2H101.8V105a16.8,16.8,0,0,0-33.6,0v38.2H61.49A16.79,16.79,0,0,0,45,123.2v3.6A13.2,13.2,0,1,1,31.8,140H28.2a16.79,16.79,0,0,0,32.15,6.8h49.3a16.78,16.78,0,0,0,30.7,0H156.8ZM71.8,105a13.2,13.2,0,0,1,26.4,0v38.2H71.8Z"/>
    </g>
  </g>
</svg>
