<svg data-name="Layer 1" xmlns="http://www.w3.org/2000/svg" viewBox="0 0 160 160">
  <defs>
    <style>
      .cls-1 {
        fill: #403c3c;
      }

      .cls-2 {
        fill: #ec0c21;
      }
    </style>
  </defs>

  <polygon class="cls-1" points="95 52.54 60.27 17.99 62.82 15.45 97.55 50 95 52.54"/>
  <path class="cls-2" d="M45,5h0A30,30,0,0,0,15,35h0A30,30,0,0,0,45,65h0A30,30,0,0,0,75,35h0A30,30,0,0,0,45,5Z"/>
  <path class="cls-1" d="M61.79,128.2H60a3.19,3.19,0,0,1,0-6.38h1.8V105l-.07-1.78-1.77,0a3.19,3.19,0,0,1,0-6.38h1.8V80H58.2V93.45a6.78,6.78,0,0,0,0,13.08v11.94a6.79,6.79,0,0,0,0,13.09V144L45,152.84,31.8,144l0-80.13A31.53,31.53,0,0,0,45,66.8h0l0-3.6A28.2,28.2,0,0,1,45,6.8l0-3.6A31.79,31.79,0,0,0,28.17,62l0,84L45,157.16,61.8,146Z"/>
  <path class="cls-1" d="M105,37.45l-25,25L49.18,31.63a8.18,8.18,0,0,1,0-11.56l-2.54-2.55a11.78,11.78,0,0,0,0,16.66L77.46,65l-10,10L120,127.55,157.55,90ZM72.55,75,80,67.54l5.82,5.82a11.78,11.78,0,0,0,16.66,0l-2.55-2.54a8.18,8.18,0,0,1-11.56,0L82.55,65,105,42.55,152.45,90,120,122.45Z"/>
  <rect class="cls-1" x="100.91" y="83.2" width="28.22" height="3.6" transform="translate(-26.42 106.23) rotate(-45)"/>
  <rect class="cls-1" x="110.91" y="93.2" width="28.22" height="3.6" transform="translate(-30.56 116.23) rotate(-45)"/>
  <rect class="cls-1" x="43.2" y="80" width="3.6" height="59.86"/>
</svg>
