<svg data-name="Layer 1" xmlns="http://www.w3.org/2000/svg" viewBox="0 0 160 160">
  <defs>
    <style>
      .cls-1 {
        fill: #ec0c21;
      }

      .cls-2 {
        fill: #403c3c;
      }
    </style>
  </defs>

  <path class="cls-1" d="M80,155V100.25A20.13,20.13,0,0,0,60,80a19.71,19.71,0,0,0-5,.64h0a20.21,20.21,0,0,1,15,19.61V155Z"/>
  <rect class="cls-1" x="120" y="19.94" width="25.02" height="10.06"/>
  <rect class="cls-1" x="100" y="100" width="30" height="20"/>
  <path class="cls-2" d="M98.2,83.2v38.6h33.6V83.2Zm30,35H101.8V101.8H120V98.2H101.8V86.8h26.4Z"/>
  <path class="cls-2" d="M146.82,85h-3.6v68.2H81.83V100.25a21.82,21.82,0,1,0-43.63,0V153.2H5v3.6H155v-3.6h-8.18Zm-105,15.25A18.44,18.44,0,0,1,55,82.52a18.41,18.41,0,0,1,13.2,17.73V153.2H41.8Zm30,52.95V100.25a22.12,22.12,0,0,0-9.65-18.31,18.38,18.38,0,0,1,16.06,18.31V153.2Z"/>
  <path class="cls-2" d="M13.2,74.35V145h3.6V70.75L80,7.55l73.64,73.94L156.19,79l-9.37-9.41V18.14H118.2V40.8L80,2.45,3.73,78.73l2.54,2.54ZM121.8,31.8H135V28.2H121.8V21.74h21.42V65.93L121.8,44.42Z"/>
</svg>
