<svg data-name="Layer 1" xmlns="http://www.w3.org/2000/svg" viewBox="0 0 160 160">
  <defs>
    <style>
      .cls-1 {
        fill: #ec0c21;
      }

      .cls-2 {
        fill: #403c3c;
      }
    </style>
  </defs>

  <polygon class="cls-1" points="55 80 15 110 15 155 55 155 55 80"/>
  <rect class="cls-1" x="85" y="65.05" width="30" height="19.95"/>
  <polygon class="cls-2" points="100 7.33 153.9 51.39 156.17 48.61 100 2.67 43.86 48.61 46.14 51.39 100 7.33"/>
  <polygon class="cls-2" points="115.02 51.8 115.02 48.2 83.22 48.2 83.22 86.8 115.02 86.8 115.02 83.2 86.82 83.2 86.82 66.8 114.92 66.8 114.92 63.2 86.82 63.2 86.82 51.8 115.02 51.8"/>
  <path class="cls-2" d="M146.8,49.92h-3.6V153.2H86.8V115a13.2,13.2,0,0,1,26.4,0h3.6a16.8,16.8,0,0,0-33.6,0v38.2H56.8V50H53.2V79.1L13.93,108.59l2.16,2.88L53.2,83.6v69.6H5v3.6H155v-3.6H146.8Z"/>
</svg>
