<svg data-name="Layer 1" xmlns="http://www.w3.org/2000/svg" viewBox="0 0 160 160">
  <defs>
    <style>
      .cls-1 {
        fill: #ec0c21;
      }

      .cls-2 {
        fill: #403c3c;
      }
    </style>
  </defs>

  <rect class="cls-1" x="39.96" y="105" width="115" height="50"/>
  <rect class="cls-2" x="23.16" y="65" width="3.6" height="90"/>
  <path class="cls-2" d="M41.76,155h-3.6V58A6.21,6.21,0,0,0,32,51.8H5V48.2H32A9.82,9.82,0,0,1,41.76,58Z"/>
  <rect class="cls-2" x="8.16" y="65" width="3.6" height="90"/>
  <path class="cls-2" d="M155,31.8V28.2h-23.2V14.28L120,2.44l-11.8,11.84V28.2h-25v75H60v3.6h95v-3.6H86.76V31.8Zm-43.2-16L120,7.54l8.2,8.22V28.19h-16.4Z"/>
  <rect class="cls-2" x="83.22" y="119.99" width="3.6" height="10"/>
  <rect class="cls-2" x="83.16" y="144.91" width="3.6" height="10"/>
  <rect class="cls-2" x="98.16" y="120" width="3.6" height="10"/>
  <rect class="cls-2" x="98.16" y="145" width="3.6" height="10"/>
  <rect class="cls-2" x="113.16" y="120" width="3.6" height="10"/>
  <rect class="cls-2" x="113.16" y="145" width="3.6" height="10"/>
  <rect class="cls-2" x="128.16" y="120" width="3.6" height="10"/>
  <rect class="cls-2" x="128.16" y="145" width="3.6" height="10"/>
  <path class="cls-2" d="M122.06,80.64v4h-3.47v-4c-4.61-.68-8.25-4.19-8.88-9.77l0-.46h3.59c.57,4.31,3.54,6.93,7.11,6.93,3.77,0,6.22-1.9,6.22-4.86,0-7.62-15.86-3.22-15.86-14.26,0-4.14,3.18-7.1,7.87-7.65v-4h3.47v4a9.09,9.09,0,0,1,8,8.12l0,.21h-3.59a6.05,6.05,0,0,0-6.32-5c-3.51,0-5.63,1.65-5.63,4.31,0,7.28,15.9,2.67,15.9,14.21C130.47,76.92,127.17,80.05,122.06,80.64Z"/>
</svg>
