<svg data-name="Layer 1" xmlns="http://www.w3.org/2000/svg" viewBox="0 0 160 160">
  <defs>
    <style>
      .cls-1 {
        fill: #ec0c21;
      }

      .cls-2 {
        fill: #403c3c;
      }
    </style>
  </defs>

  <path class="cls-1" d="M155,109a24,24,0,0,0-24-24H79a24,24,0,0,0-24,24v46H85v-3.94a16,16,0,0,1,16-16h18a16,16,0,0,1,16,16V155h20Zm-45,21a15,15,0,1,1,15-15A15,15,0,0,1,110,130Z"/>
  <rect class="cls-1" x="85.03" y="155" width="50" height="0.03"/>
  <path class="cls-2" d="M86.83,155h-3.6v-4a17.83,17.83,0,0,1,17.8-17.8h9v3.6h-9A14.22,14.22,0,0,0,86.83,151Z"/>
  <path class="cls-2" d="M56.8,155H53.2V109A25.82,25.82,0,0,1,79,83.2h31v3.6H79A22.23,22.23,0,0,0,56.8,109Z"/>
  <path class="cls-2" d="M60,51.8a24.3,24.3,0,1,1,24.3-24.3A24.33,24.33,0,0,1,60,51.8Zm0-45a20.7,20.7,0,1,0,20.7,20.7A20.72,20.72,0,0,0,60,6.8Z"/>
  <path class="cls-2" d="M110,76.75A21.8,21.8,0,1,1,131.76,55,21.81,21.81,0,0,1,110,76.75Zm0-40A18.21,18.21,0,1,0,128.16,55,18.22,18.22,0,0,0,110,36.75Z"/>
  <path class="cls-2" d="M6.8,155H3.2V84A25.83,25.83,0,0,1,29,58.18H60v3.6H29A22.23,22.23,0,0,0,6.8,84Z"/>
  <path class="cls-2" d="M110,131.82a16.8,16.8,0,1,1,16.8-16.8A16.82,16.82,0,0,1,110,131.82Zm0-30a13.2,13.2,0,1,0,13.2,13.2A13.21,13.21,0,0,0,110,101.82Z"/>
</svg>
