<svg xmlns="http://www.w3.org/2000/svg" viewBox="0 0 160 160">
  <defs>
    <style>
      .f73f049b-3ad7-4cd3-bc49-9beb303cffc2 {
        fill: none;
      }

      .b99cd118-802a-4285-99d7-7db93d16521f {
        fill: #ec0c21;
      }

      .b3ef61e0-e6cd-419e-871c-94d1376dfe4e {
        fill: #403c3c;
      }
    </style>
  </defs>
  <g data-name="white bg">
    <rect class="f73f049b-3ad7-4cd3-bc49-9beb303cffc2" x="-0.1" width="160" height="160"/>
  </g>
  <g data-name="Layer 1">
    <g>
      <path class="b99cd118-802a-4285-99d7-7db93d16521f" d="M135,105H110a25,25,0,0,1,10,20v25h35V125A20,20,0,0,0,135,105Z"/>
      <path class="b99cd118-802a-4285-99d7-7db93d16521f" d="M5,125v25H40V125a25,25,0,0,1,10-20H25A20,20,0,0,0,5,125Z"/>
    </g>
    <g>
      <path class="b3ef61e0-e6cd-419e-871c-94d1376dfe4e" d="M80,91.8A21.8,21.8,0,1,0,58.2,70,21.83,21.83,0,0,0,80,91.8Zm0-40A18.2,18.2,0,1,1,61.8,70,18.21,18.21,0,0,1,80,51.8Z"/>
      <path class="b3ef61e0-e6cd-419e-871c-94d1376dfe4e" d="M95,98.2H65A26.83,26.83,0,0,0,38.2,125v25h3.6V125A23.23,23.23,0,0,1,65,101.8H95A23.23,23.23,0,0,1,118.2,125v25h3.6V125A26.83,26.83,0,0,0,95,98.2Z"/>
      <path class="b3ef61e0-e6cd-419e-871c-94d1376dfe4e" d="M51.8,80A16.8,16.8,0,1,0,35,96.8,16.82,16.82,0,0,0,51.8,80ZM35,93.2A13.2,13.2,0,1,1,48.2,80,13.21,13.21,0,0,1,35,93.2Z"/>
      <path class="b3ef61e0-e6cd-419e-871c-94d1376dfe4e" d="M141.8,80A16.8,16.8,0,1,0,125,96.8,16.82,16.82,0,0,0,141.8,80ZM125,93.2A13.2,13.2,0,1,1,138.2,80,13.21,13.21,0,0,1,125,93.2Z"/>
      <path class="b3ef61e0-e6cd-419e-871c-94d1376dfe4e" d="M3.24,125v25h3.6V125A18.2,18.2,0,0,1,25,106.82H35v-3.6H25A21.8,21.8,0,0,0,3.24,125Z"/>
      <path class="b3ef61e0-e6cd-419e-871c-94d1376dfe4e" d="M135,103.22H125v3.6h10A18.2,18.2,0,0,1,153.18,125v25h3.6V125A21.8,21.8,0,0,0,135,103.22Z"/>
    </g>
  </g>
</svg>
