<?xml version="1.0" encoding="UTF-8"?>
<svg width="12px" height="14px" viewBox="0 0 12 14" version="1.1" xmlns="http://www.w3.org/2000/svg" xmlns:xlink="http://www.w3.org/1999/xlink">
    <g id="filter_light" stroke="none" stroke-width="1" fill="none" fill-rule="evenodd">
        <path d="M3.30066698,-4.26325641e-14 L3.30066698,6.09333333 C4.46197388,6.40893188 5.26800064,7.46323983 5.26800064,8.66666667 C5.26800064,9.87009351 4.46197388,10.9244015 3.30066698,11.24 L3.30066698,11.24 L3.30066698,13.3333333 L1.96733365,13.3333333 L1.96733365,11.24 C0.806026752,10.9244015 -3.19744231e-14,9.87009351 -3.19744231e-14,8.66666667 C-3.19744231e-14,7.46323983 0.806026752,6.40893188 1.96733365,6.09333333 L1.96733365,6.09333333 L1.96733365,-4.26325641e-14 L3.30066698,-4.26325641e-14 Z M9.96733365,-4.26325641e-14 L9.96733365,2.09333333 C11.1286406,2.40893188 11.9346673,3.46323983 11.9346673,4.66666667 C11.9346673,5.87009351 11.1286406,6.92440146 9.96733365,7.24 L9.96733365,7.24 L9.96733365,13.3333333 L8.63400032,13.3333333 L8.63400032,7.24 C7.47269342,6.92440146 6.66666667,5.87009351 6.66666667,4.66666667 C6.66666667,3.46323983 7.47269342,2.40893188 8.63400032,2.09333333 L8.63400032,2.09333333 L8.63400032,-4.26325641e-14 L9.96733365,-4.26325641e-14 Z M2.63400032,7.33333333 C1.89762065,7.33333333 1.30066698,7.930287 1.30066698,8.66666667 C1.30066698,9.40304633 1.89762065,10 2.63400032,10 C3.37037998,10 3.96733365,9.40304633 3.96733365,8.66666667 C3.96733365,7.930287 3.37037998,7.33333333 2.63400032,7.33333333 Z M9.30066698,3.33333333 C8.56428732,3.33333333 7.96733365,3.930287 7.96733365,4.66666667 C7.96733365,5.40304633 8.56428732,6 9.30066698,6 C10.0370467,6 10.6340003,5.40304633 10.6340003,4.66666667 C10.6340003,3.930287 10.0370467,3.33333333 9.30066698,3.33333333 Z" id="Mask" fill="#FFFFFF" fill-rule="nonzero"></path>
    </g>
</svg>