<?xml version="1.0" encoding="UTF-8"?>
<svg width="16px" height="16px" viewBox="0 0 16 16" version="1.1" xmlns="http://www.w3.org/2000/svg" xmlns:xlink="http://www.w3.org/1999/xlink">
    <defs>
        <path d="M8,0 C10.1217319,0 12.1565632,0.842854723 13.6568542,2.34314575 C15.1571453,3.84343678 16,5.87826808 16,8 C16,12.418278 12.418278,16 8,16 C3.581722,16 0,12.418278 0,8 C0,3.581722 3.581722,0 8,0 Z M8,1.33333333 C4.31810167,1.33333333 1.33333333,4.31810167 1.33333333,8 C1.33333333,11.6818983 4.31810167,14.6666667 8,14.6666667 C11.6818983,14.6666667 14.6666667,11.6818983 14.6666667,8 C14.6666667,4.31810167 11.6818983,1.33333333 8,1.33333333 Z M10.8333333,4.89333333 L11.8333333,5.77333333 L6.7,11.64 L3.52666667,8.47333333 L4.47333333,7.52666667 L6.63333333,9.69333333 L10.8333333,4.89333333 Z" id="path-1"></path>
    </defs>
    <g id="Page-1" stroke="none" stroke-width="1" fill="none" fill-rule="evenodd">
        <g id="1x---Status-Indicator" transform="translate(-301.000000, -166.000000)">
            <g id="icon/24/confirm-copy-5" transform="translate(301.000000, 166.000000)">
                <g id="Group" fill="#FFFFFF" opacity="0">
                    <g id="icon/24/background">
                        <rect id="Rectangle" x="0" y="0" width="16" height="16"></rect>
                    </g>
                </g>
                <g id="parts/colors/icon_colors/charcoal-02">
                    <mask id="mask-2" fill="white">
                        <use xlink:href="#path-1"></use>
                    </mask>
                    <use id="Mask" fill="#000000" fill-rule="nonzero" xlink:href="#path-1"></use>
                    <g id="Group" mask="url(#mask-2)">
                        <g transform="translate(-16.000000, -14.000000)" id="parts/colors/icon_colors/charcoal-02">
                            <rect id="Rectangle-Copy" fill="#403C3C" x="0" y="0" width="44" height="44"></rect>
                        </g>
                    </g>
                </g>
            </g>
        </g>
    </g>
</svg>