<?xml version="1.0" encoding="utf-8"?>
<!-- Generator: Adobe Illustrator 26.0.1, SVG Export Plug-In . SVG Version: 6.00 Build 0)  -->
<svg version="1.1" xmlns="http://www.w3.org/2000/svg" xmlns:xlink="http://www.w3.org/1999/xlink" x="0px" y="0px"
	 viewBox="0 0 216 24" style="enable-background:new 0 0 216 24;" xml:space="preserve">
<style type="text/css">
	.st0{fill:#403C3C;}
	.st1{fill:#239873;}
	.st2{fill:#FFFFFF;}
	.st3{fill:#006191;}
	.st4{fill:#A11B13;}
	.st5{fill:#996100;}
</style>
<g>
	<path class="st0" d="M204,22c-5.5,0-10-4.5-10-10s4.5-10,10-10s10,4.5,10,10S209.5,22,204,22 M204,24c6.6,0,12-5.4,12-12
		s-5.4-12-12-12s-12,5.4-12,12S197.4,24,204,24z"/>
</g>
<g>
	<path class="st1" d="M36,0c-6.6,0-12,5.4-12,12s5.4,12,12,12s12-5.4,12-12c0-3.2-1.3-6.2-3.5-8.5S39.2,0,36,0z"/>
	<polygon class="st2" points="34.5,17.1 29.8,12.3 31.2,10.9 34.4,14.1 40.7,6.9 42.2,8.3 	"/>
</g>
<g>
	<path class="st3" d="M12,0C5.4,0,0,5.4,0,12s5.4,12,12,12s12-5.4,12-12c0-3.2-1.3-6.2-3.5-8.5S15.2,0,12,0z"/>
	<circle class="st2" cx="12" cy="6" r="1.5"/>
	<rect x="11" y="10" class="st2" width="2" height="9.1"/>
</g>
<view  id="information" preserveAspectRatio="xMidYMid meet" viewBox="0 0 24 24" zoomAndPan="magnify"></view>
<view  id="success" preserveAspectRatio="xMidYMid meet" viewBox="24 0 24 24" zoomAndPan="magnify"></view>
<view  id="error" preserveAspectRatio="xMidYMid meet" viewBox="48 0 24 24" zoomAndPan="magnify"></view>
<view  id="alert" preserveAspectRatio="xMidYMid meet" viewBox="72 0 24 24" zoomAndPan="magnify"></view>
<view  id="information_inverse" preserveAspectRatio="xMidYMid meet" viewBox="96 0 24 24" zoomAndPan="magnify"></view>
<view  id="success_inverse" preserveAspectRatio="xMidYMid meet" viewBox="120 0 24 24" zoomAndPan="magnify"></view>
<view  id="error_inverse" preserveAspectRatio="xMidYMid meet" viewBox="144 0 24 24" zoomAndPan="magnify"></view>
<view  id="alert_inverse" preserveAspectRatio="xMidYMid meet" viewBox="168 0 24 24" zoomAndPan="magnify"></view>
<view  id="neutral" preserveAspectRatio="xMidYMid meet" viewBox="192 0 24 24" zoomAndPan="magnify"></view>
<g>
	<path class="st4" d="M65,0H55l-7,7v10l7,7h10l7-7V7L65,0z"/>
	<polygon class="st2" points="64.3,17.7 60,13.4 55.7,17.7 54.3,16.3 58.6,12 54.3,7.7 55.7,6.3 60,10.6 64.3,6.3 65.7,7.7 61.4,12 
		65.7,16.3 	"/>
</g>
<g>
	<path class="st5" d="M84,2L74,22h20L84,2z"/>
	<g>
		<rect x="83" y="10" class="st2" width="2" height="6"/>
		<circle class="st2" cx="84" cy="18" r="1"/>
	</g>
</g>
<g>
	<path class="st1" d="M132,0c-6.6,0-12,5.4-12,12s5.4,12,12,12c6.6,0,12-5.4,12-12c0-3.2-1.3-6.2-3.5-8.5S135.2,0,132,0z"/>
	<polygon class="st2" points="130.5,17.1 125.8,12.3 127.2,10.9 130.4,14.1 136.7,6.9 138.2,8.3 	"/>
</g>
<g>
	<path class="st3" d="M108,0c-6.6,0-12,5.4-12,12s5.4,12,12,12s12-5.4,12-12c0-3.2-1.3-6.2-3.5-8.5S111.2,0,108,0z"/>
	<circle class="st2" cx="108" cy="6" r="1.5"/>
	<rect x="107" y="10" class="st2" width="2" height="9.1"/>
</g>
<g>
	<path class="st4" d="M161,0h-10l-7,7v10l7,7h10l7-7V7L161,0z"/>
	<polygon class="st2" points="160.3,17.7 156,13.4 151.7,17.7 150.3,16.3 154.6,12 150.3,7.7 151.7,6.3 156,10.6 160.3,6.3 
		161.7,7.7 157.4,12 161.7,16.3 	"/>
</g>
<g>
	<path class="st5" d="M180,2l-10,20h20L180,2z"/>
	<g>
		<rect x="179" y="10" class="st2" width="2" height="6"/>
		<circle class="st2" cx="180" cy="18" r="1"/>
	</g>
</g>
</svg>
