<svg xmlns="http://www.w3.org/2000/svg" viewBox="0 0 128 32">

  <view id="disabled" viewBox="96 0 32 32"/>
  <view id="active" viewBox="64 0 32 32"/>
  <view id="hover" viewBox="32 0 32 32" />
  <view id="default" viewBox="0 0 32 32"/>

  <g id="b0ec9133-3fa1-49cf-8202-a26e36409bf9" data-name="disabled">
    <g>
      <circle cx="112" cy="16" r="15.5" style="fill: #f4f3f3"/>
      <path d="M112,1A15,15,0,1,1,97,16,15,15,0,0,1,112,1m0-1a16,16,0,1,0,16,16A16,16,0,0,0,112,0Z" style="fill: #767676"/>
    </g>
    <polygon points="113 8 111 8 111 15 104 15 104 17 111 17 111 24 113 24 113 17 120 17 120 15 113 15 113 8" style="fill: #403c3c"/>
  </g>
  <g id="a680eae4-0aa7-494a-9f2e-0cfb2de5a2d0" data-name="active">
    <g>
      <circle cx="80" cy="16" r="15" style="fill: #f7f0e4"/>
      <path d="M80,2A14,14,0,1,1,66,16,14,14,0,0,1,80,2m0-2A16,16,0,1,0,96,16,16,16,0,0,0,80,0Z" style="fill: #767676"/>
    </g>
    <polygon points="81 8 79 8 79 15 72 15 72 17 79 17 79 24 81 24 81 17 88 17 88 15 81 15 81 8" style="fill: #d62311"/>
  </g>
  <g id="f003a83c-fc69-4f80-ac1f-c3d8ef81d071" data-name="hover">
    <g>
      <circle cx="48" cy="16" r="15.5" style="fill: #f7f0e4"/>
      <path d="M48,1A15,15,0,1,1,33,16,15,15,0,0,1,48,1m0-1A16,16,0,1,0,64,16,16,16,0,0,0,48,0Z" style="fill: #767676"/>
    </g>
    <polygon points="49 8 47 8 47 15 40 15 40 17 47 17 47 24 49 24 49 17 56 17 56 15 49 15 49 8" style="fill: #d62311"/>
  </g>
  <g id="ee3660b9-e5cf-47a4-8e3c-53ceae6d2120" data-name="default">
    <g>
      <circle cx="16" cy="16" r="15.5" style="fill: #fff"/>
      <path d="M16,1A15,15,0,1,1,1,16,15,15,0,0,1,16,1m0-1A16,16,0,1,0,32,16,16,16,0,0,0,16,0Z" style="fill: #767676"/>
    </g>
    <polygon points="17 8 15 8 15 15 8 15 8 17 15 17 15 24 17 24 17 17 24 17 24 15 17 15 17 8" style="fill: #d62311"/>
  </g>
</svg>
